<?xml version="1.0" encoding="UTF-8" standalone="no"?>
<!DOCTYPE svg PUBLIC "-//W3C//DTD SVG 1.1//EN" "http://www.w3.org/Graphics/SVG/1.1/DTD/svg11.dtd">
<svg width="100%" height="100%" viewBox="0 0 1200 200" version="1.1" xmlns="http://www.w3.org/2000/svg" xmlnsXlink="http://www.w3.org/1999/xlink" xmlSpace="preserve" xmlnsSerif="http://www.serif.com/" >
    <g transform="matrix(1,0,0,1,-5210,-475.243)">
        <g id="Logo-letters" serifId="Logo letters" transform="matrix(1.00503,0,0,0.239808,-26.1809,475.243)">
            <rect x="5210" y="0" width="1194" height="834" style="fill:none;"/>
            <g transform="matrix(1.58313,0,0,6.63481,-3535.15,-282.951)">
                <path d="M5546.18,62.433L5580.74,147.591C5586.84,133.955 5591.99,122.471 5596.19,113.141C5600.38,103.81 5603.85,96.112 5606.57,90.048C5609.3,83.983 5611.42,79.3 5612.93,75.998C5614.43,72.697 5615.53,70.256 5616.21,68.677C5616.89,67.098 5617.3,66.111 5617.45,65.717C5617.59,65.322 5617.66,64.981 5617.66,64.694C5617.66,64.12 5617.45,63.707 5617.02,63.456C5616.59,63.205 5616.08,63.079 5615.51,63.079L5611.53,63.079L5611.53,62.433L5623.69,62.433L5658.25,147.591L5694.64,66.201C5695.14,65.053 5695.21,64.245 5694.86,63.779C5694.5,63.312 5693.92,63.079 5693.13,63.079L5689.04,63.079L5689.04,62.433L5701.21,62.433L5701.21,63.079C5700.06,63.079 5699.02,63.223 5698.09,63.51C5697.15,63.797 5696.18,64.837 5695.18,66.632L5658.68,148.56L5642.53,148.56L5642.53,147.699L5646.62,147.699C5647.7,147.699 5648.42,147.502 5648.78,147.107C5649.14,146.712 5649.14,146.264 5648.78,145.761L5617.66,66.416L5581.17,148.453L5565.02,148.56L5565.02,147.699L5569.11,147.699C5570.26,147.699 5570.98,147.502 5571.26,147.107C5571.55,146.712 5571.59,146.264 5571.37,145.761L5540.79,67.924C5540.29,66.847 5539.68,65.824 5538.96,64.855C5538.25,63.886 5537.31,63.079 5536.16,62.433L5546.18,62.433Z" style="fill:white;fill-rule:nonzero;"/>
                <path d="M5700.88,148.56L5701.31,147.914L5704.22,147.914C5706.02,147.914 5706.91,146.371 5706.91,143.285L5706.91,98.822C5706.7,97.53 5706.37,96.166 5705.94,94.731L5713.59,100.437L5713.37,148.56L5700.88,148.56ZM5705.94,88.917C5705.94,87.769 5706.36,86.782 5707.18,85.957C5708.01,85.131 5709.03,84.718 5710.25,84.718C5711.33,84.718 5712.28,85.131 5713.1,85.957C5713.93,86.782 5714.34,87.769 5714.34,88.917C5714.34,90.137 5713.93,91.142 5713.1,91.932C5712.28,92.721 5711.33,93.116 5710.25,93.116C5709.03,93.116 5708.01,92.721 5707.18,91.932C5706.36,91.142 5705.94,90.137 5705.94,88.917Z" style="fill:white;fill-rule:nonzero;"/>
                <path d="M5735.77,139.086C5735.98,139.517 5736.23,140.019 5736.52,140.594C5736.81,141.168 5737.11,141.742 5737.43,142.316C5737.76,142.89 5738.12,143.411 5738.51,143.877C5738.9,144.344 5739.28,144.649 5739.64,144.792C5740.07,145.008 5740.56,145.133 5741.09,145.169C5741.63,145.205 5742.12,145.097 5742.55,144.846C5742.98,144.595 5743.34,144.11 5743.62,143.393C5743.91,142.675 5744.06,141.67 5744.06,140.378L5744.06,101.513C5745.13,100.437 5746.14,99.468 5747.07,98.607C5747.86,97.817 5748.63,97.045 5749.38,96.292C5750.14,95.538 5750.62,95.018 5750.84,94.731L5750.84,103.236C5753.13,100.58 5755.88,98.499 5759.07,96.992C5762.27,95.484 5765.69,94.731 5769.36,94.731C5773.3,94.731 5776.8,95.592 5779.85,97.315C5782.9,99.037 5785.47,101.298 5787.55,104.097C5788.19,104.958 5788.72,106.143 5789.11,107.65C5789.51,109.157 5789.83,110.826 5790.08,112.656C5790.33,114.486 5790.51,116.388 5790.62,118.362C5790.73,120.336 5790.78,122.22 5790.78,124.014L5790.67,148.237C5790.67,148.453 5790.6,148.56 5790.46,148.56L5778.51,148.56L5778.51,148.022L5781.2,148.022C5782.06,148.022 5782.69,147.717 5783.08,147.107C5783.48,146.497 5783.73,145.097 5783.84,142.908C5783.94,140.719 5783.98,137.525 5783.94,133.327C5783.91,129.128 5783.89,123.476 5783.89,116.37C5783.89,112.782 5783.48,109.66 5782.65,107.004C5781.82,104.348 5780.73,102.159 5779.37,100.437C5778,98.714 5776.44,97.422 5774.68,96.561C5772.93,95.7 5771.08,95.269 5769.14,95.269C5766.99,95.269 5764.85,95.789 5762.73,96.83C5760.62,97.871 5758.7,99.414 5756.97,101.459C5755.25,103.505 5753.83,106.053 5752.72,109.103C5751.61,112.154 5750.98,115.653 5750.84,119.6L5750.84,140.809C5750.84,140.952 5750.82,141.437 5750.78,142.262C5750.75,143.088 5750.57,143.967 5750.24,144.9C5749.92,145.833 5749.35,146.676 5748.52,147.43C5747.7,148.184 5746.53,148.56 5745.02,148.56C5743.44,148.56 5742.15,148.237 5741.15,147.591C5740.14,146.946 5739.3,146.138 5738.62,145.169C5737.94,144.2 5737.38,143.16 5736.95,142.047C5736.52,140.935 5736.12,139.948 5735.77,139.086Z" style="fill:white;fill-rule:nonzero;"/>
                <path d="M5806.93,121.646C5806.93,117.913 5807.59,114.414 5808.92,111.149C5810.25,107.883 5812.08,105.03 5814.41,102.59C5816.74,100.15 5819.45,98.23 5822.54,96.83C5825.62,95.431 5828.93,94.731 5832.44,94.731C5836.1,94.731 5839.55,95.61 5842.78,97.368C5846.01,99.127 5848.91,101.298 5851.5,103.882C5851.79,104.169 5851.93,104.528 5851.93,104.958C5851.93,105.461 5851.77,105.909 5851.44,106.304C5851.12,106.699 5850.67,106.896 5850.1,106.896L5821.03,106.896C5820.67,107.255 5820.31,107.596 5819.95,107.919C5819.6,108.242 5819.2,108.583 5818.77,108.942C5815.9,111.956 5813.73,115.204 5812.26,118.685C5810.79,122.166 5810.05,125.521 5810.05,128.751C5810.05,133.847 5811.61,137.777 5814.73,140.54C5817.86,143.303 5821.89,144.685 5826.85,144.685C5830.72,144.685 5834.2,143.985 5837.29,142.585C5840.37,141.186 5843.17,139.32 5845.69,136.987C5848.2,134.654 5850.44,132.017 5852.41,129.074C5854.39,126.131 5856.16,123.117 5857.74,120.031L5857.74,121.646C5857.74,125.378 5857.08,128.877 5855.75,132.142C5854.42,135.408 5852.61,138.261 5850.32,140.701C5848.02,143.142 5845.33,145.061 5842.24,146.461C5839.15,147.861 5835.89,148.56 5832.44,148.56C5828.93,148.56 5825.62,147.861 5822.54,146.461C5819.45,145.061 5816.74,143.142 5814.41,140.701C5812.08,138.261 5810.25,135.408 5808.92,132.142C5807.59,128.877 5806.93,125.378 5806.93,121.646ZM5821.68,106.25L5849.13,106.25C5849.78,106.25 5850.24,105.945 5850.53,105.335C5850.82,104.725 5850.71,104.169 5850.21,103.667C5848.56,101.657 5846.78,100.257 5844.88,99.468C5842.98,98.678 5841.09,98.284 5839.23,98.284C5836.93,98.284 5834.74,98.696 5832.66,99.522C5830.58,100.347 5828.71,101.262 5827.06,102.267C5825.12,103.415 5823.33,104.743 5821.68,106.25Z" style="fill:white;fill-rule:nonzero;"/>
                <path d="M5933.11,102.805C5933.11,97.566 5934.07,92.47 5936.01,87.518C5937.95,82.565 5940.89,78.115 5944.84,74.168C5947.14,71.871 5949.68,69.987 5952.48,68.516C5955.28,67.044 5958.26,65.842 5961.42,64.909C5964.58,63.976 5967.9,63.33 5971.38,62.971C5974.86,62.612 5978.36,62.433 5981.87,62.433C5987.47,62.433 5993.03,62.774 5998.56,63.456C6004.09,64.138 6009.29,64.873 6014.17,65.663L6006.42,94.085C6006.71,92.434 6006.85,90.604 6006.85,88.594C6006.85,82.637 6005.72,77.972 6003.46,74.599C6001.2,71.225 5998.36,68.695 5994.95,67.009C5991.55,65.322 5987.89,64.281 5983.97,63.886C5980.06,63.492 5976.45,63.33 5973.15,63.402C5969.06,63.474 5965.06,64.622 5961.15,66.847C5957.24,69.072 5953.76,72.069 5950.71,75.837C5947.66,79.605 5945.22,83.983 5943.39,88.971C5941.56,93.959 5940.64,99.324 5940.64,105.066C5940.64,110.951 5941.63,116.478 5943.6,121.646C5945.57,126.813 5948.16,131.317 5951.35,135.157C5954.55,138.997 5958.19,142.029 5962.28,144.254C5966.37,146.479 5970.53,147.591 5974.77,147.591C5978.07,147.591 5981.66,146.874 5985.53,145.438C5989.41,144.003 5993.12,142.011 5996.68,139.463C6000.23,136.915 6003.37,133.883 6006.1,130.366C6008.82,126.849 6010.65,123.009 6011.59,118.846L6010.19,142.424C6005.45,144.29 6000.66,145.779 5995.82,146.892C5990.97,148.004 5986.11,148.56 5981.23,148.56C5974.84,148.56 5968.7,147.502 5962.82,145.384C5956.93,143.267 5951.51,139.732 5946.56,134.78C5942.04,130.258 5938.67,125.234 5936.44,119.708C5934.22,114.181 5933.11,108.547 5933.11,102.805Z" style="fill:white;fill-rule:nonzero;"/>
                <path d="M6030.32,121.646C6030.32,117.913 6030.98,114.414 6032.31,111.149C6033.64,107.883 6035.47,105.03 6037.8,102.59C6040.14,100.15 6042.85,98.23 6045.93,96.83C6049.02,95.431 6052.32,94.731 6055.84,94.731C6059.5,94.731 6062.94,95.61 6066.17,97.368C6069.4,99.127 6072.31,101.298 6074.89,103.882C6075.18,104.169 6075.32,104.528 6075.32,104.958C6075.32,105.461 6075.16,105.909 6074.84,106.304C6074.52,106.699 6074.07,106.896 6073.49,106.896L6044.42,106.896C6044.07,107.255 6043.71,107.596 6043.35,107.919C6042.99,108.242 6042.59,108.583 6042.16,108.942C6039.29,111.956 6037.12,115.204 6035.65,118.685C6034.18,122.166 6033.44,125.521 6033.44,128.751C6033.44,133.847 6035,137.777 6038.13,140.54C6041.25,143.303 6045.29,144.685 6050.24,144.685C6054.11,144.685 6057.6,143.985 6060.68,142.585C6063.77,141.186 6066.57,139.32 6069.08,136.987C6071.59,134.654 6073.83,132.017 6075.81,129.074C6077.78,126.131 6079.56,123.117 6081.14,120.031L6081.14,121.646C6081.14,125.378 6080.47,128.877 6079.14,132.142C6077.82,135.408 6076,138.261 6073.71,140.701C6071.41,143.142 6068.72,145.061 6065.63,146.461C6062.55,147.861 6059.28,148.56 6055.84,148.56C6052.32,148.56 6049.02,147.861 6045.93,146.461C6042.85,145.061 6040.14,143.142 6037.8,140.701C6035.47,138.261 6033.64,135.408 6032.31,132.142C6030.98,128.877 6030.32,125.378 6030.32,121.646ZM6045.07,106.25L6072.52,106.25C6073.17,106.25 6073.64,105.945 6073.92,105.335C6074.21,104.725 6074.1,104.169 6073.6,103.667C6071.95,101.657 6070.17,100.257 6068.27,99.468C6066.37,98.678 6064.48,98.284 6062.62,98.284C6060.32,98.284 6058.13,98.696 6056.05,99.522C6053.97,100.347 6052.1,101.262 6050.45,102.267C6048.52,103.415 6046.72,104.743 6045.07,106.25Z" style="fill:white;fill-rule:nonzero;"/>
                <path d="M6097.28,148.56L6097.61,148.022L6100.52,148.022C6101.52,148.022 6102.2,147.591 6102.56,146.73C6102.92,145.869 6103.1,144.721 6103.1,143.285L6103.21,77.182C6103.21,75.819 6102.92,74.455 6102.35,73.091L6109.88,78.797L6109.77,148.56L6097.28,148.56Z" style="fill:white;fill-rule:nonzero;"/>
                <path d="M6126.03,148.56L6126.35,148.022L6129.26,148.022C6130.27,148.022 6130.95,147.591 6131.31,146.73C6131.66,145.869 6131.84,144.721 6131.84,143.285L6131.95,77.182C6131.95,75.819 6131.66,74.455 6131.09,73.091L6138.63,78.797L6138.52,148.56L6126.03,148.56Z" style="fill:white;fill-rule:nonzero;"/>
                <path d="M6178.89,94.731C6181.19,94.731 6183.29,95.09 6185.19,95.807C6187.09,96.525 6188.72,97.53 6190.09,98.822C6191.45,100.114 6192.49,101.639 6193.21,103.397C6193.93,105.156 6194.29,107.076 6194.29,109.157L6194.29,140.378C6194.36,142.244 6194.65,143.518 6195.15,144.2C6195.65,144.882 6196.26,145.223 6196.98,145.223C6198.41,145.223 6199.54,144.577 6200.37,143.285C6201.19,141.993 6201.93,140.594 6202.58,139.086C6202.22,139.948 6201.82,140.935 6201.39,142.047C6200.96,143.16 6200.4,144.2 6199.72,145.169C6199.04,146.138 6198.2,146.946 6197.19,147.591C6196.19,148.237 6194.9,148.56 6193.32,148.56C6191.81,148.56 6190.66,148.166 6189.87,147.376C6189.08,146.587 6188.51,145.689 6188.15,144.685C6187.72,143.608 6187.5,142.352 6187.5,140.917L6187.5,127.89C6187.07,130.617 6186.21,133.219 6184.92,135.695C6183.63,138.171 6182.1,140.36 6180.34,142.262C6178.59,144.164 6176.7,145.689 6174.69,146.838C6172.68,147.986 6170.71,148.56 6168.77,148.56C6166.33,148.56 6164.21,148.112 6162.42,147.215C6160.62,146.318 6159.17,145.169 6158.06,143.77C6156.95,142.37 6156.12,140.773 6155.58,138.979C6155.04,137.184 6154.78,135.426 6154.78,133.703C6154.78,130.402 6155.53,127.764 6157.04,125.79C6158.54,123.817 6160.57,122.184 6163.12,120.892C6165.67,119.6 6168.57,118.47 6171.84,117.501C6175.11,116.532 6178.5,115.401 6182.01,114.109C6183.81,113.535 6185.17,112.638 6186.1,111.418C6187.04,110.198 6187.5,108.726 6187.5,107.004C6187.5,105.497 6187.38,104.025 6187.13,102.59C6186.88,101.154 6186.44,99.88 6185.84,98.768C6185.23,97.656 6184.4,96.758 6183.36,96.077C6182.32,95.395 6180.94,95.054 6179.21,95.054C6175.7,95.054 6172.88,95.52 6170.76,96.453C6168.65,97.386 6166.98,98.499 6165.76,99.791C6164.54,101.083 6163.68,102.393 6163.17,103.72C6162.67,105.048 6162.28,106.107 6161.99,106.896L6154.78,108.296C6155.42,107.722 6156.01,106.699 6156.55,105.228C6157.09,103.756 6158.1,102.249 6159.57,100.706C6161.04,99.163 6163.26,97.781 6166.24,96.561C6169.22,95.341 6173.44,94.731 6178.89,94.731ZM6162.42,131.766C6162.42,133.129 6162.6,134.529 6162.96,135.964C6163.32,137.4 6163.89,138.674 6164.68,139.786C6165.47,140.899 6166.49,141.814 6167.75,142.531C6169,143.249 6170.53,143.608 6172.32,143.608C6174.4,143.608 6176.38,142.962 6178.24,141.67C6180.11,140.378 6181.8,138.728 6183.31,136.718C6184.74,135.067 6185.8,133.219 6186.48,131.173C6187.16,129.128 6187.5,127.064 6187.5,124.983L6187.5,109.265C6186.93,110.916 6186.01,112.261 6184.76,113.302C6183.5,114.343 6182.1,115.24 6180.56,115.993C6179.02,116.747 6177.38,117.411 6175.66,117.985C6173.94,118.559 6172.29,119.187 6170.71,119.869C6169.13,120.551 6167.71,121.341 6166.46,122.238C6165.2,123.135 6164.25,124.265 6163.6,125.629C6162.81,127.352 6162.42,129.397 6162.42,131.766Z" style="fill:white;fill-rule:nonzero;"/>
                <path d="M6215.49,148.56L6215.93,148.022L6218.83,148.022C6219.84,148.022 6220.54,147.591 6220.93,146.73C6221.33,145.869 6221.52,144.721 6221.52,143.285L6221.52,98.822C6221.45,97.53 6221.16,96.166 6220.66,94.731L6228.09,100.437L6228.09,103.344C6230.39,100.688 6233.13,98.589 6236.33,97.045C6239.52,95.502 6242.95,94.731 6246.61,94.731C6248.62,94.731 6250.75,95.072 6253.01,95.754C6255.28,96.435 6257.37,97.333 6259.31,98.445C6261.25,99.558 6262.85,100.831 6264.1,102.267C6265.36,103.702 6265.99,105.174 6265.99,106.681C6265.99,107.758 6265.75,108.762 6265.29,109.695C6264.82,110.628 6264.16,111.095 6263.3,111.095C6261.86,111.095 6260.8,110.611 6260.12,109.642C6259.44,108.673 6258.85,107.578 6258.34,106.358C6257.84,105.066 6257.43,103.774 6257.11,102.482C6256.78,101.19 6256.55,100.365 6256.4,100.006C6255.83,98.786 6254.65,97.691 6252.85,96.722C6251.06,95.754 6248.98,95.269 6246.61,95.269C6244.67,95.269 6242.64,95.664 6240.53,96.453C6238.41,97.243 6236.47,98.553 6234.71,100.383C6232.95,102.213 6231.46,104.617 6230.24,107.596C6229.02,110.575 6228.31,114.289 6228.09,118.739L6228.09,148.56L6215.49,148.56Z" style="fill:white;fill-rule:nonzero;"/>
            </g>
        </g>
    </g>
</svg>
