<?xml version="1.0" encoding="UTF-8" standalone="no"?>
<!DOCTYPE svg PUBLIC "-//W3C//DTD SVG 1.1//EN" "http://www.w3.org/Graphics/SVG/1.1/DTD/svg11.dtd">
<svg width="100%" height="100%" viewBox="0 0 1200 350" version="1.1" xmlns="http://www.w3.org/2000/svg" xmlnsXlink="http://www.w3.org/1999/xlink" xmlSpace="preserve" xmlnsSerif="http://www.serif.com/" style="fill-rule:evenodd;clip-rule:evenodd;stroke-linejoin:round;stroke-miterlimit:2;">
    <g transform="matrix(1,0,0,1,-5210,-1.43039)">
        <g id="Artboard3" transform="matrix(1.00503,0,0,0.419664,-26.1809,1.43039)">
            <rect x="5210" y="0" width="1194" height="834" style="fill:none;"/>
            <g transform="matrix(8.78967e-17,-3.43769,1.43546,2.10498e-16,4968.85,2582.96)">
                <g id="Layer1">
                    <g transform="matrix(5.29805e-17,0.865238,-0.865238,5.29805e-17,962.206,-3054.03)">
                        <g transform="matrix(1,-2.48802e-33,-2.48802e-33,1.12598,1.00991e-32,-50.0066)">
                            <path d="M4186.12,270.231L4236.96,395.51C4245.93,375.448 4253.51,358.554 4259.69,344.828C4265.86,331.101 4270.96,319.777 4274.97,310.855C4278.98,301.933 4282.1,295.044 4284.31,290.187C4286.53,285.33 4288.14,281.74 4289.14,279.417C4290.15,277.094 4290.75,275.642 4290.97,275.061C4291.18,274.48 4291.28,273.979 4291.28,273.557C4291.28,272.712 4290.97,272.105 4290.33,271.735C4289.7,271.366 4288.96,271.181 4288.11,271.181L4282.26,271.181L4282.26,270.231L4300.15,270.231L4350.99,395.51L4404.52,275.774C4405.26,274.085 4405.37,272.897 4404.84,272.21C4404.31,271.524 4403.47,271.181 4402.31,271.181L4396.29,271.181L4396.29,270.231L4414.19,270.231L4414.19,271.181C4412.5,271.181 4410.97,271.392 4409.59,271.814C4408.22,272.237 4406.79,273.768 4405.32,276.407L4351.62,396.935L4327.87,396.935L4327.87,395.668L4333.89,395.668C4335.47,395.668 4336.53,395.378 4337.05,394.797C4337.58,394.216 4337.58,393.556 4337.05,392.817L4291.28,276.091L4237.59,396.777L4213.83,396.935L4213.83,395.668L4219.85,395.668C4221.54,395.668 4222.6,395.378 4223.02,394.797C4223.44,394.216 4223.5,393.556 4223.18,392.817L4178.2,278.308C4177.46,276.724 4176.56,275.22 4175.51,273.794C4174.45,272.369 4173.08,271.181 4171.39,270.231L4186.12,270.231Z" style="fill:white;fill-rule:nonzero;"/>
                        </g>
                        <path d="M4397.87,396.935L4398.51,395.985L4402.78,395.985C4405.42,395.985 4406.74,393.715 4406.74,389.174L4406.74,323.763C4406.43,321.863 4405.95,319.856 4405.32,317.745L4416.56,326.139L4416.24,396.935L4397.87,396.935ZM4405.32,309.192C4405.32,307.503 4405.92,306.051 4407.14,304.837C4408.35,303.622 4409.86,303.015 4411.65,303.015C4413.23,303.015 4414.63,303.622 4415.85,304.837C4417.06,306.051 4417.67,307.503 4417.67,309.192C4417.67,310.987 4417.06,312.465 4415.85,313.627C4414.63,314.788 4413.23,315.369 4411.65,315.369C4409.86,315.369 4408.35,314.788 4407.14,313.627C4405.92,312.465 4405.32,310.987 4405.32,309.192Z" style="fill:white;fill-rule:nonzero;"/>
                        <path d="M4433.35,382.997C4433.67,383.631 4434.04,384.37 4434.46,385.215C4434.88,386.06 4435.33,386.904 4435.81,387.749C4436.28,388.594 4436.81,389.359 4437.39,390.045C4437.97,390.732 4438.52,391.18 4439.05,391.392C4439.69,391.708 4440.4,391.893 4441.19,391.946C4441.98,391.999 4442.69,391.84 4443.33,391.471C4443.96,391.101 4444.49,390.389 4444.91,389.333C4445.33,388.277 4445.55,386.799 4445.55,384.898L4445.55,327.723C4447.13,326.139 4448.61,324.713 4449.98,323.446C4451.14,322.285 4452.28,321.15 4453.39,320.041C4454.49,318.933 4455.21,318.167 4455.52,317.745L4455.52,330.257C4458.9,326.35 4462.94,323.288 4467.64,321.071C4472.34,318.853 4477.38,317.745 4482.76,317.745C4488.57,317.745 4493.72,319.012 4498.21,321.546C4502.69,324.08 4506.47,327.406 4509.53,331.524C4510.48,332.791 4511.25,334.533 4511.83,336.75C4512.41,338.968 4512.88,341.423 4513.25,344.115C4513.62,346.808 4513.89,349.606 4514.04,352.509C4514.2,355.413 4514.28,358.185 4514.28,360.824L4514.12,396.46C4514.12,396.777 4514.02,396.935 4513.81,396.935L4496.23,396.935L4496.23,396.143L4500.19,396.143C4501.45,396.143 4502.38,395.694 4502.96,394.797C4503.54,393.899 4503.91,391.84 4504.07,388.62C4504.23,385.4 4504.28,380.701 4504.23,374.524C4504.17,368.347 4504.15,360.032 4504.15,349.579C4504.15,344.3 4503.54,339.707 4502.32,335.8C4501.11,331.893 4499.5,328.673 4497.49,326.139C4495.49,323.605 4493.19,321.704 4490.6,320.437C4488.02,319.17 4485.3,318.537 4482.45,318.537C4479.28,318.537 4476.14,319.302 4473.02,320.833C4469.91,322.364 4467.09,324.634 4464.55,327.644C4462.02,330.653 4459.93,334.401 4458.3,338.889C4456.66,343.376 4455.73,348.523 4455.52,354.331L4455.52,385.532C4455.52,385.743 4455.5,386.455 4455.44,387.67C4455.39,388.884 4455.13,390.177 4454.65,391.55C4454.18,392.923 4453.33,394.163 4452.12,395.272C4450.9,396.381 4449.19,396.935 4446.97,396.935C4444.65,396.935 4442.75,396.46 4441.27,395.51C4439.79,394.559 4438.55,393.371 4437.55,391.946C4436.54,390.521 4435.73,388.99 4435.09,387.353C4434.46,385.716 4433.88,384.265 4433.35,382.997Z" style="fill:white;fill-rule:nonzero;"/>
                        <path d="M4522.2,357.34C4522.2,351.849 4523.18,346.702 4525.13,341.898C4527.08,337.094 4529.78,332.896 4533.21,329.307C4536.64,325.717 4540.63,322.892 4545.17,320.833C4549.71,318.774 4554.56,317.745 4559.74,317.745C4565.12,317.745 4570.19,319.038 4574.94,321.625C4579.69,324.212 4583.97,327.406 4587.77,331.207C4588.19,331.629 4588.4,332.157 4588.4,332.791C4588.4,333.53 4588.17,334.19 4587.69,334.771C4587.22,335.351 4586.56,335.642 4585.71,335.642L4542.95,335.642C4542.42,336.17 4541.89,336.671 4541.36,337.146C4540.84,337.621 4540.26,338.123 4539.62,338.651C4535.4,343.086 4532.2,347.863 4530.04,352.984C4527.88,358.105 4526.79,363.042 4526.79,367.793C4526.79,375.29 4529.09,381.071 4533.68,385.136C4538.28,389.201 4544.22,391.233 4551.5,391.233C4557.2,391.233 4562.32,390.204 4566.86,388.145C4571.4,386.086 4575.52,383.341 4579.22,379.909C4582.91,376.477 4586.21,372.597 4589.12,368.268C4592.02,363.939 4594.63,359.504 4596.96,354.964L4596.96,357.34C4596.96,362.83 4595.98,367.978 4594.03,372.782C4592.07,377.586 4589.41,381.783 4586.03,385.373C4582.65,388.963 4578.69,391.788 4574.15,393.847C4569.61,395.905 4564.81,396.935 4559.74,396.935C4554.56,396.935 4549.71,395.905 4545.17,393.847C4540.63,391.788 4536.64,388.963 4533.21,385.373C4529.78,381.783 4527.08,377.586 4525.13,372.782C4523.18,367.978 4522.2,362.83 4522.2,357.34ZM4543.9,334.691L4584.29,334.691C4585.24,334.691 4585.92,334.243 4586.35,333.345C4586.77,332.448 4586.61,331.629 4585.87,330.89C4583.44,327.934 4580.83,325.875 4578.03,324.713C4575.23,323.552 4572.46,322.971 4569.72,322.971C4566.34,322.971 4563.12,323.578 4560.05,324.793C4556.99,326.007 4554.25,327.353 4551.82,328.831C4548.97,330.521 4546.33,332.474 4543.9,334.691Z" style="fill:white;fill-rule:nonzero;"/>
                    </g>
                    <g transform="matrix(6.78919e-17,1.10876,-1.10876,6.78919e-17,957.985,-4222.86)">
                        <path d="M4171.39,329.623C4171.39,321.915 4172.81,314.419 4175.66,307.133C4178.52,299.848 4182.85,293.301 4188.65,287.494C4192.03,284.115 4195.78,281.344 4199.9,279.179C4204.02,277.015 4208.4,275.246 4213.04,273.873C4217.69,272.501 4222.57,271.55 4227.69,271.023C4232.81,270.495 4237.96,270.231 4243.14,270.231C4251.37,270.231 4259.55,270.732 4267.68,271.735C4275.81,272.738 4283.47,273.821 4290.65,274.982L4279.24,316.794C4279.67,314.366 4279.88,311.673 4279.88,308.717C4279.88,299.953 4278.22,293.09 4274.89,288.128C4271.56,283.165 4267.39,279.443 4262.38,276.962C4257.36,274.48 4251.98,272.949 4246.22,272.369C4240.47,271.788 4235.16,271.55 4230.31,271.656C4224.29,271.762 4218.4,273.451 4212.65,276.724C4206.89,279.997 4201.77,284.406 4197.28,289.949C4192.8,295.492 4189.21,301.933 4186.51,309.271C4183.82,316.61 4182.48,324.502 4182.48,332.949C4182.48,341.607 4183.93,349.738 4186.83,357.34C4189.73,364.942 4193.53,371.568 4198.23,377.217C4202.93,382.865 4208.29,387.327 4214.31,390.6C4220.33,393.873 4226.45,395.51 4232.68,395.51C4237.54,395.51 4242.82,394.454 4248.52,392.342C4254.22,390.23 4259.69,387.3 4264.91,383.552C4270.14,379.803 4274.76,375.342 4278.77,370.169C4282.78,364.995 4285.48,359.346 4286.85,353.222L4284.79,387.907C4277.82,390.653 4270.77,392.843 4263.65,394.48C4256.52,396.117 4249.36,396.935 4242.18,396.935C4232.79,396.935 4223.76,395.378 4215.1,392.263C4206.44,389.148 4198.47,383.948 4191.19,376.662C4184.53,370.01 4179.57,362.619 4176.3,354.489C4173.02,346.359 4171.39,338.07 4171.39,329.623Z" style="fill:white;fill-rule:nonzero;"/>
                        <path d="M4298.57,357.34C4298.57,351.849 4299.55,346.702 4301.5,341.898C4303.45,337.094 4306.14,332.896 4309.57,329.307C4313.01,325.717 4316.99,322.892 4321.53,320.833C4326.07,318.774 4330.93,317.745 4336.1,317.745C4341.49,317.745 4346.56,319.038 4351.31,321.625C4356.06,324.212 4360.34,327.406 4364.14,331.207C4364.56,331.629 4364.77,332.157 4364.77,332.791C4364.77,333.53 4364.53,334.19 4364.06,334.771C4363.58,335.351 4362.92,335.642 4362.08,335.642L4319.32,335.642C4318.79,336.17 4318.26,336.671 4317.73,337.146C4317.2,337.621 4316.62,338.123 4315.99,338.651C4311.77,343.086 4308.57,347.863 4306.41,352.984C4304.24,358.105 4303.16,363.042 4303.16,367.793C4303.16,375.29 4305.46,381.071 4310.05,385.136C4314.64,389.201 4320.58,391.233 4327.87,391.233C4333.57,391.233 4338.69,390.204 4343.23,388.145C4347.77,386.086 4351.89,383.341 4355.59,379.909C4359.28,376.477 4362.58,372.597 4365.48,368.268C4368.39,363.939 4371,359.504 4373.32,354.964L4373.32,357.34C4373.32,362.83 4372.35,367.978 4370.39,372.782C4368.44,377.586 4365.77,381.783 4362.4,385.373C4359.02,388.963 4355.06,391.788 4350.52,393.847C4345.98,395.905 4341.17,396.935 4336.1,396.935C4330.93,396.935 4326.07,395.905 4321.53,393.847C4316.99,391.788 4313.01,388.963 4309.57,385.373C4306.14,381.783 4303.45,377.586 4301.5,372.782C4299.55,367.978 4298.57,362.83 4298.57,357.34ZM4320.27,334.691L4360.65,334.691C4361.6,334.691 4362.29,334.243 4362.71,333.345C4363.13,332.448 4362.98,331.629 4362.24,330.89C4359.81,327.934 4357.19,325.875 4354.4,324.713C4351.6,323.552 4348.83,322.971 4346.08,322.971C4342.7,322.971 4339.48,323.578 4336.42,324.793C4333.36,326.007 4330.61,327.353 4328.19,328.831C4325.33,330.521 4322.69,332.474 4320.27,334.691Z" style="fill:white;fill-rule:nonzero;"/>
                        <path d="M4381.24,396.935L4381.72,396.143L4385.99,396.143C4387.47,396.143 4388.48,395.51 4389,394.242C4389.53,392.975 4389.8,391.286 4389.8,389.174L4389.95,291.929C4389.95,289.923 4389.53,287.916 4388.69,285.91L4399.77,294.304L4399.61,396.935L4381.24,396.935Z" style="fill:white;fill-rule:nonzero;"/>
                        <path d="M4407.69,396.935L4408.17,396.143L4412.44,396.143C4413.92,396.143 4414.93,395.51 4415.45,394.242C4415.98,392.975 4416.24,391.286 4416.24,389.174L4416.4,291.929C4416.4,289.923 4415.98,287.916 4415.14,285.91L4426.22,294.304L4426.06,396.935L4407.69,396.935Z" style="fill:white;fill-rule:nonzero;"/>
                        <path d="M4469.62,317.745C4473,317.745 4476.09,318.273 4478.88,319.329C4481.68,320.384 4484.08,321.863 4486.09,323.763C4488.1,325.664 4489.63,327.907 4490.68,330.494C4491.74,333.081 4492.27,335.906 4492.27,338.968L4492.27,384.898C4492.37,387.643 4492.8,389.517 4493.53,390.521C4494.27,391.524 4495.17,392.025 4496.23,392.025C4498.34,392.025 4500,391.075 4501.22,389.174C4502.43,387.274 4503.51,385.215 4504.46,382.997C4503.93,384.265 4503.35,385.716 4502.72,387.353C4502.09,388.99 4501.27,390.521 4500.27,391.946C4499.26,393.371 4498.02,394.559 4496.54,395.51C4495.07,396.46 4493.16,396.935 4490.84,396.935C4488.62,396.935 4486.94,396.354 4485.77,395.193C4484.61,394.031 4483.77,392.711 4483.24,391.233C4482.61,389.649 4482.29,387.802 4482.29,385.69L4482.29,366.526C4481.66,370.538 4480.39,374.366 4478.49,378.008C4476.59,381.651 4474.34,384.872 4471.76,387.67C4469.17,390.468 4466.4,392.711 4463.44,394.401C4460.48,396.09 4457.58,396.935 4454.73,396.935C4451.14,396.935 4448.03,396.275 4445.39,394.955C4442.75,393.635 4440.61,391.946 4438.97,389.887C4437.34,387.828 4436.12,385.479 4435.33,382.839C4434.54,380.199 4434.14,377.613 4434.14,375.078C4434.14,370.221 4435.25,366.341 4437.47,363.437C4439.69,360.534 4442.67,358.132 4446.42,356.231C4450.16,354.331 4454.44,352.668 4459.24,351.242C4464.05,349.817 4469.04,348.154 4474.21,346.253C4476.85,345.409 4478.86,344.089 4480.23,342.294C4481.6,340.499 4482.29,338.334 4482.29,335.8C4482.29,333.583 4482.1,331.418 4481.73,329.307C4481.36,327.195 4480.73,325.321 4479.83,323.684C4478.94,322.047 4477.72,320.728 4476.19,319.725C4474.66,318.721 4472.63,318.22 4470.09,318.22C4464.92,318.22 4460.78,318.906 4457.66,320.279C4454.55,321.651 4452.09,323.288 4450.3,325.189C4448.5,327.089 4447.23,329.016 4446.49,330.97C4445.76,332.923 4445.18,334.48 4444.75,335.642L4434.14,337.701C4435.09,336.856 4435.96,335.351 4436.76,333.187C4437.55,331.022 4439.03,328.805 4441.19,326.535C4443.35,324.265 4446.63,322.232 4451.01,320.437C4455.39,318.642 4461.59,317.745 4469.62,317.745ZM4445.39,372.228C4445.39,374.234 4445.65,376.293 4446.18,378.404C4446.71,380.516 4447.55,382.39 4448.71,384.027C4449.87,385.664 4451.38,387.01 4453.23,388.066C4455.07,389.122 4457.32,389.649 4459.96,389.649C4463.02,389.649 4465.92,388.699 4468.67,386.799C4471.41,384.898 4473.9,382.47 4476.11,379.513C4478.22,377.085 4479.78,374.366 4480.78,371.357C4481.79,368.347 4482.29,365.312 4482.29,362.25L4482.29,339.126C4481.44,341.555 4480.1,343.534 4478.25,345.065C4476.4,346.596 4474.34,347.916 4472.07,349.025C4469.8,350.134 4467.4,351.11 4464.87,351.955C4462.33,352.8 4459.9,353.724 4457.58,354.727C4455.26,355.73 4453.17,356.891 4451.33,358.211C4449.48,359.531 4448.08,361.194 4447.13,363.2C4445.97,365.734 4445.39,368.743 4445.39,372.228Z" style="fill:white;fill-rule:nonzero;"/>
                        <path d="M4507.63,396.935L4508.26,396.143L4512.54,396.143C4514.02,396.143 4515.05,395.51 4515.63,394.242C4516.21,392.975 4516.5,391.286 4516.5,389.174L4516.5,323.763C4516.39,321.863 4515.97,319.856 4515.23,317.745L4526.16,326.139L4526.16,330.415C4529.54,326.508 4533.58,323.42 4538.28,321.15C4542.98,318.88 4548.02,317.745 4553.4,317.745C4556.36,317.745 4559.5,318.246 4562.83,319.249C4566.15,320.252 4569.24,321.572 4572.09,323.209C4574.94,324.845 4577.29,326.72 4579.14,328.831C4580.99,330.943 4581.91,333.108 4581.91,335.325C4581.91,336.909 4581.57,338.387 4580.88,339.76C4580.19,341.132 4579.22,341.819 4577.95,341.819C4575.84,341.819 4574.28,341.106 4573.28,339.68C4572.28,338.255 4571.4,336.645 4570.66,334.85C4569.93,332.949 4569.32,331.049 4568.84,329.148C4568.37,327.248 4568.03,326.033 4567.82,325.505C4566.97,323.71 4565.23,322.1 4562.59,320.675C4559.95,319.249 4556.89,318.537 4553.4,318.537C4550.55,318.537 4547.57,319.117 4544.45,320.279C4541.34,321.44 4538.49,323.367 4535.9,326.06C4533.31,328.752 4531.12,332.289 4529.33,336.671C4527.53,341.053 4526.48,346.517 4526.16,353.064L4526.16,396.935L4507.63,396.935Z" style="fill:white;fill-rule:nonzero;"/>
                    </g>
                    <g transform="matrix(3.1262e-17,0.510548,-0.510548,3.1262e-17,788.266,-1862.03)">
                        <path d="M4171.39,329.623L4187.7,307.767L4187.7,317.745L4205.76,317.745C4201.64,324.397 4195.62,327.723 4187.7,327.723L4187.7,384.898C4187.81,388.066 4188.39,390.151 4189.44,391.154C4190.5,392.157 4192.14,392.236 4194.35,391.392C4195.41,390.969 4196.47,389.808 4197.52,387.907C4198.58,386.007 4199.42,384.37 4200.06,382.997C4199.53,384.265 4198.95,385.69 4198.31,387.274C4197.68,388.858 4196.86,390.362 4195.86,391.788C4194.86,393.213 4193.59,394.427 4192.06,395.43C4190.53,396.433 4188.65,396.935 4186.44,396.935C4184.22,396.935 4182.5,396.354 4181.29,395.193C4180.07,394.031 4179.2,392.711 4178.67,391.233C4178.04,389.649 4177.72,387.802 4177.72,385.69L4177.72,329.623L4171.39,329.623Z" style="fill:white;fill-rule:nonzero;"/>
                        <path d="M4213.68,382.997C4214.2,383.948 4214.73,384.951 4215.26,386.007C4215.79,387.063 4216.37,388.039 4217,388.937C4217.64,389.834 4218.38,390.573 4219.22,391.154C4220.06,391.735 4221.01,392.025 4222.07,392.025C4223.23,392.025 4224.18,391.524 4224.92,390.521C4225.66,389.517 4226.08,387.643 4226.19,384.898L4226.19,295.888L4236.17,286.069L4236.17,329.94C4239.55,325.928 4243.61,322.813 4248.36,320.596C4253.11,318.378 4258.23,317.27 4263.72,317.27C4270.27,317.27 4275.6,318.405 4279.72,320.675C4283.84,322.945 4287.06,326.06 4289.38,330.019C4291.7,333.979 4293.29,338.598 4294.13,343.878C4294.98,349.157 4295.4,354.753 4295.4,360.666L4295.24,396.46C4295.24,396.777 4295.14,396.935 4294.93,396.935L4277.19,396.935C4276.87,396.935 4276.71,396.829 4276.71,396.618C4276.71,396.407 4276.87,396.301 4277.19,396.301L4281.15,396.301C4282.73,396.301 4283.81,395.642 4284.39,394.322C4284.97,393.002 4285.26,391.286 4285.26,389.174L4285.26,349.262C4285.26,345.039 4284.89,341.079 4284.15,337.384C4283.42,333.688 4282.2,330.442 4280.51,327.644C4278.82,324.845 4276.61,322.655 4273.86,321.071C4271.11,319.487 4267.74,318.695 4263.72,318.695C4260.77,318.695 4257.65,319.276 4254.38,320.437C4251.11,321.599 4248.12,323.578 4245.43,326.376C4242.74,329.175 4240.52,332.896 4238.78,337.542C4237.04,342.188 4236.17,347.995 4236.17,354.964L4236.17,386.482C4236.17,387.221 4236.03,388.171 4235.77,389.333C4235.51,390.494 4235.06,391.629 4234.42,392.738C4233.79,393.847 4232.92,394.823 4231.81,395.668C4230.7,396.513 4229.25,396.935 4227.45,396.935C4225.24,396.935 4223.36,396.433 4221.83,395.43C4220.3,394.427 4219.01,393.213 4217.95,391.788C4216.9,390.362 4216.05,388.858 4215.42,387.274C4214.78,385.69 4214.2,384.265 4213.68,382.997Z" style="fill:white;fill-rule:nonzero;"/>
                        <path d="M4303.32,357.34C4303.32,351.849 4304.3,346.702 4306.25,341.898C4308.2,337.094 4310.9,332.896 4314.33,329.307C4317.76,325.717 4321.74,322.892 4326.28,320.833C4330.82,318.774 4335.68,317.745 4340.86,317.745C4346.24,317.745 4351.31,319.038 4356.06,321.625C4360.81,324.212 4365.09,327.406 4368.89,331.207C4369.31,331.629 4369.52,332.157 4369.52,332.791C4369.52,333.53 4369.28,334.19 4368.81,334.771C4368.33,335.351 4367.68,335.642 4366.83,335.642L4324.07,335.642C4323.54,336.17 4323.01,336.671 4322.48,337.146C4321.95,337.621 4321.38,338.123 4320.74,338.651C4316.52,343.086 4313.32,347.863 4311.16,352.984C4308.99,358.105 4307.91,363.042 4307.91,367.793C4307.91,375.29 4310.21,381.071 4314.8,385.136C4319.4,389.201 4325.33,391.233 4332.62,391.233C4338.32,391.233 4343.44,390.204 4347.98,388.145C4352.52,386.086 4356.64,383.341 4360.34,379.909C4364.03,376.477 4367.33,372.597 4370.23,368.268C4373.14,363.939 4375.75,359.504 4378.07,354.964L4378.07,357.34C4378.07,362.83 4377.1,367.978 4375.15,372.782C4373.19,377.586 4370.53,381.783 4367.15,385.373C4363.77,388.963 4359.81,391.788 4355.27,393.847C4350.73,395.905 4345.92,396.935 4340.86,396.935C4335.68,396.935 4330.82,395.905 4326.28,393.847C4321.74,391.788 4317.76,388.963 4314.33,385.373C4310.9,381.783 4308.2,377.586 4306.25,372.782C4304.3,367.978 4303.32,362.83 4303.32,357.34ZM4325.02,334.691L4365.4,334.691C4366.36,334.691 4367.04,334.243 4367.46,333.345C4367.89,332.448 4367.73,331.629 4366.99,330.89C4364.56,327.934 4361.95,325.875 4359.15,324.713C4356.35,323.552 4353.58,322.971 4350.83,322.971C4347.45,322.971 4344.23,323.578 4341.17,324.793C4338.11,326.007 4335.36,327.353 4332.94,328.831C4330.09,330.521 4327.45,332.474 4325.02,334.691Z" style="fill:white;fill-rule:nonzero;"/>
                    </g>
                    <g>
                        <g transform="matrix(0.693157,0,0,0.693157,-1071.43,-28.868)">
                            <g transform="matrix(9.74016e-16,1,-1,9.74016e-16,2790.13,-2202.29)">
                                <g transform="matrix(24,0,0,24,2505.16,302.867)">
                                    <path d="M0.101,-0L0.101,-0.628L0.336,-0.628C0.382,-0.628 0.42,-0.62 0.451,-0.605C0.481,-0.59 0.503,-0.57 0.519,-0.545C0.534,-0.52 0.541,-0.493 0.541,-0.464C0.541,-0.428 0.531,-0.397 0.511,-0.37C0.491,-0.344 0.462,-0.326 0.422,-0.316C0.448,-0.312 0.47,-0.303 0.49,-0.289C0.509,-0.275 0.525,-0.257 0.536,-0.237C0.547,-0.216 0.552,-0.194 0.552,-0.171C0.552,-0.15 0.548,-0.129 0.541,-0.109C0.534,-0.088 0.522,-0.07 0.506,-0.054C0.489,-0.037 0.467,-0.024 0.439,-0.015C0.411,-0.005 0.377,-0 0.336,-0L0.101,-0ZM0.179,-0.068L0.335,-0.068C0.383,-0.068 0.417,-0.078 0.438,-0.098C0.459,-0.118 0.469,-0.144 0.469,-0.175C0.469,-0.207 0.458,-0.232 0.435,-0.251C0.412,-0.27 0.379,-0.28 0.335,-0.28L0.179,-0.28L0.179,-0.068ZM0.179,-0.561L0.179,-0.347L0.333,-0.347C0.372,-0.347 0.403,-0.357 0.426,-0.376C0.449,-0.395 0.461,-0.422 0.461,-0.457C0.461,-0.49 0.45,-0.515 0.427,-0.534C0.405,-0.552 0.374,-0.561 0.334,-0.561L0.179,-0.561Z" style="fill:white;fill-rule:nonzero;"/>
                                </g>
                            </g>
                            <g transform="matrix(1.43218e-16,1,-1,1.43218e-16,2818.32,-2174.1)">
                                <g transform="matrix(24,0,0,24,2505.16,331.059)">
                                    <path d="M0.1,-0L0.1,-0.628L0.487,-0.628L0.487,-0.561L0.178,-0.561L0.178,-0.35L0.469,-0.35L0.469,-0.283L0.178,-0.283L0.178,-0.068L0.487,-0.068L0.487,-0L0.1,-0Z" style="fill:white;fill-rule:nonzero;"/>
                                </g>
                            </g>
                            <g transform="matrix(-9.3938e-16,1,-1,-9.3938e-16,2845.09,-2147.33)">
                                <g transform="matrix(24,0,0,24,2505.16,357.826)">
                                    <path d="M0.302,0.012C0.26,0.012 0.222,0.004 0.187,-0.011C0.152,-0.026 0.123,-0.048 0.102,-0.078C0.081,-0.108 0.07,-0.144 0.069,-0.188L0.145,-0.188C0.145,-0.159 0.152,-0.135 0.167,-0.116C0.181,-0.097 0.2,-0.083 0.224,-0.074C0.247,-0.065 0.273,-0.06 0.301,-0.06C0.331,-0.06 0.358,-0.065 0.38,-0.075C0.402,-0.084 0.42,-0.097 0.432,-0.113C0.444,-0.129 0.45,-0.146 0.45,-0.165C0.45,-0.192 0.442,-0.213 0.426,-0.23C0.409,-0.246 0.385,-0.26 0.353,-0.27L0.242,-0.309C0.19,-0.328 0.151,-0.349 0.124,-0.373C0.097,-0.397 0.084,-0.431 0.084,-0.474C0.084,-0.523 0.103,-0.562 0.14,-0.593C0.178,-0.624 0.231,-0.639 0.3,-0.639C0.364,-0.639 0.414,-0.624 0.45,-0.595C0.486,-0.565 0.507,-0.526 0.512,-0.476L0.435,-0.476C0.43,-0.505 0.416,-0.528 0.394,-0.544C0.372,-0.56 0.341,-0.568 0.3,-0.568C0.259,-0.568 0.227,-0.559 0.204,-0.541C0.181,-0.522 0.169,-0.499 0.169,-0.471C0.169,-0.448 0.176,-0.43 0.191,-0.416C0.205,-0.403 0.228,-0.391 0.259,-0.38L0.389,-0.335C0.434,-0.32 0.47,-0.299 0.496,-0.272C0.522,-0.245 0.535,-0.21 0.535,-0.167C0.535,-0.134 0.526,-0.103 0.508,-0.077C0.49,-0.05 0.464,-0.028 0.43,-0.012C0.395,0.004 0.352,0.012 0.302,0.012Z" style="fill:white;fill-rule:nonzero;"/>
                                </g>
                            </g>
                            <g transform="matrix(0,1,-1,0,2872.91,-2119.51)">
                                <g transform="matrix(24,0,0,24,2505.16,385.648)">
                                    <path d="M0.006,-0.561L0.006,-0.628L0.495,-0.628L0.495,-0.561L0.272,-0.561L0.289,-0.579L0.289,-0L0.211,-0L0.211,-0.579L0.229,-0.561L0.006,-0.561Z" style="fill:white;fill-rule:nonzero;"/>
                                </g>
                            </g>
                            <g transform="matrix(0,1,-1,0,2917.18,-2075.24)">
                                <g transform="matrix(24,0,0,24,2505.16,429.92)">
                                    <path d="M0.014,-0.628L0.102,-0.628L0.265,-0.069L0.242,-0.069L0.409,-0.563L0.462,-0.563L0.627,-0.073L0.605,-0.073L0.792,-0.628L0.879,-0.628L0.657,-0L0.575,-0L0.43,-0.426L0.445,-0.426L0.295,-0L0.213,-0L0.014,-0.628Z" style="fill:white;fill-rule:nonzero;"/>
                                </g>
                            </g>
                            <g transform="matrix(0,1,-1,0,2951.92,-2040.5)">
                                <g transform="matrix(24,0,0,24,2505.16,464.655)">
                                    <rect x="0.101" y="-0.628" width="0.078" height="0.628" style="fill:white;fill-rule:nonzero;"/>
                                </g>
                            </g>
                            <g transform="matrix(0,1,-1,0,2971.94,-2020.47)">
                                <g transform="matrix(24,0,0,24,2505.16,484.682)">
                                    <path d="M0.1,-0.628L0.193,-0.628L0.512,-0.111L0.505,-0.111L0.505,-0.628L0.583,-0.628L0.583,-0L0.496,-0L0.166,-0.534L0.178,-0.534L0.178,-0L0.1,-0L0.1,-0.628Z" style="fill:white;fill-rule:nonzero;"/>
                                </g>
                            </g>
                            <g transform="matrix(-1.86147e-15,1,-1,-1.86147e-15,3001.65,-1990.77)">
                                <g transform="matrix(24,0,0,24,2505.16,514.388)">
                                    <path d="M0.1,-0L0.1,-0.628L0.487,-0.628L0.487,-0.561L0.178,-0.561L0.178,-0.35L0.469,-0.35L0.469,-0.283L0.178,-0.283L0.178,-0.068L0.487,-0.068L0.487,-0L0.1,-0Z" style="fill:white;fill-rule:nonzero;"/>
                                </g>
                            </g>
                            <g transform="matrix(0,1,-1,0,3028.42,-1964)">
                                <g transform="matrix(24,0,0,24,2505.16,541.154)">
                                    <path d="M0.302,0.012C0.26,0.012 0.222,0.004 0.187,-0.011C0.152,-0.026 0.123,-0.048 0.102,-0.078C0.081,-0.108 0.07,-0.144 0.069,-0.188L0.145,-0.188C0.145,-0.159 0.152,-0.135 0.167,-0.116C0.181,-0.097 0.2,-0.083 0.224,-0.074C0.247,-0.065 0.273,-0.06 0.301,-0.06C0.331,-0.06 0.358,-0.065 0.38,-0.075C0.402,-0.084 0.42,-0.097 0.432,-0.113C0.444,-0.129 0.45,-0.146 0.45,-0.165C0.45,-0.192 0.442,-0.213 0.426,-0.23C0.409,-0.246 0.385,-0.26 0.353,-0.27L0.242,-0.309C0.19,-0.328 0.151,-0.349 0.124,-0.373C0.097,-0.397 0.084,-0.431 0.084,-0.474C0.084,-0.523 0.103,-0.562 0.14,-0.593C0.178,-0.624 0.231,-0.639 0.3,-0.639C0.364,-0.639 0.414,-0.624 0.45,-0.595C0.486,-0.565 0.507,-0.526 0.512,-0.476L0.435,-0.476C0.43,-0.505 0.416,-0.528 0.394,-0.544C0.372,-0.56 0.341,-0.568 0.3,-0.568C0.259,-0.568 0.227,-0.559 0.204,-0.541C0.181,-0.522 0.169,-0.499 0.169,-0.471C0.169,-0.448 0.176,-0.43 0.191,-0.416C0.205,-0.403 0.228,-0.391 0.259,-0.38L0.389,-0.335C0.434,-0.32 0.47,-0.299 0.496,-0.272C0.522,-0.245 0.535,-0.21 0.535,-0.167C0.535,-0.134 0.526,-0.103 0.508,-0.077C0.49,-0.05 0.464,-0.028 0.43,-0.012C0.395,0.004 0.352,0.012 0.302,0.012Z" style="fill:white;fill-rule:nonzero;"/>
                                </g>
                            </g>
                            <g transform="matrix(0.873123,0.4875,-0.4875,0.873123,601.335,-1139.22)">
                                <g transform="matrix(24,0,0,24,2523.67,594.591)">
                                    <path d="M0.101,-0L0.101,-0.628L0.336,-0.628C0.382,-0.628 0.42,-0.62 0.451,-0.605C0.481,-0.59 0.503,-0.57 0.519,-0.545C0.534,-0.52 0.541,-0.493 0.541,-0.464C0.541,-0.428 0.531,-0.397 0.511,-0.37C0.491,-0.344 0.462,-0.326 0.422,-0.316C0.448,-0.312 0.47,-0.303 0.49,-0.289C0.509,-0.275 0.525,-0.257 0.536,-0.237C0.547,-0.216 0.552,-0.194 0.552,-0.171C0.552,-0.15 0.548,-0.129 0.541,-0.109C0.534,-0.088 0.522,-0.07 0.506,-0.054C0.489,-0.037 0.467,-0.024 0.439,-0.015C0.411,-0.005 0.377,-0 0.336,-0L0.101,-0ZM0.179,-0.068L0.335,-0.068C0.383,-0.068 0.417,-0.078 0.438,-0.098C0.459,-0.118 0.469,-0.144 0.469,-0.175C0.469,-0.207 0.458,-0.232 0.435,-0.251C0.412,-0.27 0.379,-0.28 0.335,-0.28L0.179,-0.28L0.179,-0.068ZM0.179,-0.561L0.179,-0.347L0.333,-0.347C0.372,-0.347 0.403,-0.357 0.426,-0.376C0.449,-0.395 0.461,-0.422 0.461,-0.457C0.461,-0.49 0.45,-0.515 0.427,-0.534C0.405,-0.552 0.374,-0.561 0.334,-0.561L0.179,-0.561Z" style="fill:white;fill-rule:nonzero;"/>
                                </g>
                            </g>
                            <g transform="matrix(0.785121,0.619342,-0.619342,0.785121,913.729,-1432.98)">
                                <g transform="matrix(24,0,0,24,2547.78,609.271)">
                                    <path d="M0.1,-0L0.1,-0.628L0.487,-0.628L0.487,-0.561L0.178,-0.561L0.178,-0.35L0.469,-0.35L0.469,-0.283L0.178,-0.283L0.178,-0.068L0.487,-0.068L0.487,-0L0.1,-0Z" style="fill:white;fill-rule:nonzero;"/>
                                </g>
                            </g>
                            <g transform="matrix(0.680025,0.733189,-0.733189,0.680025,1268.03,-1670.29)">
                                <g transform="matrix(24,0,0,24,2568.16,626.576)">
                                    <path d="M0.302,0.012C0.26,0.012 0.222,0.004 0.187,-0.011C0.152,-0.026 0.123,-0.048 0.102,-0.078C0.081,-0.108 0.07,-0.144 0.069,-0.188L0.145,-0.188C0.145,-0.159 0.152,-0.135 0.167,-0.116C0.181,-0.097 0.2,-0.083 0.224,-0.074C0.247,-0.065 0.273,-0.06 0.301,-0.06C0.331,-0.06 0.358,-0.065 0.38,-0.075C0.402,-0.084 0.42,-0.097 0.432,-0.113C0.444,-0.129 0.45,-0.146 0.45,-0.165C0.45,-0.192 0.442,-0.213 0.426,-0.23C0.409,-0.246 0.385,-0.26 0.353,-0.27L0.242,-0.309C0.19,-0.328 0.151,-0.349 0.124,-0.373C0.097,-0.397 0.084,-0.431 0.084,-0.474C0.084,-0.523 0.103,-0.562 0.14,-0.593C0.178,-0.624 0.231,-0.639 0.3,-0.639C0.364,-0.639 0.414,-0.624 0.45,-0.595C0.486,-0.565 0.507,-0.526 0.512,-0.476L0.435,-0.476C0.43,-0.505 0.416,-0.528 0.394,-0.544C0.372,-0.56 0.341,-0.568 0.3,-0.568C0.259,-0.568 0.227,-0.559 0.204,-0.541C0.181,-0.522 0.169,-0.499 0.169,-0.471C0.169,-0.448 0.176,-0.43 0.191,-0.416C0.205,-0.403 0.228,-0.391 0.259,-0.38L0.389,-0.335C0.434,-0.32 0.47,-0.299 0.496,-0.272C0.522,-0.245 0.535,-0.21 0.535,-0.167C0.535,-0.134 0.526,-0.103 0.508,-0.077C0.49,-0.05 0.464,-0.028 0.43,-0.012C0.395,0.004 0.352,0.012 0.302,0.012Z" style="fill:white;fill-rule:nonzero;"/>
                                </g>
                            </g>
                            <g transform="matrix(0.560218,0.828345,-0.828345,0.560218,1659.06,-1847.42)">
                                <g transform="matrix(24,0,0,24,2586.22,647.689)">
                                    <path d="M0.006,-0.561L0.006,-0.628L0.495,-0.628L0.495,-0.561L0.272,-0.561L0.289,-0.579L0.289,-0L0.211,-0L0.211,-0.579L0.229,-0.561L0.006,-0.561Z" style="fill:white;fill-rule:nonzero;"/>
                                </g>
                            </g>
                            <g transform="matrix(0.323351,0.946279,-0.946279,0.323351,2396.99,-1997.16)">
                                <g transform="matrix(24,0,0,24,2607.5,686.432)">
                                    <path d="M0.099,-0L0.099,-0.628L0.301,-0.628C0.37,-0.628 0.423,-0.611 0.459,-0.576C0.496,-0.541 0.514,-0.494 0.514,-0.434C0.514,-0.375 0.496,-0.328 0.459,-0.294C0.423,-0.259 0.37,-0.242 0.301,-0.242L0.178,-0.242L0.178,-0L0.099,-0ZM0.178,-0.31L0.301,-0.31C0.345,-0.31 0.378,-0.321 0.4,-0.344C0.423,-0.366 0.434,-0.396 0.434,-0.434C0.434,-0.473 0.423,-0.503 0.4,-0.527C0.378,-0.55 0.345,-0.561 0.301,-0.561L0.178,-0.561L0.178,-0.31Z" style="fill:white;fill-rule:nonzero;"/>
                                </g>
                            </g>
                            <g transform="matrix(0.170168,0.985415,-0.985415,0.170168,2854.07,-1983.32)">
                                <g transform="matrix(24,0,0,24,2615.24,711.874)">
                                    <path d="M0.101,-0L0.101,-0.628L0.32,-0.628C0.392,-0.628 0.446,-0.611 0.483,-0.577C0.52,-0.543 0.538,-0.498 0.538,-0.442C0.538,-0.387 0.52,-0.342 0.483,-0.308C0.446,-0.274 0.392,-0.257 0.32,-0.257L0.179,-0.257L0.179,-0L0.101,-0ZM0.453,-0L0.273,-0.285L0.358,-0.285L0.554,-0L0.453,-0ZM0.179,-0.312L0.314,-0.312C0.361,-0.312 0.397,-0.324 0.421,-0.347C0.446,-0.37 0.458,-0.4 0.458,-0.437C0.458,-0.475 0.446,-0.505 0.423,-0.528C0.399,-0.55 0.365,-0.561 0.32,-0.561L0.179,-0.561L0.179,-0.312Z" style="fill:white;fill-rule:nonzero;"/>
                                </g>
                            </g>
                            <g transform="matrix(0.0352623,0.999378,-0.999378,0.0352623,3247.77,-1903.1)">
                                <g transform="matrix(24,0,0,24,2618.87,739.592)">
                                    <rect x="0.101" y="-0.628" width="0.078" height="0.628" style="fill:white;fill-rule:nonzero;"/>
                                </g>
                            </g>
                            <g transform="matrix(4.18118e-13,1,-1,4.18118e-13,3360.8,-1859.5)">
                                <g transform="matrix(24,0,0,24,2619.1,759.595)">
                                    <path d="M0.319,0.012C0.264,0.012 0.216,-0.002 0.176,-0.03C0.136,-0.058 0.105,-0.096 0.084,-0.146C0.062,-0.195 0.051,-0.253 0.051,-0.318C0.051,-0.388 0.063,-0.446 0.086,-0.494C0.11,-0.542 0.142,-0.578 0.182,-0.602C0.223,-0.627 0.268,-0.639 0.319,-0.639C0.386,-0.639 0.44,-0.622 0.481,-0.589C0.522,-0.555 0.55,-0.512 0.565,-0.458L0.481,-0.441C0.468,-0.48 0.447,-0.511 0.419,-0.534C0.39,-0.557 0.357,-0.569 0.319,-0.569C0.286,-0.569 0.256,-0.56 0.228,-0.541C0.2,-0.522 0.178,-0.494 0.161,-0.457C0.143,-0.419 0.135,-0.373 0.135,-0.318C0.135,-0.268 0.142,-0.224 0.155,-0.185C0.169,-0.146 0.189,-0.115 0.216,-0.093C0.243,-0.07 0.278,-0.059 0.319,-0.059C0.369,-0.059 0.408,-0.072 0.437,-0.099C0.466,-0.126 0.481,-0.161 0.481,-0.204L0.566,-0.204C0.566,-0.159 0.556,-0.12 0.535,-0.088C0.514,-0.056 0.485,-0.031 0.448,-0.014C0.411,0.003 0.368,0.012 0.319,0.012Z" style="fill:white;fill-rule:nonzero;"/>
                                </g>
                            </g>
                            <g transform="matrix(0,1,-1,0,3388.8,-1831.5)">
                                <g transform="matrix(24,0,0,24,2619.1,787.595)">
                                    <path d="M0.1,-0L0.1,-0.628L0.487,-0.628L0.487,-0.561L0.178,-0.561L0.178,-0.35L0.469,-0.35L0.469,-0.283L0.178,-0.283L0.178,-0.068L0.487,-0.068L0.487,-0L0.1,-0Z" style="fill:white;fill-rule:nonzero;"/>
                                </g>
                            </g>
                            <g transform="matrix(0,1,-1,0,3415.58,-1804.73)">
                                <g transform="matrix(24,0,0,24,2619.1,814.37)">
                                    <path d="M0.302,0.012C0.26,0.012 0.222,0.004 0.187,-0.011C0.152,-0.026 0.123,-0.048 0.102,-0.078C0.081,-0.108 0.07,-0.144 0.069,-0.188L0.145,-0.188C0.145,-0.159 0.152,-0.135 0.167,-0.116C0.181,-0.097 0.2,-0.083 0.224,-0.074C0.247,-0.065 0.273,-0.06 0.301,-0.06C0.331,-0.06 0.358,-0.065 0.38,-0.075C0.402,-0.084 0.42,-0.097 0.432,-0.113C0.444,-0.129 0.45,-0.146 0.45,-0.165C0.45,-0.192 0.442,-0.213 0.426,-0.23C0.409,-0.246 0.385,-0.26 0.353,-0.27L0.242,-0.309C0.19,-0.328 0.151,-0.349 0.124,-0.373C0.097,-0.397 0.084,-0.431 0.084,-0.474C0.084,-0.523 0.103,-0.562 0.14,-0.593C0.178,-0.624 0.231,-0.639 0.3,-0.639C0.364,-0.639 0.414,-0.624 0.45,-0.595C0.486,-0.565 0.507,-0.526 0.512,-0.476L0.435,-0.476C0.43,-0.505 0.416,-0.528 0.394,-0.544C0.372,-0.56 0.341,-0.568 0.3,-0.568C0.259,-0.568 0.227,-0.559 0.204,-0.541C0.181,-0.522 0.169,-0.499 0.169,-0.471C0.169,-0.448 0.176,-0.43 0.191,-0.416C0.205,-0.403 0.228,-0.391 0.259,-0.38L0.389,-0.335C0.434,-0.32 0.47,-0.299 0.496,-0.272C0.522,-0.245 0.535,-0.21 0.535,-0.167C0.535,-0.134 0.526,-0.103 0.508,-0.077C0.49,-0.05 0.464,-0.028 0.43,-0.012C0.395,0.004 0.352,0.012 0.302,0.012Z" style="fill:white;fill-rule:nonzero;"/>
                                </g>
                            </g>
                        </g>
                        <g transform="matrix(4.24436e-17,0.693157,-0.693157,4.24436e-17,713.866,-3490.41)">
                            <g transform="matrix(24,0,0,24,6160.1,-25.053)">
                                <path d="M0.101,-0L0.101,-0.628L0.336,-0.628C0.382,-0.628 0.42,-0.62 0.451,-0.605C0.481,-0.59 0.503,-0.57 0.519,-0.545C0.534,-0.52 0.541,-0.493 0.541,-0.464C0.541,-0.428 0.531,-0.397 0.511,-0.37C0.491,-0.344 0.462,-0.326 0.422,-0.316C0.448,-0.312 0.47,-0.303 0.49,-0.289C0.509,-0.275 0.525,-0.257 0.536,-0.237C0.547,-0.216 0.552,-0.194 0.552,-0.171C0.552,-0.15 0.548,-0.129 0.541,-0.109C0.534,-0.088 0.522,-0.07 0.506,-0.054C0.489,-0.037 0.467,-0.024 0.439,-0.015C0.411,-0.005 0.377,-0 0.336,-0L0.101,-0ZM0.179,-0.068L0.335,-0.068C0.383,-0.068 0.417,-0.078 0.438,-0.098C0.459,-0.118 0.469,-0.144 0.469,-0.175C0.469,-0.207 0.458,-0.232 0.435,-0.251C0.412,-0.27 0.379,-0.28 0.335,-0.28L0.179,-0.28L0.179,-0.068ZM0.179,-0.561L0.179,-0.347L0.333,-0.347C0.372,-0.347 0.403,-0.357 0.426,-0.376C0.449,-0.395 0.461,-0.422 0.461,-0.457C0.461,-0.49 0.45,-0.515 0.427,-0.534C0.405,-0.552 0.374,-0.561 0.334,-0.561L0.179,-0.561Z" style="fill:white;fill-rule:nonzero;"/>
                            </g>
                            <g transform="matrix(24,0,0,24,6188.3,-25.053)">
                                <path d="M0.1,-0L0.1,-0.628L0.487,-0.628L0.487,-0.561L0.178,-0.561L0.178,-0.35L0.469,-0.35L0.469,-0.283L0.178,-0.283L0.178,-0.068L0.487,-0.068L0.487,-0L0.1,-0Z" style="fill:white;fill-rule:nonzero;"/>
                            </g>
                            <g transform="matrix(24,0,0,24,6215.07,-25.053)">
                                <path d="M0.302,0.012C0.26,0.012 0.222,0.004 0.187,-0.011C0.152,-0.026 0.123,-0.048 0.102,-0.078C0.081,-0.108 0.07,-0.144 0.069,-0.188L0.145,-0.188C0.145,-0.159 0.152,-0.135 0.167,-0.116C0.181,-0.097 0.2,-0.083 0.224,-0.074C0.247,-0.065 0.273,-0.06 0.301,-0.06C0.331,-0.06 0.358,-0.065 0.38,-0.075C0.402,-0.084 0.42,-0.097 0.432,-0.113C0.444,-0.129 0.45,-0.146 0.45,-0.165C0.45,-0.192 0.442,-0.213 0.426,-0.23C0.409,-0.246 0.385,-0.26 0.353,-0.27L0.242,-0.309C0.19,-0.328 0.151,-0.349 0.124,-0.373C0.097,-0.397 0.084,-0.431 0.084,-0.474C0.084,-0.523 0.103,-0.562 0.14,-0.593C0.178,-0.624 0.231,-0.639 0.3,-0.639C0.364,-0.639 0.414,-0.624 0.45,-0.595C0.486,-0.565 0.507,-0.526 0.512,-0.476L0.435,-0.476C0.43,-0.505 0.416,-0.528 0.394,-0.544C0.372,-0.56 0.341,-0.568 0.3,-0.568C0.259,-0.568 0.227,-0.559 0.204,-0.541C0.181,-0.522 0.169,-0.499 0.169,-0.471C0.169,-0.448 0.176,-0.43 0.191,-0.416C0.205,-0.403 0.228,-0.391 0.259,-0.38L0.389,-0.335C0.434,-0.32 0.47,-0.299 0.496,-0.272C0.522,-0.245 0.535,-0.21 0.535,-0.167C0.535,-0.134 0.526,-0.103 0.508,-0.077C0.49,-0.05 0.464,-0.028 0.43,-0.012C0.395,0.004 0.352,0.012 0.302,0.012Z" style="fill:white;fill-rule:nonzero;"/>
                            </g>
                            <g transform="matrix(24,0,0,24,6242.87,-25.053)">
                                <path d="M0.006,-0.561L0.006,-0.628L0.495,-0.628L0.495,-0.561L0.272,-0.561L0.289,-0.579L0.289,-0L0.211,-0L0.211,-0.579L0.229,-0.561L0.006,-0.561Z" style="fill:white;fill-rule:nonzero;"/>
                            </g>
                            <g transform="matrix(24,0,0,24,6287.15,-25.053)">
                                <path d="M0.014,-0.628L0.102,-0.628L0.265,-0.069L0.242,-0.069L0.409,-0.563L0.462,-0.563L0.627,-0.073L0.605,-0.073L0.792,-0.628L0.879,-0.628L0.657,-0L0.575,-0L0.43,-0.426L0.445,-0.426L0.295,-0L0.213,-0L0.014,-0.628Z" style="fill:white;fill-rule:nonzero;"/>
                            </g>
                            <g transform="matrix(24,0,0,24,6321.9,-25.053)">
                                <rect x="0.101" y="-0.628" width="0.078" height="0.628" style="fill:white;fill-rule:nonzero;"/>
                            </g>
                            <g transform="matrix(24,0,0,24,6341.9,-25.053)">
                                <path d="M0.1,-0.628L0.193,-0.628L0.512,-0.111L0.505,-0.111L0.505,-0.628L0.583,-0.628L0.583,-0L0.496,-0L0.166,-0.534L0.178,-0.534L0.178,-0L0.1,-0L0.1,-0.628Z" style="fill:white;fill-rule:nonzero;"/>
                            </g>
                            <g transform="matrix(24,0,0,24,6371.6,-25.053)">
                                <path d="M0.1,-0L0.1,-0.628L0.487,-0.628L0.487,-0.561L0.178,-0.561L0.178,-0.35L0.469,-0.35L0.469,-0.283L0.178,-0.283L0.178,-0.068L0.487,-0.068L0.487,-0L0.1,-0Z" style="fill:white;fill-rule:nonzero;"/>
                            </g>
                            <g transform="matrix(24,0,0,24,6398.38,-25.053)">
                                <path d="M0.302,0.012C0.26,0.012 0.222,0.004 0.187,-0.011C0.152,-0.026 0.123,-0.048 0.102,-0.078C0.081,-0.108 0.07,-0.144 0.069,-0.188L0.145,-0.188C0.145,-0.159 0.152,-0.135 0.167,-0.116C0.181,-0.097 0.2,-0.083 0.224,-0.074C0.247,-0.065 0.273,-0.06 0.301,-0.06C0.331,-0.06 0.358,-0.065 0.38,-0.075C0.402,-0.084 0.42,-0.097 0.432,-0.113C0.444,-0.129 0.45,-0.146 0.45,-0.165C0.45,-0.192 0.442,-0.213 0.426,-0.23C0.409,-0.246 0.385,-0.26 0.353,-0.27L0.242,-0.309C0.19,-0.328 0.151,-0.349 0.124,-0.373C0.097,-0.397 0.084,-0.431 0.084,-0.474C0.084,-0.523 0.103,-0.562 0.14,-0.593C0.178,-0.624 0.231,-0.639 0.3,-0.639C0.364,-0.639 0.414,-0.624 0.45,-0.595C0.486,-0.565 0.507,-0.526 0.512,-0.476L0.435,-0.476C0.43,-0.505 0.416,-0.528 0.394,-0.544C0.372,-0.56 0.341,-0.568 0.3,-0.568C0.259,-0.568 0.227,-0.559 0.204,-0.541C0.181,-0.522 0.169,-0.499 0.169,-0.471C0.169,-0.448 0.176,-0.43 0.191,-0.416C0.205,-0.403 0.228,-0.391 0.259,-0.38L0.389,-0.335C0.434,-0.32 0.47,-0.299 0.496,-0.272C0.522,-0.245 0.535,-0.21 0.535,-0.167C0.535,-0.134 0.526,-0.103 0.508,-0.077C0.49,-0.05 0.464,-0.028 0.43,-0.012C0.395,0.004 0.352,0.012 0.302,0.012Z" style="fill:white;fill-rule:nonzero;"/>
                            </g>
                        </g>
                        <g transform="matrix(0.693157,0,6.16298e-33,0.693157,-3748.06,1002.19)">
                            <g transform="matrix(24,0,0,24,6160.1,-25.053)">
                                <path d="M0.101,-0L0.101,-0.628L0.336,-0.628C0.382,-0.628 0.42,-0.62 0.451,-0.605C0.481,-0.59 0.503,-0.57 0.519,-0.545C0.534,-0.52 0.541,-0.493 0.541,-0.464C0.541,-0.428 0.531,-0.397 0.511,-0.37C0.491,-0.344 0.462,-0.326 0.422,-0.316C0.448,-0.312 0.47,-0.303 0.49,-0.289C0.509,-0.275 0.525,-0.257 0.536,-0.237C0.547,-0.216 0.552,-0.194 0.552,-0.171C0.552,-0.15 0.548,-0.129 0.541,-0.109C0.534,-0.088 0.522,-0.07 0.506,-0.054C0.489,-0.037 0.467,-0.024 0.439,-0.015C0.411,-0.005 0.377,-0 0.336,-0L0.101,-0ZM0.179,-0.068L0.335,-0.068C0.383,-0.068 0.417,-0.078 0.438,-0.098C0.459,-0.118 0.469,-0.144 0.469,-0.175C0.469,-0.207 0.458,-0.232 0.435,-0.251C0.412,-0.27 0.379,-0.28 0.335,-0.28L0.179,-0.28L0.179,-0.068ZM0.179,-0.561L0.179,-0.347L0.333,-0.347C0.372,-0.347 0.403,-0.357 0.426,-0.376C0.449,-0.395 0.461,-0.422 0.461,-0.457C0.461,-0.49 0.45,-0.515 0.427,-0.534C0.405,-0.552 0.374,-0.561 0.334,-0.561L0.179,-0.561Z" style="fill:white;fill-rule:nonzero;"/>
                            </g>
                            <g transform="matrix(24,0,0,24,6188.3,-25.053)">
                                <path d="M0.1,-0L0.1,-0.628L0.487,-0.628L0.487,-0.561L0.178,-0.561L0.178,-0.35L0.469,-0.35L0.469,-0.283L0.178,-0.283L0.178,-0.068L0.487,-0.068L0.487,-0L0.1,-0Z" style="fill:white;fill-rule:nonzero;"/>
                            </g>
                            <g transform="matrix(24,0,0,24,6215.07,-25.053)">
                                <path d="M0.302,0.012C0.26,0.012 0.222,0.004 0.187,-0.011C0.152,-0.026 0.123,-0.048 0.102,-0.078C0.081,-0.108 0.07,-0.144 0.069,-0.188L0.145,-0.188C0.145,-0.159 0.152,-0.135 0.167,-0.116C0.181,-0.097 0.2,-0.083 0.224,-0.074C0.247,-0.065 0.273,-0.06 0.301,-0.06C0.331,-0.06 0.358,-0.065 0.38,-0.075C0.402,-0.084 0.42,-0.097 0.432,-0.113C0.444,-0.129 0.45,-0.146 0.45,-0.165C0.45,-0.192 0.442,-0.213 0.426,-0.23C0.409,-0.246 0.385,-0.26 0.353,-0.27L0.242,-0.309C0.19,-0.328 0.151,-0.349 0.124,-0.373C0.097,-0.397 0.084,-0.431 0.084,-0.474C0.084,-0.523 0.103,-0.562 0.14,-0.593C0.178,-0.624 0.231,-0.639 0.3,-0.639C0.364,-0.639 0.414,-0.624 0.45,-0.595C0.486,-0.565 0.507,-0.526 0.512,-0.476L0.435,-0.476C0.43,-0.505 0.416,-0.528 0.394,-0.544C0.372,-0.56 0.341,-0.568 0.3,-0.568C0.259,-0.568 0.227,-0.559 0.204,-0.541C0.181,-0.522 0.169,-0.499 0.169,-0.471C0.169,-0.448 0.176,-0.43 0.191,-0.416C0.205,-0.403 0.228,-0.391 0.259,-0.38L0.389,-0.335C0.434,-0.32 0.47,-0.299 0.496,-0.272C0.522,-0.245 0.535,-0.21 0.535,-0.167C0.535,-0.134 0.526,-0.103 0.508,-0.077C0.49,-0.05 0.464,-0.028 0.43,-0.012C0.395,0.004 0.352,0.012 0.302,0.012Z" style="fill:white;fill-rule:nonzero;"/>
                            </g>
                            <g transform="matrix(24,0,0,24,6242.87,-25.053)">
                                <path d="M0.006,-0.561L0.006,-0.628L0.495,-0.628L0.495,-0.561L0.272,-0.561L0.289,-0.579L0.289,-0L0.211,-0L0.211,-0.579L0.229,-0.561L0.006,-0.561Z" style="fill:white;fill-rule:nonzero;"/>
                            </g>
                            <g transform="matrix(24,0,0,24,6287.15,-25.053)">
                                <path d="M0.099,-0L0.099,-0.628L0.301,-0.628C0.37,-0.628 0.423,-0.611 0.459,-0.576C0.496,-0.541 0.514,-0.494 0.514,-0.434C0.514,-0.375 0.496,-0.328 0.459,-0.294C0.423,-0.259 0.37,-0.242 0.301,-0.242L0.178,-0.242L0.178,-0L0.099,-0ZM0.178,-0.31L0.301,-0.31C0.345,-0.31 0.378,-0.321 0.4,-0.344C0.423,-0.366 0.434,-0.396 0.434,-0.434C0.434,-0.473 0.423,-0.503 0.4,-0.527C0.378,-0.55 0.345,-0.561 0.301,-0.561L0.178,-0.561L0.178,-0.31Z" style="fill:white;fill-rule:nonzero;"/>
                            </g>
                            <g transform="matrix(24,0,0,24,6313.72,-25.053)">
                                <path d="M0.101,-0L0.101,-0.628L0.32,-0.628C0.392,-0.628 0.446,-0.611 0.483,-0.577C0.52,-0.543 0.538,-0.498 0.538,-0.442C0.538,-0.387 0.52,-0.342 0.483,-0.308C0.446,-0.274 0.392,-0.257 0.32,-0.257L0.179,-0.257L0.179,-0L0.101,-0ZM0.453,-0L0.273,-0.285L0.358,-0.285L0.554,-0L0.453,-0ZM0.179,-0.312L0.314,-0.312C0.361,-0.312 0.397,-0.324 0.421,-0.347C0.446,-0.37 0.458,-0.4 0.458,-0.437C0.458,-0.475 0.446,-0.505 0.423,-0.528C0.399,-0.55 0.365,-0.561 0.32,-0.561L0.179,-0.561L0.179,-0.312Z" style="fill:white;fill-rule:nonzero;"/>
                            </g>
                            <g transform="matrix(24,0,0,24,6341.71,-25.053)">
                                <rect x="0.101" y="-0.628" width="0.078" height="0.628" style="fill:white;fill-rule:nonzero;"/>
                            </g>
                            <g transform="matrix(24,0,0,24,6361.72,-25.053)">
                                <path d="M0.319,0.012C0.264,0.012 0.216,-0.002 0.176,-0.03C0.136,-0.058 0.105,-0.096 0.084,-0.146C0.062,-0.195 0.051,-0.253 0.051,-0.318C0.051,-0.388 0.063,-0.446 0.086,-0.494C0.11,-0.542 0.142,-0.578 0.182,-0.602C0.223,-0.627 0.268,-0.639 0.319,-0.639C0.386,-0.639 0.44,-0.622 0.481,-0.589C0.522,-0.555 0.55,-0.512 0.565,-0.458L0.481,-0.441C0.468,-0.48 0.447,-0.511 0.419,-0.534C0.39,-0.557 0.357,-0.569 0.319,-0.569C0.286,-0.569 0.256,-0.56 0.228,-0.541C0.2,-0.522 0.178,-0.494 0.161,-0.457C0.143,-0.419 0.135,-0.373 0.135,-0.318C0.135,-0.268 0.142,-0.224 0.155,-0.185C0.169,-0.146 0.189,-0.115 0.216,-0.093C0.243,-0.07 0.278,-0.059 0.319,-0.059C0.369,-0.059 0.408,-0.072 0.437,-0.099C0.466,-0.126 0.481,-0.161 0.481,-0.204L0.566,-0.204C0.566,-0.159 0.556,-0.12 0.535,-0.088C0.514,-0.056 0.485,-0.031 0.448,-0.014C0.411,0.003 0.368,0.012 0.319,0.012Z" style="fill:white;fill-rule:nonzero;"/>
                            </g>
                            <g transform="matrix(24,0,0,24,6389.72,-25.053)">
                                <path d="M0.1,-0L0.1,-0.628L0.487,-0.628L0.487,-0.561L0.178,-0.561L0.178,-0.35L0.469,-0.35L0.469,-0.283L0.178,-0.283L0.178,-0.068L0.487,-0.068L0.487,-0L0.1,-0Z" style="fill:white;fill-rule:nonzero;"/>
                            </g>
                            <g transform="matrix(24,0,0,24,6416.49,-25.053)">
                                <path d="M0.302,0.012C0.26,0.012 0.222,0.004 0.187,-0.011C0.152,-0.026 0.123,-0.048 0.102,-0.078C0.081,-0.108 0.07,-0.144 0.069,-0.188L0.145,-0.188C0.145,-0.159 0.152,-0.135 0.167,-0.116C0.181,-0.097 0.2,-0.083 0.224,-0.074C0.247,-0.065 0.273,-0.06 0.301,-0.06C0.331,-0.06 0.358,-0.065 0.38,-0.075C0.402,-0.084 0.42,-0.097 0.432,-0.113C0.444,-0.129 0.45,-0.146 0.45,-0.165C0.45,-0.192 0.442,-0.213 0.426,-0.23C0.409,-0.246 0.385,-0.26 0.353,-0.27L0.242,-0.309C0.19,-0.328 0.151,-0.349 0.124,-0.373C0.097,-0.397 0.084,-0.431 0.084,-0.474C0.084,-0.523 0.103,-0.562 0.14,-0.593C0.178,-0.624 0.231,-0.639 0.3,-0.639C0.364,-0.639 0.414,-0.624 0.45,-0.595C0.486,-0.565 0.507,-0.526 0.512,-0.476L0.435,-0.476C0.43,-0.505 0.416,-0.528 0.394,-0.544C0.372,-0.56 0.341,-0.568 0.3,-0.568C0.259,-0.568 0.227,-0.559 0.204,-0.541C0.181,-0.522 0.169,-0.499 0.169,-0.471C0.169,-0.448 0.176,-0.43 0.191,-0.416C0.205,-0.403 0.228,-0.391 0.259,-0.38L0.389,-0.335C0.434,-0.32 0.47,-0.299 0.496,-0.272C0.522,-0.245 0.535,-0.21 0.535,-0.167C0.535,-0.134 0.526,-0.103 0.508,-0.077C0.49,-0.05 0.464,-0.028 0.43,-0.012C0.395,0.004 0.352,0.012 0.302,0.012Z" style="fill:white;fill-rule:nonzero;"/>
                            </g>
                        </g>
                        <g transform="matrix(3.15045e-17,0.514507,-0.514507,3.15045e-17,743.817,-2300.84)">
                            <circle cx="6373.72" cy="20.74" r="5.389" style="fill:white;"/>
                            <path d="M6373.72,15.351C6376.69,15.351 6379.11,17.766 6379.11,20.74C6379.11,23.714 6376.69,26.129 6373.72,26.129C6370.74,26.129 6368.33,23.714 6368.33,20.74C6368.33,17.766 6370.74,15.351 6373.72,15.351ZM6373.72,16.698C6375.95,16.698 6377.76,18.509 6377.76,20.74C6377.76,22.971 6375.95,24.782 6373.72,24.782C6371.49,24.782 6369.68,22.971 6369.68,20.74C6369.68,18.509 6371.49,16.698 6373.72,16.698Z" style="fill:white;"/>
                        </g>
                        <g transform="matrix(3.15045e-17,0.514507,-0.514507,3.15045e-17,671.905,-2902.7)">
                            <circle cx="6373.72" cy="20.74" r="5.389" style="fill:white;"/>
                            <path d="M6373.72,15.351C6376.69,15.351 6379.11,17.766 6379.11,20.74C6379.11,23.714 6376.69,26.129 6373.72,26.129C6370.74,26.129 6368.33,23.714 6368.33,20.74C6368.33,17.766 6370.74,15.351 6373.72,15.351ZM6373.72,16.698C6375.95,16.698 6377.76,18.509 6377.76,20.74C6377.76,22.971 6375.95,24.782 6373.72,24.782C6371.49,24.782 6369.68,22.971 6369.68,20.74C6369.68,18.509 6371.49,16.698 6373.72,16.698Z" style="fill:white;"/>
                        </g>
                    </g>
                </g>
            </g>
        </g>
    </g>
</svg>
