<?xml version="1.0" encoding="UTF-8" standalone="no"?>
<!DOCTYPE svg PUBLIC "-//W3C//DTD SVG 1.1//EN" "http://www.w3.org/Graphics/SVG/1.1/DTD/svg11.dtd">
<svg width="100%" height="100%" viewBox="0 0 350 350" version="1.1" xmlns="http://www.w3.org/2000/svg" xmlns:xlink="http://www.w3.org/1999/xlink" xml:space="preserve" xmlns:serif="http://www.serif.com/" style="fill-rule:evenodd;clip-rule:evenodd;stroke-linejoin:round;stroke-miterlimit:2;">
    <g transform="matrix(1,0,0,1,-6868.36,-4.44089e-16)">
        <g id="Artboard5" transform="matrix(1.44387,0,0,1.07599,-3041.9,-3.47717)">
            <rect x="6863.66" y="3.232" width="242.403" height="325.282" style="fill:none;"/>
            <clipPath id="_clip1">
                <rect x="6863.66" y="3.232" width="242.403" height="325.282"/>
            </clipPath>
            <g clip-path="url(#_clip1)">
                <g transform="matrix(0.545921,0,0,0.710546,3348.96,42.3299)">
                    <rect x="6438.11" y="-55.026" width="444.026" height="457.792" style="fill:rgb(138,131,115);"/>
                </g>
                <g transform="matrix(0.974894,0,0,1.36126,110.324,8.79266)">
                    <path d="M6936.23,73.146L6967.22,149.508C6972.69,137.28 6977.31,126.982 6981.07,118.615C6984.84,110.249 6987.94,103.346 6990.39,97.908C6992.84,92.47 6994.73,88.27 6996.09,85.31C6997.44,82.349 6998.42,80.161 6999.03,78.745C6999.64,77.329 7000.01,76.444 7000.14,76.09C7000.27,75.736 7000.33,75.43 7000.33,75.173C7000.33,74.658 7000.14,74.288 6999.75,74.063C6999.37,73.838 6998.92,73.725 6998.4,73.725L6994.83,73.725L6994.83,73.146L7005.74,73.146L7036.73,149.508L7069.36,76.525C7069.81,75.495 7069.87,74.771 7069.55,74.352C7069.23,73.934 7068.71,73.725 7068.01,73.725L7064.81,73.725L7064.8,72.943L7076.1,72.856L7076.09,73.734C7075.06,73.734 7073.28,73.854 7072.45,74.111C7071.61,74.369 7070.74,75.302 7069.84,76.911L7037.11,150.377L7022.63,150.377L7022.63,149.604L7026.3,149.604C7027.27,149.604 7027.91,149.427 7028.23,149.073C7028.55,148.719 7028.55,148.317 7028.23,147.867L7000.33,76.718L6967.08,151.47L6953.12,150.613L6953.12,149.604L6956.79,149.604C6957.82,149.604 6958.47,149.427 6958.72,149.073C6958.98,148.719 6959.01,148.317 6958.82,147.867L6931.4,78.069C6930.95,77.104 6930.41,76.187 6929.76,75.318C6929.12,74.449 6928.28,73.725 6927.25,73.146L6936.23,73.146Z" style="fill:white;fill-rule:nonzero;"/>
                    <path d="M7065.3,150.377L7065.69,149.797L7068.3,149.797C7069.9,149.797 7070.71,148.414 7070.71,145.646L7070.71,105.776C7070.52,104.617 7070.23,103.395 7069.84,102.107L7076.69,107.224L7076.5,150.377L7065.3,150.377ZM7069.84,96.894C7069.84,95.864 7070.21,94.98 7070.95,94.239C7071.69,93.499 7072.61,93.129 7073.7,93.129C7074.67,93.129 7075.52,93.499 7076.26,94.239C7077,94.98 7077.37,95.864 7077.37,96.894C7077.37,97.988 7077,98.889 7076.26,99.597C7075.52,100.305 7074.67,100.659 7073.7,100.659C7072.61,100.659 7071.69,100.305 7070.95,99.597C7070.21,98.889 7069.84,97.988 7069.84,96.894Z" style="fill:white;fill-rule:nonzero;"/>
                    <path d="M7086.93,141.881C7087.12,142.267 7087.35,142.718 7087.6,143.233C7087.86,143.748 7088.13,144.263 7088.42,144.777C7088.71,145.292 7089.04,145.759 7089.39,146.177C7089.74,146.596 7090.08,146.869 7090.4,146.998C7090.79,147.191 7091.22,147.304 7091.71,147.336C7092.19,147.368 7092.62,147.271 7093.01,147.046C7093.4,146.821 7093.72,146.386 7093.98,145.743C7094.23,145.099 7094.36,144.198 7094.36,143.04L7094.36,108.189C7095.33,107.224 7096.23,106.355 7097.06,105.583C7097.77,104.875 7098.46,104.183 7099.14,103.507C7099.82,102.831 7100.25,102.365 7100.44,102.107L7100.44,109.734C7102.5,107.353 7104.96,105.486 7107.83,104.135C7110.69,102.783 7113.77,102.107 7117.05,102.107C7120.59,102.107 7123.73,102.88 7126.46,104.424C7129.2,105.969 7131.5,107.996 7133.36,110.506C7133.94,111.279 7134.41,112.34 7134.76,113.692C7135.12,115.044 7135.41,116.54 7135.63,118.181C7135.86,119.822 7136.02,121.528 7136.11,123.298C7136.21,125.067 7136.26,126.757 7136.26,128.366L7136.16,150.087C7136.16,150.28 7136.1,150.377 7135.97,150.377L7125.25,150.377L7125.25,149.894L7127.67,149.894C7128.44,149.894 7129,149.62 7129.36,149.073C7129.71,148.526 7129.94,147.271 7130.03,145.308C7130.13,143.345 7130.16,140.481 7130.13,136.716C7130.1,132.951 7130.08,127.883 7130.08,121.512C7130.08,118.294 7129.71,115.494 7128.97,113.113C7128.23,110.731 7127.25,108.769 7126.03,107.224C7124.8,105.679 7123.4,104.521 7121.83,103.748C7120.25,102.976 7118.59,102.59 7116.86,102.59C7114.92,102.59 7113.01,103.057 7111.11,103.99C7109.21,104.923 7107.49,106.307 7105.95,108.141C7104.4,109.975 7103.13,112.26 7102.13,114.995C7101.14,117.731 7100.57,120.868 7100.44,124.408L7100.44,143.426C7100.44,143.555 7100.43,143.989 7100.4,144.729C7100.36,145.469 7100.2,146.258 7099.91,147.094C7099.62,147.931 7099.11,148.687 7098.37,149.363C7097.63,150.039 7096.58,150.377 7095.23,150.377C7093.81,150.377 7092.66,150.087 7091.76,149.508C7090.85,148.929 7090.1,148.205 7089.49,147.336C7088.88,146.467 7088.38,145.534 7087.99,144.536C7087.6,143.539 7087.25,142.654 7086.93,141.881Z" style="fill:white;fill-rule:nonzero;"/>
                    <path d="M7141.09,126.242C7141.09,122.895 7141.68,119.758 7142.87,116.829C7144.06,113.901 7145.7,111.343 7147.8,109.155C7149.89,106.966 7152.32,105.245 7155.08,103.99C7157.85,102.735 7160.81,102.107 7163.97,102.107C7167.25,102.107 7170.34,102.896 7173.23,104.473C7176.13,106.049 7178.74,107.996 7181.05,110.313C7181.31,110.571 7181.44,110.892 7181.44,111.279C7181.44,111.729 7181.29,112.131 7181.01,112.485C7180.72,112.839 7180.31,113.016 7179.8,113.016L7153.73,113.016C7153.41,113.338 7153.09,113.644 7152.77,113.933C7152.44,114.223 7152.09,114.529 7151.7,114.85C7149.13,117.554 7147.18,120.466 7145.86,123.587C7144.55,126.709 7143.89,129.717 7143.89,132.614C7143.89,137.183 7145.28,140.707 7148.09,143.185C7150.89,145.662 7154.51,146.901 7158.95,146.901C7162.42,146.901 7165.54,146.274 7168.31,145.019C7171.08,143.764 7173.59,142.09 7175.84,139.999C7178.09,137.907 7180.1,135.542 7181.87,132.903C7183.64,130.264 7185.24,127.561 7186.65,124.794L7186.65,126.242C7186.65,129.589 7186.06,132.726 7184.87,135.655C7183.68,138.583 7182.05,141.141 7179.99,143.329C7177.93,145.518 7175.52,147.239 7172.75,148.494C7169.98,149.749 7167.06,150.377 7163.97,150.377C7160.81,150.377 7157.85,149.749 7155.08,148.494C7152.32,147.239 7149.89,145.518 7147.8,143.329C7145.7,141.141 7144.06,138.583 7142.87,135.655C7141.68,132.726 7141.09,129.589 7141.09,126.242ZM7154.31,112.437L7178.93,112.437C7179.51,112.437 7179.93,112.163 7180.18,111.616C7180.44,111.069 7180.35,110.571 7179.9,110.12C7178.41,108.318 7176.82,107.063 7175.12,106.355C7173.41,105.647 7171.72,105.293 7170.05,105.293C7167.99,105.293 7166.03,105.663 7164.16,106.403C7162.29,107.143 7160.62,107.964 7159.14,108.865C7157.4,109.895 7155.79,111.085 7154.31,112.437Z" style="fill:white;fill-rule:nonzero;"/>
                </g>
                <g transform="matrix(0.974894,0,0,1.36126,158.399,-96.3385)">
                    <path d="M6984.79,73.146L6976.1,79.903L6975.43,79.614C6976.33,78.906 6977.15,78.214 6977.89,77.538C6978.63,76.862 6979.14,76.267 6979.43,75.752C6979.72,75.237 6979.72,74.819 6979.43,74.497C6979.14,74.175 6978.35,74.015 6977.07,74.015L6959.3,74.015L6959.3,150.377L6956.43,150.377L6951.58,150.647L6945.52,150.377L6945.52,149.701L6949.84,149.701C6950.94,149.701 6951.66,149.299 6952.02,148.494C6952.37,147.69 6952.55,146.547 6952.55,145.067L6952.55,74.015L6934.98,74.015C6933.82,74.015 6933.08,74.159 6932.76,74.449C6932.43,74.739 6932.42,75.141 6932.71,75.656C6933,76.171 6933.5,76.766 6934.2,77.442C6934.91,78.117 6935.72,78.842 6936.62,79.614L6935.94,79.903L6927.25,73.146L6984.79,73.146Z" style="fill:white;fill-rule:nonzero;"/>
                    <path d="M6977.07,141.881C6977.39,142.461 6977.71,143.072 6978.03,143.716C6978.35,144.359 6978.71,144.954 6979.09,145.501C6979.48,146.049 6979.93,146.499 6980.45,146.853C6980.96,147.207 6981.54,147.384 6982.18,147.384C6982.89,147.384 6983.47,147.078 6983.92,146.467C6984.37,145.855 6984.63,144.713 6984.69,143.04L6984.69,88.785L6990.78,82.8L6990.78,109.541C6992.84,107.095 6995.31,105.197 6998.21,103.845C7001.11,102.493 7004.23,101.818 7007.57,101.818C7011.56,101.818 7014.81,102.51 7017.32,103.893C7019.83,105.277 7021.8,107.176 7023.21,109.589C7024.63,112.003 7025.59,114.818 7026.11,118.036C7026.62,121.254 7026.88,124.665 7026.88,128.269L7026.78,150.087C7026.78,150.28 7026.72,150.377 7026.59,150.377L7015.78,150.377C7015.59,150.377 7015.49,150.312 7015.49,150.184C7015.49,150.055 7015.59,149.991 7015.78,149.991L7018.19,149.991C7019.16,149.991 7019.82,149.588 7020.17,148.784C7020.53,147.979 7020.7,146.933 7020.7,145.646L7020.7,121.319C7020.7,118.744 7020.48,116.331 7020.03,114.078C7019.58,111.826 7018.84,109.847 7017.81,108.141C7016.78,106.435 7015.43,105.1 7013.75,104.135C7012.08,103.169 7010.02,102.687 7007.57,102.687C7005.77,102.687 7003.87,103.041 7001.88,103.748C6999.88,104.456 6998.06,105.663 6996.42,107.369C6994.78,109.074 6993.43,111.343 6992.37,114.175C6991.31,117.006 6990.78,120.546 6990.78,124.794L6990.78,144.005C6990.78,144.456 6990.69,145.035 6990.53,145.743C6990.37,146.451 6990.1,147.143 6989.71,147.818C6989.33,148.494 6988.8,149.09 6988.12,149.604C6987.44,150.119 6986.56,150.377 6985.47,150.377C6984.11,150.377 6982.97,150.071 6982.04,149.46C6981.11,148.848 6980.32,148.108 6979.67,147.239C6979.03,146.37 6978.52,145.453 6978.13,144.488C6977.74,143.522 6977.39,142.654 6977.07,141.881Z" style="fill:white;fill-rule:nonzero;"/>
                    <path d="M7031.71,126.242C7031.71,122.895 7032.3,119.758 7033.49,116.829C7034.68,113.901 7036.32,111.343 7038.42,109.155C7040.51,106.966 7042.94,105.245 7045.71,103.99C7048.47,102.735 7051.43,102.107 7054.59,102.107C7057.87,102.107 7060.96,102.896 7063.86,104.473C7066.75,106.049 7069.36,107.996 7071.68,110.313C7071.93,110.571 7072.06,110.892 7072.06,111.279C7072.06,111.729 7071.92,112.131 7071.63,112.485C7071.34,112.839 7070.94,113.016 7070.42,113.016L7044.35,113.016C7044.03,113.338 7043.71,113.644 7043.39,113.933C7043.07,114.223 7042.71,114.529 7042.33,114.85C7039.75,117.554 7037.81,120.466 7036.49,123.587C7035.17,126.709 7034.51,129.717 7034.51,132.614C7034.51,137.183 7035.91,140.707 7038.71,143.185C7041.51,145.662 7045.13,146.901 7049.57,146.901C7053.04,146.901 7056.16,146.274 7058.93,145.019C7061.7,143.764 7064.21,142.09 7066.46,139.999C7068.71,137.907 7070.73,135.542 7072.49,132.903C7074.27,130.264 7075.86,127.561 7077.27,124.794L7077.27,126.242C7077.27,129.589 7076.68,132.726 7075.49,135.655C7074.3,138.583 7072.67,141.141 7070.61,143.329C7068.55,145.518 7066.14,147.239 7063.37,148.494C7060.61,149.749 7057.68,150.377 7054.59,150.377C7051.43,150.377 7048.47,149.749 7045.71,148.494C7042.94,147.239 7040.51,145.518 7038.42,143.329C7036.32,141.141 7034.68,138.583 7033.49,135.655C7032.3,132.726 7031.71,129.589 7031.71,126.242ZM7044.93,112.437L7069.55,112.437C7070.13,112.437 7070.55,112.163 7070.81,111.616C7071.06,111.069 7070.97,110.571 7070.52,110.12C7069.04,108.318 7067.44,107.063 7065.74,106.355C7064.03,105.647 7062.34,105.293 7060.67,105.293C7058.61,105.293 7056.65,105.663 7054.78,106.403C7052.91,107.143 7051.24,107.964 7049.76,108.865C7048.02,109.895 7046.41,111.085 7044.93,112.437Z" style="fill:white;fill-rule:nonzero;"/>
                </g>
                <g transform="matrix(1.06659,0,0,1.4893,-549.389,104.558)">
                    <path d="M6927.25,109.348C6927.25,104.65 6928.12,100.08 6929.86,95.639C6931.6,91.198 6934.24,87.208 6937.78,83.668C6939.84,81.609 6942.12,79.92 6944.63,78.6C6947.14,77.281 6949.62,75.83 6952.45,74.993C6955.28,74.156 6957.85,73.334 6961.4,72.936C6964.52,72.587 6967.75,72.405 6970.91,72.405C6975.93,72.405 6981.22,72.699 6986.18,73.311C6991.13,73.922 6995.78,74.56 7000.16,75.268L6993,101.528C6993.25,100.048 6993.38,98.407 6993.38,96.605C6993.38,91.263 6992.37,87.079 6990.34,84.055C6988.31,81.03 6985.77,78.761 6982.71,77.249C6979.66,75.736 6976.34,75.023 6972.87,74.449C6969.24,73.851 6966.88,73.724 6962.73,74.061C6958.63,74.394 6955.77,75.4 6952.4,77.104C6948.8,78.93 6945.77,81.786 6943.04,85.165C6940.3,88.544 6938.11,92.47 6936.47,96.943C6934.83,101.415 6934.01,106.226 6934.01,111.375C6934.01,116.653 6934.9,121.608 6936.66,126.242C6938.44,130.876 6940.75,134.914 6943.62,138.358C6946.48,141.801 6949.75,144.52 6953.41,146.515C6957.08,148.51 6960.82,149.508 6964.61,149.508C6967.57,149.508 6970.79,148.864 6974.27,147.577C6977.74,146.29 6981.07,144.504 6984.26,142.219C6987.44,139.934 6990.26,137.215 6992.71,134.062C6995.15,130.908 6996.79,127.465 6997.63,123.732L6996.37,144.874C6992.13,146.547 6987.83,147.883 6983.49,148.88C6979.14,149.878 6974.78,150.377 6970.41,150.377C6964.68,150.377 6959.18,149.427 6953.9,147.529C6948.62,145.63 6943.76,142.461 6939.32,138.02C6935.27,133.965 6932.24,129.46 6930.24,124.504C6928.25,119.549 6927.25,114.496 6927.25,109.348Z" style="fill:white;fill-rule:nonzero;"/>
                    <path d="M7004.77,126.242C7004.77,122.895 7005.37,119.758 7006.56,116.829C7007.75,113.901 7009.39,111.343 7011.48,109.155C7013.57,106.966 7016,105.245 7018.77,103.99C7021.54,102.735 7024.5,102.107 7027.65,102.107C7030.94,102.107 7034.03,102.896 7036.92,104.473C7039.82,106.049 7042.42,107.996 7044.74,110.313C7045,110.571 7045.13,110.892 7045.13,111.279C7045.13,111.729 7044.98,112.131 7044.69,112.485C7044.4,112.839 7044,113.016 7043.49,113.016L7017.42,113.016C7017.1,113.338 7016.78,113.644 7016.45,113.933C7016.13,114.223 7015.78,114.529 7015.39,114.85C7012.82,117.554 7010.87,120.466 7009.55,123.587C7008.23,126.709 7007.57,129.717 7007.57,132.614C7007.57,137.183 7008.97,140.707 7011.77,143.185C7014.57,145.662 7018.19,146.901 7022.63,146.901C7026.11,146.901 7029.23,146.274 7032,145.019C7034.77,143.764 7037.28,142.09 7039.53,139.999C7041.78,137.907 7043.79,135.542 7045.56,132.903C7047.33,130.264 7048.92,127.561 7050.34,124.794L7050.34,126.242C7050.34,129.589 7049.74,132.726 7048.55,135.655C7047.36,138.583 7045.74,141.141 7043.68,143.329C7041.62,145.518 7039.2,147.239 7036.44,148.494C7033.67,149.749 7030.74,150.377 7027.65,150.377C7024.5,150.377 7021.54,149.749 7018.77,148.494C7016,147.239 7013.57,145.518 7011.48,143.329C7009.39,141.141 7007.75,138.583 7006.56,135.655C7005.37,132.726 7004.77,129.589 7004.77,126.242ZM7018,112.437L7042.62,112.437C7043.2,112.437 7043.61,112.163 7043.87,111.616C7044.13,111.069 7044.03,110.571 7043.58,110.12C7042.1,108.318 7040.51,107.063 7038.8,106.355C7037.1,105.647 7035.41,105.293 7033.74,105.293C7031.68,105.293 7029.71,105.663 7027.85,106.403C7025.98,107.143 7024.31,107.964 7022.83,108.865C7021.09,109.895 7019.48,111.085 7018,112.437Z" style="fill:white;fill-rule:nonzero;"/>
                    <path d="M7055.17,150.377L7055.46,149.894L7058.06,149.894C7058.96,149.894 7059.57,149.508 7059.9,148.736C7060.22,147.963 7060.38,146.933 7060.38,145.646L7060.48,86.372C7060.48,85.149 7060.22,83.926 7059.7,82.703L7066.46,87.82L7066.36,150.377L7055.17,150.377Z" style="fill:white;fill-rule:nonzero;"/>
                    <path d="M7071.29,150.377L7071.58,149.894L7074.19,149.894C7075.09,149.894 7075.7,149.508 7076.02,148.736C7076.34,147.963 7076.5,146.933 7076.5,145.646L7076.6,86.372C7076.6,85.149 7076.34,83.926 7075.83,82.703L7082.58,87.82L7082.49,150.377L7071.29,150.377Z" style="fill:white;fill-rule:nonzero;"/>
                    <path d="M7109.03,102.107C7111.1,102.107 7112.98,102.429 7114.68,103.073C7116.39,103.716 7117.85,104.617 7119.07,105.776C7120.3,106.934 7121.23,108.302 7121.88,109.879C7122.52,111.456 7122.84,113.177 7122.84,115.044L7122.84,143.04C7122.9,144.713 7123.16,145.855 7123.61,146.467C7124.06,147.078 7124.61,147.384 7125.25,147.384C7126.54,147.384 7127.55,146.805 7128.3,145.646C7129.03,144.488 7129.69,143.233 7130.27,141.881C7129.95,142.654 7129.6,143.539 7129.21,144.536C7128.83,145.534 7128.33,146.467 7127.72,147.336C7127.1,148.205 7126.35,148.929 7125.45,149.508C7124.55,150.087 7123.39,150.377 7121.97,150.377C7120.62,150.377 7119.59,150.023 7118.88,149.315C7118.17,148.607 7117.66,147.802 7117.34,146.901C7116.95,145.936 7116.76,144.81 7116.76,143.522L7116.76,131.841C7116.37,134.287 7115.6,136.62 7114.44,138.84C7113.28,141.061 7111.91,143.024 7110.34,144.729C7108.76,146.435 7107.07,147.802 7105.27,148.832C7103.47,149.862 7101.7,150.377 7099.96,150.377C7097.77,150.377 7095.87,149.974 7094.27,149.17C7092.66,148.365 7091.35,147.336 7090.36,146.081C7089.36,144.826 7088.62,143.394 7088.13,141.785C7087.65,140.176 7087.41,138.599 7087.41,137.054C7087.41,134.094 7088.09,131.729 7089.44,129.959C7090.79,128.189 7092.61,126.725 7094.89,125.566C7097.18,124.408 7099.78,123.394 7102.71,122.525C7105.64,121.656 7108.68,120.643 7111.84,119.484C7113.44,118.969 7114.67,118.165 7115.5,117.071C7116.34,115.977 7116.76,114.657 7116.76,113.113C7116.76,111.761 7116.65,110.442 7116.42,109.155C7116.19,107.867 7115.81,106.725 7115.26,105.728C7114.72,104.73 7113.98,103.925 7113.04,103.314C7112.11,102.703 7110.87,102.397 7109.32,102.397C7106.17,102.397 7103.65,102.815 7101.75,103.652C7099.85,104.489 7098.35,105.486 7097.26,106.645C7096.16,107.803 7095.39,108.978 7094.94,110.168C7094.49,111.359 7094.14,112.308 7093.88,113.016L7087.41,114.271C7087.99,113.756 7088.52,112.839 7089,111.52C7089.49,110.2 7090.39,108.849 7091.71,107.465C7093.03,106.082 7095.02,104.843 7097.69,103.748C7100.36,102.654 7104.14,102.107 7109.03,102.107ZM7094.27,135.317C7094.27,136.539 7094.43,137.794 7094.75,139.082C7095.07,140.369 7095.58,141.511 7096.29,142.509C7097,143.506 7097.92,144.327 7099.04,144.971C7100.17,145.614 7101.54,145.936 7103.15,145.936C7105.01,145.936 7106.78,145.357 7108.46,144.198C7110.13,143.04 7111.64,141.559 7112.99,139.757C7114.28,138.277 7115.23,136.62 7115.84,134.786C7116.45,132.951 7116.76,131.101 7116.76,129.235L7116.76,115.14C7116.24,116.62 7115.42,117.827 7114.3,118.76C7113.17,119.693 7111.91,120.498 7110.53,121.174C7109.15,121.85 7107.68,122.445 7106.14,122.96C7104.59,123.475 7103.11,124.038 7101.7,124.649C7100.28,125.261 7099.01,125.968 7097.89,126.773C7096.76,127.577 7095.91,128.591 7095.33,129.814C7094.62,131.359 7094.27,133.193 7094.27,135.317Z" style="fill:white;fill-rule:nonzero;"/>
                    <path d="M7132.2,150.377L7132.59,149.894L7135.2,149.894C7136.1,149.894 7136.73,149.508 7137.08,148.736C7137.43,147.963 7137.61,146.933 7137.61,145.646L7137.61,105.776C7137.55,104.617 7137.29,103.395 7136.84,102.107L7143.5,107.224L7143.5,109.83C7145.56,107.449 7148.02,105.567 7150.89,104.183C7153.75,102.799 7156.82,102.107 7160.1,102.107C7161.91,102.107 7163.82,102.413 7165.85,103.024C7167.88,103.636 7169.76,104.44 7171.5,105.438C7173.23,106.435 7174.66,107.578 7175.79,108.865C7176.92,110.152 7177.48,111.472 7177.48,112.823C7177.48,113.789 7177.27,114.69 7176.85,115.526C7176.44,116.363 7175.84,116.781 7175.07,116.781C7173.78,116.781 7172.83,116.347 7172.22,115.478C7171.61,114.609 7171.08,113.628 7170.63,112.534C7170.18,111.375 7169.81,110.217 7169.52,109.058C7169.23,107.9 7169.02,107.16 7168.89,106.838C7168.37,105.744 7167.31,104.762 7165.7,103.893C7164.09,103.024 7162.23,102.59 7160.1,102.59C7158.37,102.59 7156.55,102.944 7154.65,103.652C7152.75,104.36 7151.01,105.534 7149.44,107.176C7147.86,108.817 7146.52,110.973 7145.43,113.644C7144.34,116.315 7143.69,119.645 7143.5,123.635L7143.5,150.377L7132.2,150.377Z" style="fill:white;fill-rule:nonzero;"/>
                </g>
            </g>
        </g>
    </g>
</svg>
