<?xml version="1.0" encoding="UTF-8" standalone="no"?>
<!DOCTYPE svg PUBLIC "-//W3C//DTD SVG 1.1//EN" "http://www.w3.org/Graphics/SVG/1.1/DTD/svg11.dtd">
<svg width="100%" height="100%" viewBox="0 0 350 350" version="1.1" xmlns="http://www.w3.org/2000/svg" xmlnsXlink="http://www.w3.org/1999/xlink" xmlSpace="preserve" xmlnsSerif="http://www.serif.com/" style="fill-rule:evenodd;clip-rule:evenodd;stroke-linejoin:round;stroke-miterlimit:2;">
    <g transform="matrix(1,0,0,1,-6483,-1.43039)">
        <g id="Artboard4" transform="matrix(0.984149,0,0,1.00721,101.974,1.43039)">
            <rect x="6483.8" y="0" width="355.637" height="347.495" style="fill:none;"/>
            <g transform="matrix(0.0676384,0,0,0.062165,6090.06,190.419)">
                <ellipse cx="6635.29" cy="171.513" rx="112.67" ry="119.783" style="fill:white;"/>
            </g>
            <g transform="matrix(0.0676384,0,0,0.062165,6337.58,144.664)">
                <ellipse cx="6635.29" cy="171.513" rx="112.67" ry="119.783" style="fill:white;"/>
            </g>
            <g transform="matrix(1.01611,0,0,0.992841,-93.0716,-1.71793)">
                <g transform="matrix(0.578434,0.815729,-0.815729,0.578434,2930.14,-5220.99)">
                    <g transform="matrix(64,0,0,64,6535.06,234.065)">
                        <path d="M0.01,-0.088C0.013,-0.079 0.018,-0.069 0.025,-0.057C0.032,-0.045 0.039,-0.037 0.046,-0.034C0.051,-0.032 0.057,-0.031 0.062,-0.031C0.069,-0.031 0.074,-0.034 0.079,-0.041C0.084,-0.047 0.086,-0.059 0.087,-0.076L0.087,-0.649L0.137,-0.699C0.143,-0.705 0.148,-0.71 0.15,-0.713L0.15,-0.42C0.171,-0.445 0.197,-0.464 0.227,-0.479C0.256,-0.493 0.288,-0.5 0.322,-0.5C0.355,-0.5 0.385,-0.494 0.414,-0.481C0.443,-0.468 0.468,-0.45 0.49,-0.427C0.511,-0.404 0.528,-0.378 0.541,-0.348C0.553,-0.317 0.559,-0.285 0.559,-0.25C0.559,-0.215 0.553,-0.183 0.541,-0.153C0.528,-0.122 0.511,-0.096 0.49,-0.073C0.468,-0.05 0.443,-0.033 0.414,-0.02C0.385,-0.007 0.355,-0 0.322,-0C0.288,-0 0.256,-0.007 0.227,-0.022C0.197,-0.036 0.171,-0.055 0.15,-0.08L0.15,-0.071C0.15,-0.058 0.148,-0.046 0.144,-0.036C0.141,-0.027 0.136,-0.018 0.129,-0.011C0.122,-0.004 0.111,-0 0.096,-0C0.081,-0 0.069,-0.003 0.06,-0.009C0.051,-0.015 0.043,-0.023 0.037,-0.032C0.03,-0.041 0.025,-0.05 0.021,-0.061C0.017,-0.071 0.013,-0.08 0.01,-0.088ZM0.15,-0.085L0.159,-0.076C0.172,-0.063 0.187,-0.053 0.204,-0.048C0.221,-0.042 0.239,-0.039 0.258,-0.039C0.292,-0.039 0.325,-0.047 0.358,-0.064C0.39,-0.08 0.419,-0.101 0.445,-0.127C0.47,-0.153 0.491,-0.183 0.507,-0.216C0.522,-0.249 0.53,-0.282 0.53,-0.315C0.53,-0.336 0.527,-0.356 0.52,-0.375C0.513,-0.393 0.502,-0.409 0.488,-0.423C0.475,-0.435 0.46,-0.444 0.443,-0.45C0.426,-0.456 0.407,-0.459 0.388,-0.459C0.356,-0.459 0.324,-0.451 0.291,-0.436C0.258,-0.42 0.226,-0.397 0.197,-0.367C0.182,-0.351 0.17,-0.333 0.162,-0.312C0.154,-0.291 0.15,-0.27 0.15,-0.248L0.15,-0.085Z" style="fill:white;fill-rule:nonzero;"/>
                    </g>
                </g>
                <g transform="matrix(0.775,0.631961,-0.631961,0.775,1629.66,-4069.16)">
                    <g transform="matrix(64,0,0,64,6556.51,263.698)">
                        <path d="M0.01,-0.25C0.01,-0.285 0.016,-0.317 0.029,-0.348C0.041,-0.378 0.058,-0.404 0.08,-0.427C0.101,-0.45 0.126,-0.468 0.155,-0.481C0.184,-0.494 0.214,-0.5 0.247,-0.5C0.281,-0.5 0.313,-0.492 0.343,-0.476C0.373,-0.459 0.4,-0.439 0.424,-0.415C0.427,-0.412 0.428,-0.409 0.428,-0.405C0.428,-0.4 0.427,-0.396 0.424,-0.393C0.42,-0.389 0.416,-0.387 0.411,-0.387L0.141,-0.387C0.138,-0.384 0.134,-0.381 0.131,-0.378C0.128,-0.375 0.124,-0.371 0.12,-0.368C0.093,-0.34 0.073,-0.31 0.06,-0.278C0.046,-0.245 0.039,-0.214 0.039,-0.184C0.039,-0.137 0.054,-0.1 0.083,-0.075C0.112,-0.049 0.149,-0.036 0.195,-0.036C0.231,-0.036 0.263,-0.043 0.292,-0.056C0.321,-0.068 0.347,-0.086 0.37,-0.108C0.393,-0.129 0.414,-0.154 0.433,-0.181C0.451,-0.208 0.467,-0.236 0.482,-0.265L0.482,-0.25C0.482,-0.215 0.476,-0.183 0.464,-0.153C0.451,-0.122 0.434,-0.096 0.413,-0.073C0.392,-0.05 0.367,-0.033 0.338,-0.02C0.309,-0.007 0.279,-0 0.247,-0C0.214,-0 0.184,-0.007 0.155,-0.02C0.126,-0.033 0.101,-0.05 0.08,-0.073C0.058,-0.096 0.041,-0.122 0.029,-0.153C0.016,-0.183 0.01,-0.215 0.01,-0.25ZM0.147,-0.393L0.402,-0.393C0.408,-0.393 0.412,-0.396 0.415,-0.402C0.418,-0.407 0.417,-0.412 0.412,-0.417C0.397,-0.436 0.38,-0.449 0.363,-0.456C0.345,-0.463 0.327,-0.467 0.31,-0.467C0.289,-0.467 0.268,-0.463 0.249,-0.456C0.23,-0.448 0.212,-0.439 0.197,-0.43C0.179,-0.419 0.162,-0.407 0.147,-0.393Z" style="fill:white;fill-rule:nonzero;"/>
                    </g>
                </g>
                <g transform="matrix(0.898773,0.438413,-0.438413,0.898773,782.509,-2839.89)">
                    <g transform="matrix(64,0,0,64,6582.87,284.238)">
                        <path d="M0.01,-0.013L0.041,-0.13C0.04,-0.126 0.04,-0.122 0.04,-0.118L0.04,-0.107C0.04,-0.082 0.045,-0.063 0.054,-0.049C0.063,-0.035 0.075,-0.025 0.089,-0.018C0.102,-0.011 0.117,-0.006 0.133,-0.005C0.149,-0.004 0.164,-0.003 0.177,-0.003C0.193,-0.004 0.207,-0.008 0.22,-0.017C0.232,-0.026 0.242,-0.037 0.251,-0.051C0.26,-0.065 0.266,-0.082 0.271,-0.101C0.276,-0.12 0.278,-0.14 0.279,-0.161L0.279,-0.179C0.278,-0.184 0.277,-0.189 0.277,-0.194C0.277,-0.199 0.277,-0.203 0.276,-0.208C0.271,-0.248 0.26,-0.281 0.242,-0.308C0.224,-0.334 0.199,-0.346 0.168,-0.345C0.151,-0.345 0.133,-0.34 0.115,-0.331C0.096,-0.321 0.079,-0.308 0.064,-0.293C0.057,-0.287 0.05,-0.281 0.046,-0.274C0.041,-0.267 0.036,-0.259 0.031,-0.252L0.022,-0.27C0.014,-0.291 0.01,-0.313 0.01,-0.335C0.01,-0.356 0.014,-0.377 0.022,-0.398C0.03,-0.418 0.042,-0.436 0.058,-0.452C0.077,-0.471 0.099,-0.483 0.125,-0.49C0.151,-0.497 0.179,-0.5 0.208,-0.5C0.231,-0.5 0.254,-0.499 0.277,-0.496C0.3,-0.493 0.321,-0.49 0.34,-0.487L0.31,-0.37C0.311,-0.374 0.311,-0.378 0.311,-0.381L0.311,-0.391C0.311,-0.416 0.306,-0.436 0.297,-0.451C0.288,-0.465 0.276,-0.476 0.262,-0.483C0.248,-0.49 0.233,-0.494 0.217,-0.496C0.201,-0.497 0.186,-0.498 0.173,-0.497C0.141,-0.495 0.117,-0.48 0.1,-0.451C0.083,-0.422 0.074,-0.386 0.073,-0.342C0.099,-0.349 0.124,-0.353 0.148,-0.353C0.185,-0.353 0.218,-0.344 0.249,-0.327C0.28,-0.309 0.303,-0.283 0.319,-0.249L0.328,-0.23C0.336,-0.209 0.34,-0.188 0.34,-0.165C0.34,-0.144 0.336,-0.123 0.329,-0.102C0.321,-0.081 0.309,-0.063 0.292,-0.048C0.273,-0.029 0.251,-0.017 0.225,-0.01C0.199,-0.003 0.171,-0 0.142,-0C0.119,-0 0.096,-0.001 0.073,-0.004C0.05,-0.007 0.029,-0.01 0.01,-0.013Z" style="fill:white;fill-rule:nonzero;"/>
                    </g>
                </g>
                <g transform="matrix(0.959078,0.283141,-0.283141,0.959078,348.199,-1839.56)">
                    <g transform="matrix(64,0,0,64,6604.94,294.489)">
                        <path d="M0.01,-0.425L0.113,-0.563L0.113,-0.5L0.227,-0.5C0.201,-0.458 0.163,-0.437 0.113,-0.437L0.113,-0.076C0.114,-0.056 0.117,-0.043 0.124,-0.037C0.131,-0.03 0.141,-0.03 0.155,-0.035C0.162,-0.038 0.168,-0.045 0.175,-0.057C0.182,-0.069 0.187,-0.079 0.191,-0.088C0.188,-0.08 0.184,-0.071 0.18,-0.061C0.176,-0.051 0.171,-0.042 0.165,-0.033C0.158,-0.024 0.15,-0.016 0.141,-0.01C0.131,-0.003 0.119,-0 0.105,-0C0.091,-0 0.08,-0.004 0.073,-0.011C0.065,-0.018 0.059,-0.027 0.056,-0.036C0.052,-0.046 0.05,-0.058 0.05,-0.071L0.05,-0.425L0.01,-0.425Z" style="fill:white;fill-rule:nonzero;"/>
                    </g>
                </g>
                <g transform="matrix(0.986519,-0.163648,0.163648,0.986519,43.2204,1111.42)">
                    <g transform="matrix(64,0,0,64,6650.14,303.038)">
                        <path d="M0.095,-0.5C0.116,-0.5 0.13,-0.493 0.139,-0.479C0.147,-0.465 0.151,-0.446 0.151,-0.423C0.173,-0.448 0.199,-0.467 0.229,-0.48C0.258,-0.493 0.291,-0.5 0.326,-0.5C0.359,-0.5 0.389,-0.493 0.418,-0.48C0.447,-0.467 0.472,-0.449 0.493,-0.426C0.514,-0.403 0.531,-0.377 0.544,-0.347C0.556,-0.316 0.562,-0.284 0.562,-0.249C0.562,-0.215 0.556,-0.183 0.544,-0.153C0.531,-0.122 0.514,-0.096 0.493,-0.073C0.472,-0.05 0.447,-0.033 0.418,-0.02C0.389,-0.007 0.359,-0 0.326,-0C0.291,-0 0.258,-0.007 0.229,-0.022C0.199,-0.037 0.173,-0.056 0.151,-0.081L0.151,0.424L0.088,0.361L0.088,-0.428C0.088,-0.445 0.085,-0.456 0.08,-0.462C0.074,-0.468 0.068,-0.471 0.061,-0.471C0.048,-0.471 0.037,-0.465 0.03,-0.454C0.023,-0.442 0.016,-0.429 0.01,-0.416C0.013,-0.423 0.017,-0.432 0.021,-0.442C0.024,-0.451 0.029,-0.46 0.036,-0.469C0.042,-0.478 0.05,-0.485 0.06,-0.491C0.069,-0.497 0.081,-0.5 0.095,-0.5ZM0.151,-0.25C0.151,-0.229 0.155,-0.209 0.163,-0.188C0.17,-0.167 0.183,-0.148 0.2,-0.132C0.231,-0.104 0.263,-0.082 0.296,-0.065C0.328,-0.048 0.36,-0.04 0.392,-0.04C0.413,-0.04 0.433,-0.044 0.45,-0.051C0.467,-0.057 0.482,-0.068 0.495,-0.081C0.508,-0.094 0.517,-0.109 0.524,-0.127C0.531,-0.144 0.534,-0.163 0.534,-0.184C0.534,-0.214 0.527,-0.246 0.514,-0.279C0.501,-0.312 0.48,-0.343 0.452,-0.371C0.422,-0.401 0.39,-0.425 0.357,-0.443C0.324,-0.46 0.291,-0.468 0.258,-0.466C0.239,-0.465 0.222,-0.461 0.205,-0.455C0.188,-0.448 0.174,-0.439 0.161,-0.428L0.151,-0.419L0.151,-0.25Z" style="fill:white;fill-rule:nonzero;"/>
                    </g>
                </g>
                <g transform="matrix(0.898773,-0.438413,0.438413,0.898773,555.72,2979.54)">
                    <g transform="matrix(64,0,0,64,6688.24,296.008)">
                        <path d="M0.01,-0L0.014,-0.005L0.041,-0.005C0.05,-0.005 0.057,-0.009 0.061,-0.017C0.064,-0.025 0.066,-0.036 0.066,-0.049L0.066,-0.462C0.065,-0.474 0.063,-0.487 0.058,-0.5L0.127,-0.447L0.127,-0.42C0.148,-0.445 0.174,-0.464 0.204,-0.479C0.233,-0.493 0.265,-0.5 0.299,-0.5C0.318,-0.5 0.337,-0.497 0.359,-0.491C0.38,-0.484 0.399,-0.476 0.417,-0.466C0.435,-0.455 0.45,-0.443 0.462,-0.43C0.473,-0.417 0.479,-0.403 0.479,-0.389C0.479,-0.379 0.477,-0.37 0.473,-0.361C0.468,-0.352 0.462,-0.348 0.454,-0.348C0.441,-0.348 0.431,-0.353 0.425,-0.362C0.418,-0.371 0.413,-0.381 0.408,-0.392C0.403,-0.404 0.4,-0.416 0.397,-0.428C0.394,-0.44 0.391,-0.448 0.39,-0.451C0.385,-0.462 0.374,-0.472 0.357,-0.482C0.34,-0.491 0.321,-0.495 0.299,-0.495C0.281,-0.495 0.262,-0.491 0.243,-0.484C0.223,-0.477 0.205,-0.464 0.189,-0.448C0.172,-0.431 0.158,-0.408 0.147,-0.381C0.136,-0.353 0.129,-0.318 0.127,-0.277L0.127,-0L0.01,-0Z" style="fill:white;fill-rule:nonzero;"/>
                    </g>
                </g>
                <g transform="matrix(0.806977,-0.590583,0.590583,0.806977,1142.45,4037)">
                    <g transform="matrix(64,0,0,64,6717.59,280.406)">
                        <path d="M0.01,-0L0.014,-0.006L0.041,-0.006C0.058,-0.006 0.066,-0.02 0.066,-0.049L0.066,-0.462C0.064,-0.474 0.061,-0.487 0.057,-0.5L0.128,-0.447L0.126,-0L0.01,-0ZM0.057,-0.554C0.057,-0.565 0.061,-0.574 0.069,-0.582C0.076,-0.589 0.086,-0.593 0.097,-0.593C0.107,-0.593 0.116,-0.589 0.124,-0.582C0.131,-0.574 0.135,-0.565 0.135,-0.554C0.135,-0.543 0.131,-0.533 0.124,-0.526C0.116,-0.519 0.107,-0.515 0.097,-0.515C0.086,-0.515 0.076,-0.519 0.069,-0.526C0.061,-0.533 0.057,-0.543 0.057,-0.554Z" style="fill:white;fill-rule:nonzero;"/>
                    </g>
                </g>
                <g transform="matrix(0.672072,-0.740486,0.740486,0.672072,2019.46,5085.47)">
                    <g transform="matrix(64,0,0,64,6729.62,272.348)">
                        <path d="M0.01,-0.264C0.01,-0.296 0.016,-0.326 0.027,-0.355C0.038,-0.383 0.055,-0.409 0.078,-0.432C0.105,-0.459 0.137,-0.477 0.175,-0.486C0.212,-0.495 0.252,-0.5 0.294,-0.5C0.327,-0.5 0.359,-0.498 0.391,-0.495C0.423,-0.491 0.453,-0.487 0.482,-0.482L0.438,-0.316C0.439,-0.322 0.439,-0.328 0.44,-0.333C0.44,-0.338 0.44,-0.342 0.44,-0.347C0.44,-0.382 0.433,-0.41 0.42,-0.43C0.407,-0.449 0.39,-0.464 0.371,-0.474C0.351,-0.484 0.33,-0.49 0.307,-0.493C0.284,-0.495 0.262,-0.496 0.243,-0.495C0.219,-0.494 0.197,-0.488 0.178,-0.475C0.158,-0.462 0.141,-0.445 0.127,-0.424C0.112,-0.402 0.101,-0.377 0.094,-0.348C0.086,-0.319 0.082,-0.287 0.082,-0.254C0.082,-0.219 0.086,-0.187 0.095,-0.157C0.104,-0.127 0.116,-0.101 0.131,-0.079C0.146,-0.056 0.163,-0.039 0.184,-0.026C0.205,-0.013 0.227,-0.007 0.252,-0.007C0.271,-0.007 0.292,-0.012 0.314,-0.021C0.335,-0.03 0.356,-0.042 0.376,-0.057C0.396,-0.071 0.414,-0.089 0.431,-0.109C0.447,-0.129 0.459,-0.15 0.468,-0.172L0.46,-0.034C0.433,-0.023 0.405,-0.015 0.377,-0.009C0.348,-0.003 0.32,-0 0.291,-0C0.253,-0 0.217,-0.006 0.183,-0.018C0.148,-0.03 0.117,-0.05 0.088,-0.079C0.062,-0.105 0.043,-0.134 0.03,-0.166C0.017,-0.198 0.01,-0.231 0.01,-0.264Z" style="fill:white;fill-rule:nonzero;"/>
                    </g>
                </g>
                <g transform="matrix(0.453383,-0.891316,0.891316,0.453383,3487.52,6162.08)">
                    <g transform="matrix(64,0,0,64,6751.97,247.312)">
                        <path d="M0.01,-0.25C0.01,-0.285 0.016,-0.317 0.029,-0.348C0.041,-0.378 0.058,-0.404 0.08,-0.427C0.101,-0.45 0.126,-0.468 0.155,-0.481C0.184,-0.494 0.214,-0.5 0.247,-0.5C0.281,-0.5 0.313,-0.492 0.343,-0.476C0.373,-0.459 0.4,-0.439 0.424,-0.415C0.427,-0.412 0.428,-0.409 0.428,-0.405C0.428,-0.4 0.427,-0.396 0.424,-0.393C0.42,-0.389 0.416,-0.387 0.411,-0.387L0.141,-0.387C0.138,-0.384 0.134,-0.381 0.131,-0.378C0.128,-0.375 0.124,-0.371 0.12,-0.368C0.093,-0.34 0.073,-0.31 0.06,-0.278C0.046,-0.245 0.039,-0.214 0.039,-0.184C0.039,-0.137 0.054,-0.1 0.083,-0.075C0.112,-0.049 0.149,-0.036 0.195,-0.036C0.231,-0.036 0.263,-0.043 0.292,-0.056C0.321,-0.068 0.347,-0.086 0.37,-0.108C0.393,-0.129 0.414,-0.154 0.433,-0.181C0.451,-0.208 0.467,-0.236 0.482,-0.265L0.482,-0.25C0.482,-0.215 0.476,-0.183 0.464,-0.153C0.451,-0.122 0.434,-0.096 0.413,-0.073C0.392,-0.05 0.367,-0.033 0.338,-0.02C0.309,-0.007 0.279,-0 0.247,-0C0.214,-0 0.184,-0.007 0.155,-0.02C0.126,-0.033 0.101,-0.05 0.08,-0.073C0.058,-0.096 0.041,-0.122 0.029,-0.153C0.016,-0.183 0.01,-0.215 0.01,-0.25ZM0.147,-0.393L0.402,-0.393C0.408,-0.393 0.412,-0.396 0.415,-0.402C0.418,-0.407 0.417,-0.412 0.412,-0.417C0.397,-0.436 0.38,-0.449 0.363,-0.456C0.345,-0.463 0.327,-0.467 0.31,-0.467C0.289,-0.467 0.268,-0.463 0.249,-0.456C0.23,-0.448 0.212,-0.439 0.197,-0.43C0.179,-0.419 0.162,-0.407 0.147,-0.393Z" style="fill:white;fill-rule:nonzero;"/>
                    </g>
                </g>
                <g transform="matrix(0.235787,-0.971805,0.971805,0.235787,4978.76,6746.18)">
                    <g transform="matrix(64,0,0,64,6766.47,217.15)">
                        <path d="M0.01,-0.013L0.041,-0.13C0.04,-0.126 0.04,-0.122 0.04,-0.118L0.04,-0.107C0.04,-0.082 0.045,-0.063 0.054,-0.049C0.063,-0.035 0.075,-0.025 0.089,-0.018C0.102,-0.011 0.117,-0.006 0.133,-0.005C0.149,-0.004 0.164,-0.003 0.177,-0.003C0.193,-0.004 0.207,-0.008 0.22,-0.017C0.232,-0.026 0.242,-0.037 0.251,-0.051C0.26,-0.065 0.266,-0.082 0.271,-0.101C0.276,-0.12 0.278,-0.14 0.279,-0.161L0.279,-0.179C0.278,-0.184 0.277,-0.189 0.277,-0.194C0.277,-0.199 0.277,-0.203 0.276,-0.208C0.271,-0.248 0.26,-0.281 0.242,-0.308C0.224,-0.334 0.199,-0.346 0.168,-0.345C0.151,-0.345 0.133,-0.34 0.115,-0.331C0.096,-0.321 0.079,-0.308 0.064,-0.293C0.057,-0.287 0.05,-0.281 0.046,-0.274C0.041,-0.267 0.036,-0.259 0.031,-0.252L0.022,-0.27C0.014,-0.291 0.01,-0.313 0.01,-0.335C0.01,-0.356 0.014,-0.377 0.022,-0.398C0.03,-0.418 0.042,-0.436 0.058,-0.452C0.077,-0.471 0.099,-0.483 0.125,-0.49C0.151,-0.497 0.179,-0.5 0.208,-0.5C0.231,-0.5 0.254,-0.499 0.277,-0.496C0.3,-0.493 0.321,-0.49 0.34,-0.487L0.31,-0.37C0.311,-0.374 0.311,-0.378 0.311,-0.381L0.311,-0.391C0.311,-0.416 0.306,-0.436 0.297,-0.451C0.288,-0.465 0.276,-0.476 0.262,-0.483C0.248,-0.49 0.233,-0.494 0.217,-0.496C0.201,-0.497 0.186,-0.498 0.173,-0.497C0.141,-0.495 0.117,-0.48 0.1,-0.451C0.083,-0.422 0.074,-0.386 0.073,-0.342C0.099,-0.349 0.124,-0.353 0.148,-0.353C0.185,-0.353 0.218,-0.344 0.249,-0.327C0.28,-0.309 0.303,-0.283 0.319,-0.249L0.328,-0.23C0.336,-0.209 0.34,-0.188 0.34,-0.165C0.34,-0.144 0.336,-0.123 0.329,-0.102C0.321,-0.081 0.309,-0.063 0.292,-0.048C0.273,-0.029 0.251,-0.017 0.225,-0.01C0.199,-0.003 0.171,-0 0.142,-0C0.119,-0 0.096,-0.001 0.073,-0.004C0.05,-0.007 0.029,-0.01 0.01,-0.013Z" style="fill:white;fill-rule:nonzero;"/>
                    </g>
                </g>
            </g>
            <g transform="matrix(1.01611,0,0,0.992841,-93.0716,-1.71793)">
                <g transform="matrix(0.205287,-0.978702,0.978702,0.205287,5035.41,6520.54)">
                    <g transform="matrix(64,0,0,64,6521.54,168.8)">
                        <path d="M0.01,-0.088C0.013,-0.079 0.018,-0.069 0.025,-0.057C0.032,-0.045 0.039,-0.037 0.046,-0.034C0.051,-0.032 0.057,-0.031 0.062,-0.031C0.069,-0.031 0.074,-0.034 0.079,-0.041C0.084,-0.047 0.086,-0.059 0.087,-0.076L0.087,-0.649L0.137,-0.699C0.143,-0.705 0.148,-0.71 0.15,-0.713L0.15,-0.42C0.171,-0.445 0.197,-0.464 0.227,-0.479C0.256,-0.493 0.288,-0.5 0.322,-0.5C0.355,-0.5 0.385,-0.494 0.414,-0.481C0.443,-0.468 0.468,-0.45 0.49,-0.427C0.511,-0.404 0.528,-0.378 0.541,-0.348C0.553,-0.317 0.559,-0.285 0.559,-0.25C0.559,-0.215 0.553,-0.183 0.541,-0.153C0.528,-0.122 0.511,-0.096 0.49,-0.073C0.468,-0.05 0.443,-0.033 0.414,-0.02C0.385,-0.007 0.355,-0 0.322,-0C0.288,-0 0.256,-0.007 0.227,-0.022C0.197,-0.036 0.171,-0.055 0.15,-0.08L0.15,-0.071C0.15,-0.058 0.148,-0.046 0.144,-0.036C0.141,-0.027 0.136,-0.018 0.129,-0.011C0.122,-0.004 0.111,-0 0.096,-0C0.081,-0 0.069,-0.003 0.06,-0.009C0.051,-0.015 0.043,-0.023 0.037,-0.032C0.03,-0.041 0.025,-0.05 0.021,-0.061C0.017,-0.071 0.013,-0.08 0.01,-0.088ZM0.15,-0.085L0.159,-0.076C0.172,-0.063 0.187,-0.053 0.204,-0.048C0.221,-0.042 0.239,-0.039 0.258,-0.039C0.292,-0.039 0.325,-0.047 0.358,-0.064C0.39,-0.08 0.419,-0.101 0.445,-0.127C0.47,-0.153 0.491,-0.183 0.507,-0.216C0.522,-0.249 0.53,-0.282 0.53,-0.315C0.53,-0.336 0.527,-0.356 0.52,-0.375C0.513,-0.393 0.502,-0.409 0.488,-0.423C0.475,-0.435 0.46,-0.444 0.443,-0.45C0.426,-0.456 0.407,-0.459 0.388,-0.459C0.356,-0.459 0.324,-0.451 0.291,-0.436C0.258,-0.42 0.226,-0.397 0.197,-0.367C0.182,-0.351 0.17,-0.333 0.162,-0.312C0.154,-0.291 0.15,-0.27 0.15,-0.248L0.15,-0.085Z" style="fill:white;fill-rule:nonzero;"/>
                    </g>
                </g>
                <g transform="matrix(0.482855,-0.8757,0.8757,0.482855,3279.09,5794.93)">
                    <g transform="matrix(64,0,0,64,6530.48,130.292)">
                        <path d="M0.01,-0.25C0.01,-0.285 0.016,-0.317 0.029,-0.348C0.041,-0.378 0.058,-0.404 0.08,-0.427C0.101,-0.45 0.126,-0.468 0.155,-0.481C0.184,-0.494 0.214,-0.5 0.247,-0.5C0.281,-0.5 0.313,-0.492 0.343,-0.476C0.373,-0.459 0.4,-0.439 0.424,-0.415C0.427,-0.412 0.428,-0.409 0.428,-0.405C0.428,-0.4 0.427,-0.396 0.424,-0.393C0.42,-0.389 0.416,-0.387 0.411,-0.387L0.141,-0.387C0.138,-0.384 0.134,-0.381 0.131,-0.378C0.128,-0.375 0.124,-0.371 0.12,-0.368C0.093,-0.34 0.073,-0.31 0.06,-0.278C0.046,-0.245 0.039,-0.214 0.039,-0.184C0.039,-0.137 0.054,-0.1 0.083,-0.075C0.112,-0.049 0.149,-0.036 0.195,-0.036C0.231,-0.036 0.263,-0.043 0.292,-0.056C0.321,-0.068 0.347,-0.086 0.37,-0.108C0.393,-0.129 0.414,-0.154 0.433,-0.181C0.451,-0.208 0.467,-0.236 0.482,-0.265L0.482,-0.25C0.482,-0.215 0.476,-0.183 0.464,-0.153C0.451,-0.122 0.434,-0.096 0.413,-0.073C0.392,-0.05 0.367,-0.033 0.338,-0.02C0.309,-0.007 0.279,-0 0.247,-0C0.214,-0 0.184,-0.007 0.155,-0.02C0.126,-0.033 0.101,-0.05 0.08,-0.073C0.058,-0.096 0.041,-0.122 0.029,-0.153C0.016,-0.183 0.01,-0.215 0.01,-0.25ZM0.147,-0.393L0.402,-0.393C0.408,-0.393 0.412,-0.396 0.415,-0.402C0.418,-0.407 0.417,-0.412 0.412,-0.417C0.397,-0.436 0.38,-0.449 0.363,-0.456C0.345,-0.463 0.327,-0.467 0.31,-0.467C0.289,-0.467 0.268,-0.463 0.249,-0.456C0.23,-0.448 0.212,-0.439 0.197,-0.43C0.179,-0.419 0.162,-0.407 0.147,-0.393Z" style="fill:white;fill-rule:nonzero;"/>
                    </g>
                </g>
                <g transform="matrix(0.686823,-0.726825,0.726825,0.686823,1992.29,4803.58)">
                    <g transform="matrix(64,0,0,64,6549.08,99.054)">
                        <path d="M0.01,-0.013L0.041,-0.13C0.04,-0.126 0.04,-0.122 0.04,-0.118L0.04,-0.107C0.04,-0.082 0.045,-0.063 0.054,-0.049C0.063,-0.035 0.075,-0.025 0.089,-0.018C0.102,-0.011 0.117,-0.006 0.133,-0.005C0.149,-0.004 0.164,-0.003 0.177,-0.003C0.193,-0.004 0.207,-0.008 0.22,-0.017C0.232,-0.026 0.242,-0.037 0.251,-0.051C0.26,-0.065 0.266,-0.082 0.271,-0.101C0.276,-0.12 0.278,-0.14 0.279,-0.161L0.279,-0.179C0.278,-0.184 0.277,-0.189 0.277,-0.194C0.277,-0.199 0.277,-0.203 0.276,-0.208C0.271,-0.248 0.26,-0.281 0.242,-0.308C0.224,-0.334 0.199,-0.346 0.168,-0.345C0.151,-0.345 0.133,-0.34 0.115,-0.331C0.096,-0.321 0.079,-0.308 0.064,-0.293C0.057,-0.287 0.05,-0.281 0.046,-0.274C0.041,-0.267 0.036,-0.259 0.031,-0.252L0.022,-0.27C0.014,-0.291 0.01,-0.313 0.01,-0.335C0.01,-0.356 0.014,-0.377 0.022,-0.398C0.03,-0.418 0.042,-0.436 0.058,-0.452C0.077,-0.471 0.099,-0.483 0.125,-0.49C0.151,-0.497 0.179,-0.5 0.208,-0.5C0.231,-0.5 0.254,-0.499 0.277,-0.496C0.3,-0.493 0.321,-0.49 0.34,-0.487L0.31,-0.37C0.311,-0.374 0.311,-0.378 0.311,-0.381L0.311,-0.391C0.311,-0.416 0.306,-0.436 0.297,-0.451C0.288,-0.465 0.276,-0.476 0.262,-0.483C0.248,-0.49 0.233,-0.494 0.217,-0.496C0.201,-0.497 0.186,-0.498 0.173,-0.497C0.141,-0.495 0.117,-0.48 0.1,-0.451C0.083,-0.422 0.074,-0.386 0.073,-0.342C0.099,-0.349 0.124,-0.353 0.148,-0.353C0.185,-0.353 0.218,-0.344 0.249,-0.327C0.28,-0.309 0.303,-0.283 0.319,-0.249L0.328,-0.23C0.336,-0.209 0.34,-0.188 0.34,-0.165C0.34,-0.144 0.336,-0.123 0.329,-0.102C0.321,-0.081 0.309,-0.063 0.292,-0.048C0.273,-0.029 0.251,-0.017 0.225,-0.01C0.199,-0.003 0.171,-0 0.142,-0C0.119,-0 0.096,-0.001 0.073,-0.004C0.05,-0.007 0.029,-0.01 0.01,-0.013Z" style="fill:white;fill-rule:nonzero;"/>
                    </g>
                </g>
                <g transform="matrix(0.81006,-0.586347,0.586347,0.81006,1211.46,3881.25)">
                    <g transform="matrix(64,0,0,64,6568.3,79.8546)">
                        <path d="M0.01,-0.425L0.113,-0.563L0.113,-0.5L0.227,-0.5C0.201,-0.458 0.163,-0.437 0.113,-0.437L0.113,-0.076C0.114,-0.056 0.117,-0.043 0.124,-0.037C0.131,-0.03 0.141,-0.03 0.155,-0.035C0.162,-0.038 0.168,-0.045 0.175,-0.057C0.182,-0.069 0.187,-0.079 0.191,-0.088C0.188,-0.08 0.184,-0.071 0.18,-0.061C0.176,-0.051 0.171,-0.042 0.165,-0.033C0.158,-0.024 0.15,-0.016 0.141,-0.01C0.131,-0.003 0.119,-0 0.105,-0C0.091,-0 0.08,-0.004 0.073,-0.011C0.065,-0.018 0.059,-0.027 0.056,-0.036C0.052,-0.046 0.05,-0.058 0.05,-0.071L0.05,-0.425L0.01,-0.425Z" style="fill:white;fill-rule:nonzero;"/>
                    </g>
                </g>
                <g transform="matrix(0.99957,-0.0293244,0.0293244,0.99957,1.83453,212.199)">
                    <g transform="matrix(64,0,0,64,6613.48,52.6773)">
                        <path d="M0.01,-0.5L0.098,-0.5L0.285,-0.039L0.466,-0.445C0.474,-0.462 0.479,-0.473 0.481,-0.478C0.482,-0.483 0.483,-0.486 0.483,-0.487C0.483,-0.492 0.479,-0.495 0.472,-0.495L0.45,-0.495L0.45,-0.5L0.519,-0.5L0.706,-0.039L0.903,-0.479C0.905,-0.484 0.906,-0.488 0.905,-0.491C0.904,-0.494 0.9,-0.495 0.893,-0.495L0.871,-0.495L0.871,-0.5L0.941,-0.5L0.941,-0.495C0.934,-0.495 0.928,-0.494 0.921,-0.493C0.914,-0.491 0.908,-0.485 0.905,-0.476L0.695,-0L0.599,-0L0.599,-0.004L0.623,-0.004C0.63,-0.004 0.635,-0.005 0.637,-0.008C0.638,-0.01 0.638,-0.013 0.637,-0.016L0.469,-0.441L0.273,-0.001L0.178,-0L0.178,-0.004L0.202,-0.004C0.209,-0.004 0.213,-0.005 0.215,-0.008C0.216,-0.01 0.216,-0.013 0.215,-0.016L0.037,-0.468C0.032,-0.483 0.023,-0.493 0.01,-0.5Z" style="fill:white;fill-rule:nonzero;"/>
                    </g>
                </g>
                <g transform="matrix(0.958416,0.285373,-0.285373,0.958416,288.384,-1886.17)">
                    <g transform="matrix(64,0,0,64,6678.86,55.5819)">
                        <path d="M0.01,-0L0.014,-0.006L0.041,-0.006C0.058,-0.006 0.066,-0.02 0.066,-0.049L0.066,-0.462C0.064,-0.474 0.061,-0.487 0.057,-0.5L0.128,-0.447L0.126,-0L0.01,-0ZM0.057,-0.554C0.057,-0.565 0.061,-0.574 0.069,-0.582C0.076,-0.589 0.086,-0.593 0.097,-0.593C0.107,-0.593 0.116,-0.589 0.124,-0.582C0.131,-0.574 0.135,-0.565 0.135,-0.554C0.135,-0.543 0.131,-0.533 0.124,-0.526C0.116,-0.519 0.107,-0.515 0.097,-0.515C0.086,-0.515 0.076,-0.519 0.069,-0.526C0.061,-0.533 0.057,-0.543 0.057,-0.554Z" style="fill:white;fill-rule:nonzero;"/>
                    </g>
                </g>
                <g transform="matrix(0.864148,0.503238,-0.503238,0.864148,930.678,-3345.6)">
                    <g transform="matrix(64,0,0,64,6695.71,60.0813)">
                        <path d="M0.01,-0.088C0.012,-0.084 0.014,-0.079 0.017,-0.074C0.02,-0.069 0.023,-0.063 0.026,-0.058C0.028,-0.053 0.032,-0.048 0.036,-0.044C0.039,-0.039 0.043,-0.036 0.046,-0.035C0.05,-0.033 0.055,-0.032 0.06,-0.032C0.065,-0.031 0.069,-0.032 0.073,-0.035C0.077,-0.037 0.08,-0.041 0.083,-0.048C0.086,-0.055 0.087,-0.064 0.087,-0.076L0.087,-0.437C0.097,-0.447 0.106,-0.456 0.115,-0.464C0.122,-0.471 0.13,-0.478 0.137,-0.486C0.143,-0.493 0.148,-0.497 0.15,-0.5L0.15,-0.421C0.171,-0.446 0.197,-0.465 0.227,-0.479C0.256,-0.493 0.288,-0.5 0.322,-0.5C0.359,-0.5 0.391,-0.492 0.42,-0.476C0.448,-0.46 0.472,-0.439 0.491,-0.413C0.497,-0.405 0.502,-0.394 0.506,-0.38C0.509,-0.366 0.512,-0.35 0.515,-0.334C0.517,-0.317 0.519,-0.299 0.52,-0.281C0.521,-0.262 0.521,-0.245 0.521,-0.228L0.52,-0.003C0.52,-0.001 0.519,-0 0.518,-0L0.407,-0L0.407,-0.005L0.432,-0.005C0.44,-0.005 0.446,-0.008 0.45,-0.014C0.453,-0.019 0.456,-0.032 0.457,-0.053C0.458,-0.073 0.458,-0.102 0.458,-0.142C0.457,-0.181 0.457,-0.233 0.457,-0.299C0.457,-0.332 0.453,-0.361 0.446,-0.386C0.438,-0.411 0.428,-0.431 0.415,-0.447C0.402,-0.463 0.388,-0.475 0.372,-0.483C0.355,-0.491 0.338,-0.495 0.32,-0.495C0.3,-0.495 0.28,-0.49 0.261,-0.481C0.241,-0.471 0.223,-0.456 0.207,-0.438C0.191,-0.419 0.178,-0.395 0.168,-0.367C0.157,-0.338 0.151,-0.306 0.15,-0.269L0.15,-0.072C0.15,-0.071 0.15,-0.066 0.15,-0.059C0.149,-0.051 0.148,-0.043 0.145,-0.034C0.141,-0.025 0.136,-0.018 0.129,-0.011C0.121,-0.004 0.11,-0 0.096,-0C0.081,-0 0.069,-0.003 0.06,-0.009C0.051,-0.015 0.043,-0.023 0.037,-0.032C0.03,-0.041 0.025,-0.05 0.021,-0.061C0.017,-0.071 0.013,-0.08 0.01,-0.088Z" style="fill:white;fill-rule:nonzero;"/>
                    </g>
                </g>
                <g transform="matrix(0.678115,0.734955,-0.734955,0.678115,2211.61,-4907.12)">
                    <g transform="matrix(64,0,0,64,6728.82,80.4389)">
                        <path d="M0.01,-0.25C0.01,-0.285 0.016,-0.317 0.029,-0.348C0.041,-0.378 0.058,-0.404 0.08,-0.427C0.101,-0.45 0.126,-0.468 0.155,-0.481C0.184,-0.494 0.214,-0.5 0.247,-0.5C0.281,-0.5 0.313,-0.492 0.343,-0.476C0.373,-0.459 0.4,-0.439 0.424,-0.415C0.427,-0.412 0.428,-0.409 0.428,-0.405C0.428,-0.4 0.427,-0.396 0.424,-0.393C0.42,-0.389 0.416,-0.387 0.411,-0.387L0.141,-0.387C0.138,-0.384 0.134,-0.381 0.131,-0.378C0.128,-0.375 0.124,-0.371 0.12,-0.368C0.093,-0.34 0.073,-0.31 0.06,-0.278C0.046,-0.245 0.039,-0.214 0.039,-0.184C0.039,-0.137 0.054,-0.1 0.083,-0.075C0.112,-0.049 0.149,-0.036 0.195,-0.036C0.231,-0.036 0.263,-0.043 0.292,-0.056C0.321,-0.068 0.347,-0.086 0.37,-0.108C0.393,-0.129 0.414,-0.154 0.433,-0.181C0.451,-0.208 0.467,-0.236 0.482,-0.265L0.482,-0.25C0.482,-0.215 0.476,-0.183 0.464,-0.153C0.451,-0.122 0.434,-0.096 0.413,-0.073C0.392,-0.05 0.367,-0.033 0.338,-0.02C0.309,-0.007 0.279,-0 0.247,-0C0.214,-0 0.184,-0.007 0.155,-0.02C0.126,-0.033 0.101,-0.05 0.08,-0.073C0.058,-0.096 0.041,-0.122 0.029,-0.153C0.016,-0.183 0.01,-0.215 0.01,-0.25ZM0.147,-0.393L0.402,-0.393C0.408,-0.393 0.412,-0.396 0.415,-0.402C0.418,-0.407 0.417,-0.412 0.412,-0.417C0.397,-0.436 0.38,-0.449 0.363,-0.456C0.345,-0.463 0.327,-0.467 0.31,-0.467C0.289,-0.467 0.268,-0.463 0.249,-0.456C0.23,-0.448 0.212,-0.439 0.197,-0.43C0.179,-0.419 0.162,-0.407 0.147,-0.393Z" style="fill:white;fill-rule:nonzero;"/>
                    </g>
                </g>
                <g transform="matrix(0.472211,0.881486,-0.881486,0.472211,3643.03,-5886.72)">
                    <g transform="matrix(64,0,0,64,6752.6,107.961)">
                        <path d="M0.01,-0.013L0.041,-0.13C0.04,-0.126 0.04,-0.122 0.04,-0.118L0.04,-0.107C0.04,-0.082 0.045,-0.063 0.054,-0.049C0.063,-0.035 0.075,-0.025 0.089,-0.018C0.102,-0.011 0.117,-0.006 0.133,-0.005C0.149,-0.004 0.164,-0.003 0.177,-0.003C0.193,-0.004 0.207,-0.008 0.22,-0.017C0.232,-0.026 0.242,-0.037 0.251,-0.051C0.26,-0.065 0.266,-0.082 0.271,-0.101C0.276,-0.12 0.278,-0.14 0.279,-0.161L0.279,-0.179C0.278,-0.184 0.277,-0.189 0.277,-0.194C0.277,-0.199 0.277,-0.203 0.276,-0.208C0.271,-0.248 0.26,-0.281 0.242,-0.308C0.224,-0.334 0.199,-0.346 0.168,-0.345C0.151,-0.345 0.133,-0.34 0.115,-0.331C0.096,-0.321 0.079,-0.308 0.064,-0.293C0.057,-0.287 0.05,-0.281 0.046,-0.274C0.041,-0.267 0.036,-0.259 0.031,-0.252L0.022,-0.27C0.014,-0.291 0.01,-0.313 0.01,-0.335C0.01,-0.356 0.014,-0.377 0.022,-0.398C0.03,-0.418 0.042,-0.436 0.058,-0.452C0.077,-0.471 0.099,-0.483 0.125,-0.49C0.151,-0.497 0.179,-0.5 0.208,-0.5C0.231,-0.5 0.254,-0.499 0.277,-0.496C0.3,-0.493 0.321,-0.49 0.34,-0.487L0.31,-0.37C0.311,-0.374 0.311,-0.378 0.311,-0.381L0.311,-0.391C0.311,-0.416 0.306,-0.436 0.297,-0.451C0.288,-0.465 0.276,-0.476 0.262,-0.483C0.248,-0.49 0.233,-0.494 0.217,-0.496C0.201,-0.497 0.186,-0.498 0.173,-0.497C0.141,-0.495 0.117,-0.48 0.1,-0.451C0.083,-0.422 0.074,-0.386 0.073,-0.342C0.099,-0.349 0.124,-0.353 0.148,-0.353C0.185,-0.353 0.218,-0.344 0.249,-0.327C0.28,-0.309 0.303,-0.283 0.319,-0.249L0.328,-0.23C0.336,-0.209 0.34,-0.188 0.34,-0.165C0.34,-0.144 0.336,-0.123 0.329,-0.102C0.321,-0.081 0.309,-0.063 0.292,-0.048C0.273,-0.029 0.251,-0.017 0.225,-0.01C0.199,-0.003 0.171,-0 0.142,-0C0.119,-0 0.096,-0.001 0.073,-0.004C0.05,-0.007 0.029,-0.01 0.01,-0.013Z" style="fill:white;fill-rule:nonzero;"/>
                    </g>
                </g>
            </g>
        </g>
    </g>
</svg>
