<svg width="330" height="413" viewBox="0 0 330 413" fill="none" xmlns="http://www.w3.org/2000/svg">
<path d="M25.3543 86.86C25.7793 87.0874 26.3263 87.3237 26.9954 87.5689C27.6644 87.8141 28.1995 87.8778 28.6007 87.7599C28.8781 87.6575 29.1215 87.5158 29.3311 87.3349C29.593 87.1087 29.7138 86.7986 29.6935 86.4045C29.6507 85.9843 29.3483 85.4224 28.7863 84.7188L9.34464 62.2088C9.39819 61.4767 9.44817 60.7934 9.49458 60.1588C9.53385 59.6219 9.57133 59.1094 9.60703 58.6213C9.6463 58.0844 9.65998 57.7297 9.64807 57.5571L19.5895 69.0674C19.5906 67.3746 19.9298 65.7555 20.6072 64.2103C21.2881 62.6162 22.2963 61.2424 23.632 60.0888C24.9153 58.9804 26.3462 58.2018 27.9248 57.7529C29.4807 57.2779 31.0622 57.1237 32.6694 57.2903C34.3027 57.4343 35.8753 57.905 37.3873 58.7026C38.9028 59.4514 40.2486 60.5067 41.4248 61.8685C42.6011 63.2304 43.4606 64.7286 44.0035 66.3631C44.55 67.9488 44.7757 69.5601 44.6805 71.197C44.6115 72.8112 44.2401 74.3666 43.5663 75.863C42.87 77.3333 41.8801 78.6226 40.5968 79.731C39.2612 80.8846 37.7666 81.6953 36.113 82.1633C34.463 82.5824 32.8005 82.6693 31.1255 82.4241L31.4309 82.7777C31.8833 83.3015 32.2006 83.8277 32.3827 84.3562C32.5685 84.836 32.6417 85.3443 32.6024 85.8812C32.5893 86.3955 32.2947 86.9014 31.7185 87.3991C31.1424 87.8967 30.5692 88.186 29.9989 88.267C29.4287 88.348 28.8656 88.3313 28.3097 88.217C27.7573 88.054 27.2329 87.8439 26.7364 87.5867C26.2174 87.3034 25.7567 87.0612 25.3543 86.86ZM30.9559 82.2277L31.6148 82.2759C32.591 82.3473 33.5083 82.2181 34.3666 81.8883C35.2023 81.5323 35.9999 81.0264 36.7594 80.3704C38.095 79.2168 39.12 77.7828 39.8342 76.0685C40.552 74.3054 40.9674 72.4834 41.0805 70.6024C41.2197 68.6989 41.0363 66.8453 40.5303 65.0418C40.0279 63.1894 39.2112 61.6085 38.0802 60.299C37.3563 59.4609 36.545 58.8128 35.6462 58.3545C34.7509 57.8473 33.7908 57.5563 32.7658 57.4813C31.8349 57.4623 30.9271 57.629 30.0426 57.9814C29.1843 58.3112 28.3754 58.8041 27.6159 59.4601C26.3588 60.5458 25.3469 61.9685 24.5803 63.728C23.8173 65.4387 23.3686 67.381 23.2341 69.5548C23.1746 70.7036 23.3383 71.8197 23.7253 72.903C24.1122 73.9863 24.6789 74.9601 25.4254 75.8243L30.9559 82.2277Z" fill="white"/>
<path d="M52.3091 54.5952C51.4787 52.9988 50.9804 51.3661 50.8143 49.6971C50.663 47.9814 50.8071 46.3462 51.2465 44.7913C51.7166 43.2205 52.46 41.8001 53.4767 40.5301C54.4774 39.2293 55.7299 38.1877 57.2342 37.4052C58.7999 36.5907 60.4731 36.2078 62.2539 36.2567C64.0187 36.2748 65.7411 36.549 67.4213 37.0793C67.608 37.1382 67.7492 37.2598 67.845 37.444C67.9568 37.6589 67.9839 37.8984 67.9262 38.1624C67.8833 38.3798 67.739 38.5524 67.4934 38.6801L55.0598 45.1481C54.9862 45.3815 54.9125 45.6148 54.8389 45.8482C54.7492 46.0508 54.6523 46.2768 54.5479 46.5261C53.9906 48.4543 53.7809 50.3383 53.9188 52.178C54.0714 53.971 54.507 55.5583 55.2256 56.9398C56.3595 59.1195 57.8979 60.4646 59.8409 60.9752C61.7986 61.4391 63.8366 61.1201 65.9549 60.0182C67.6127 59.1558 68.9499 58.0895 69.9666 56.8195C70.9673 55.5188 71.7494 54.0977 72.3128 52.5564C72.8603 50.9843 73.2211 49.3533 73.3953 47.6634C73.6001 45.9575 73.6968 44.2689 73.6855 42.5974L74.0448 43.2882C74.8753 44.8846 75.3662 46.5406 75.5175 48.2563C75.6836 49.9252 75.5469 51.5372 75.1075 53.092C74.6681 54.6469 73.948 56.0747 72.9473 57.3754C71.9306 58.6454 70.6855 59.6637 69.2119 60.4303C67.7076 61.2128 66.1437 61.6558 64.5201 61.7592C62.8806 61.8319 61.2828 61.6099 59.7267 61.0931C58.2013 60.5604 56.7876 59.755 55.4857 58.6769C54.1984 57.5521 53.1396 56.1916 52.3091 54.5952ZM55.1924 44.7281L66.9352 38.6194C67.2115 38.4757 67.3472 38.2491 67.3422 37.9396C67.3213 37.5994 67.1475 37.3778 66.8208 37.2747C65.6675 36.7824 64.5886 36.583 63.584 36.6765C62.6101 36.754 61.7241 37.0004 60.9259 37.4156C59.9435 37.9267 59.1029 38.598 58.4043 39.4295C57.6896 40.2303 57.0911 41.0293 56.6085 41.8264C56.0352 42.7488 55.5631 43.7161 55.1924 44.7281Z" fill="white"/>
<path d="M94.205 48.9311L94.2806 42.6487C94.2978 42.8585 94.3318 43.064 94.3825 43.2654C94.4333 43.4667 94.4798 43.6513 94.5221 43.819C94.8351 45.0606 95.3154 45.9745 95.9628 46.5607C96.6102 47.1469 97.316 47.54 98.0802 47.7399C98.8695 47.8978 99.6752 47.9088 100.497 47.7729C101.32 47.637 102.066 47.4844 102.738 47.3152C103.534 47.0786 104.18 46.6661 104.674 46.0776C105.201 45.4806 105.595 44.7748 105.853 43.9602C106.112 43.1455 106.24 42.2388 106.238 41.24C106.228 40.2077 106.104 39.1504 105.867 38.0682L105.638 37.1622C105.512 36.9442 105.419 36.7178 105.36 36.4829C105.292 36.2144 105.212 35.967 105.119 35.7406C104.377 33.7864 103.387 32.2692 102.152 31.189C100.907 30.0752 99.5048 29.7506 97.9446 30.2154C97.0722 30.4353 96.2296 30.9154 95.417 31.6556C94.6294 32.3538 93.947 33.1861 93.3698 34.1524C93.0768 34.5475 92.8427 34.9634 92.6673 35.4002C92.517 35.795 92.3709 36.2066 92.2291 36.6349L91.5477 35.8431C90.8743 34.8708 90.398 33.831 90.1188 32.7237C89.8481 31.6499 89.7872 30.5589 89.9361 29.4507C90.0765 28.309 90.4478 27.2339 91.0501 26.2256C91.7528 25.0491 92.7162 24.1282 93.9403 23.4627C95.1643 22.7972 96.5146 22.2783 97.9911 21.9061C99.1655 21.61 100.34 21.3852 101.515 21.2318C102.69 21.0784 103.785 20.9629 104.8 20.8854L104.775 27.1551C104.758 26.9453 104.728 26.7565 104.685 26.5887C104.643 26.4209 104.601 26.2532 104.559 26.0854C104.237 24.8103 103.753 23.8796 103.105 23.2934C102.449 22.6736 101.727 22.2847 100.937 22.1268C100.14 21.9354 99.3298 21.9076 98.5075 22.0435C97.6768 22.1459 96.9301 22.2985 96.2674 22.5012C94.6822 23.008 93.652 24.0885 93.1768 25.7429C92.7017 27.3973 92.7098 29.3403 93.201 31.5719C94.4166 30.8729 95.6284 30.3711 96.8364 30.0665C98.682 29.6012 100.491 29.627 102.263 30.1438C104.026 30.6271 105.526 31.6229 106.763 33.1312L107.457 33.9733C108.122 34.9121 108.599 35.9519 108.886 37.0927C109.157 38.1665 109.222 39.2743 109.082 40.416C108.975 41.5493 108.599 42.6076 107.955 43.5909C107.252 44.7673 106.289 45.6883 105.065 46.3538C103.841 47.0193 102.49 47.5381 101.014 47.9104C99.8395 48.2064 98.6649 48.4312 97.4902 48.5846C96.3154 48.738 95.2204 48.8535 94.205 48.9311Z" fill="white"/>
<path d="M133.3 20.4928L138.544 13.2539L138.591 16.5238L144.508 16.4394C143.189 18.6386 141.233 19.7567 138.638 19.7937L138.905 38.5308C138.954 39.5683 139.154 40.2577 139.505 40.5988C139.856 40.9052 140.392 40.9149 141.115 40.6277C141.459 40.4844 141.8 40.0988 142.137 39.471C142.474 38.8433 142.743 38.303 142.944 37.8502C142.777 38.2679 142.593 38.7377 142.393 39.2597C142.193 39.7817 141.923 40.2874 141.584 40.7768C141.279 41.231 140.87 41.6349 140.356 41.9883C139.876 42.3066 139.272 42.471 138.546 42.4813C137.819 42.4917 137.245 42.3095 136.825 41.9348C136.439 41.5596 136.156 41.131 135.976 40.6491C135.761 40.133 135.648 39.5289 135.638 38.8369L135.376 20.4632L133.3 20.4928Z" fill="white"/>
<path d="M199.071 23.7178L203.182 25.7095L201.484 51.4772L219.128 36.6076C219.894 35.979 220.361 35.5707 220.529 35.3829C220.728 35.2102 220.843 35.0927 220.873 35.0304C220.993 34.7812 220.883 34.5737 220.54 34.4077L219.512 33.9098L219.625 33.6762L222.849 35.2379L221.151 61.0056L240.312 44.9099C240.526 44.706 240.632 44.5267 240.63 44.3719C240.659 44.2323 240.518 44.087 240.207 43.9361L239.179 43.4382L239.292 43.2046L242.562 44.7889L242.449 45.0225C242.138 44.8716 241.788 44.7599 241.4 44.6873C241.059 44.5987 240.704 44.7347 240.337 45.0953L219.754 62.5785L215.269 60.4058L215.36 60.2189L216.481 60.7621C216.824 60.9281 217.049 60.9794 217.156 60.9162C217.31 60.8369 217.394 60.7043 217.407 60.5184L219.178 36.8624L200.063 52.9808L195.603 50.8774L195.693 50.6905L196.814 51.2337C197.126 51.3846 197.335 51.4284 197.443 51.3651C197.597 51.2858 197.68 51.1532 197.693 50.9673L199.608 25.8237C199.691 25.0179 199.512 24.3159 199.071 23.7178Z" fill="white"/>
<path d="M237.886 74.9183L238.244 74.808L239.33 75.6935C240.001 76.2401 240.806 75.9367 241.746 74.7833L255.291 58.1659C255.604 57.6175 255.899 57.0094 256.175 56.3418L257.293 60.8028L242.553 78.7226L237.886 74.9183ZM257.946 54.169C258.296 53.7398 258.738 53.498 259.274 53.4434C259.858 53.3839 260.378 53.54 260.834 53.9116C261.237 54.2396 261.454 54.6848 261.487 55.2472C261.568 55.8046 261.434 56.2979 261.084 56.7271C260.713 57.1831 260.246 57.4274 259.683 57.4601C259.148 57.5147 258.679 57.378 258.276 57.05C257.82 56.6784 257.552 56.2138 257.47 55.6564C257.416 55.1208 257.574 54.625 257.946 54.169Z" fill="white"/>
<path d="M291.987 118.136C293.629 117.4 295.288 116.998 296.964 116.929C298.685 116.878 300.309 117.117 301.836 117.646C303.377 118.206 304.751 119.031 305.96 120.12C307.201 121.194 308.168 122.505 308.861 124.053C309.583 125.663 309.868 127.356 309.716 129.131C309.595 130.891 309.221 132.595 308.594 134.241C308.525 134.424 308.395 134.558 308.206 134.643C307.985 134.742 307.744 134.755 307.484 134.683C307.269 134.627 307.105 134.473 306.992 134.22L301.258 121.432C301.029 121.345 300.801 121.258 300.572 121.17C300.375 121.069 300.155 120.959 299.912 120.841C298.019 120.172 296.151 119.853 294.306 119.884C292.507 119.932 290.898 120.275 289.477 120.912C287.235 121.917 285.802 123.375 285.18 125.284C284.603 127.212 284.803 129.265 285.78 131.444C286.544 133.149 287.531 134.546 288.74 135.635C289.98 136.709 291.353 137.573 292.859 138.225C294.397 138.863 296.004 139.318 297.681 139.59C299.372 139.894 301.052 140.088 302.721 140.174L302.011 140.493C300.369 141.229 298.687 141.623 296.966 141.674C295.29 141.743 293.689 141.513 292.162 140.984C290.635 140.455 289.252 139.653 288.011 138.578C286.803 137.489 285.858 136.187 285.179 134.671C284.485 133.124 284.134 131.537 284.125 129.91C284.148 128.269 284.462 126.687 285.069 125.164C285.689 123.672 286.575 122.307 287.727 121.07C288.925 119.851 290.345 118.873 291.987 118.136ZM301.67 121.589L307.085 133.667C307.213 133.951 307.431 134.099 307.74 134.113C308.081 134.111 308.312 133.951 308.434 133.631C308.993 132.508 309.255 131.442 309.22 130.434C309.199 129.457 309.004 128.558 308.636 127.737C308.183 126.727 307.562 125.849 306.772 125.103C306.014 124.343 305.252 123.699 304.484 123.171C303.596 122.545 302.658 122.017 301.67 121.589Z" fill="white"/>
<path d="M75.1438 372.959C75.7376 371.261 76.5854 369.779 77.6872 368.515C78.8331 367.229 80.1229 366.213 81.5565 365.468C83.0227 364.734 84.5667 364.302 86.1884 364.173C87.8214 364.01 89.4383 364.209 91.039 364.768C92.7051 365.351 94.1304 366.307 95.315 367.637C96.511 368.935 97.4915 370.378 98.2565 371.965C98.3415 372.141 98.3497 372.327 98.2812 372.523C98.2013 372.752 98.0454 372.936 97.8135 373.075C97.6258 373.192 97.4012 373.206 97.1399 373.114L83.9095 368.49C83.6891 368.596 83.4686 368.702 83.2482 368.809C83.0392 368.882 82.8081 368.966 82.555 369.061C80.7688 369.977 79.2529 371.115 78.0073 372.476C76.8059 373.815 75.9483 375.22 75.4345 376.69C74.6238 379.01 74.6981 381.052 75.6575 382.817C76.661 384.561 78.2898 385.826 80.5438 386.614C82.3079 387.231 84.0007 387.474 85.6224 387.345C87.2555 387.182 88.8264 386.778 90.3351 386.132C91.8553 385.454 93.2905 384.599 94.6407 383.568C96.0235 382.549 97.3198 381.462 98.5294 380.308L98.2725 381.044C97.6788 382.742 96.8089 384.234 95.663 385.52C94.5612 386.785 93.2935 387.79 91.8599 388.535C90.4263 389.28 88.893 389.734 87.2599 389.896C85.6382 390.026 84.0434 389.817 82.4753 389.269C80.8746 388.709 79.4804 387.874 78.2926 386.762C77.1163 385.618 76.1832 384.302 75.4934 382.814C74.8362 381.338 74.4542 379.757 74.3474 378.07C74.2846 376.362 74.5501 374.658 75.1438 372.959ZM84.3063 368.299L96.8016 372.666C97.0956 372.769 97.3536 372.712 97.5757 372.497C97.8091 372.248 97.8514 371.97 97.7027 371.661C97.2711 370.484 96.677 369.562 95.9206 368.894C95.1968 368.238 94.4103 367.761 93.5609 367.464C92.5156 367.099 91.4507 366.947 90.3663 367.008C89.2933 367.036 88.3013 367.147 87.39 367.342C86.3253 367.556 85.2974 367.875 84.3063 368.299Z" fill="white"/>
<path d="M106.523 396.093L108.93 390.29C108.868 390.491 108.823 390.694 108.795 390.9C108.767 391.106 108.742 391.294 108.719 391.466C108.547 392.735 108.653 393.762 109.036 394.547C109.419 395.332 109.929 395.959 110.564 396.429C111.238 396.869 111.981 397.179 112.795 397.358C113.609 397.538 114.359 397.674 115.045 397.766C115.873 397.843 116.625 397.7 117.303 397.337C118.014 396.979 118.642 396.47 119.185 395.81C119.728 395.15 120.184 394.356 120.553 393.428C120.928 392.466 121.206 391.439 121.388 390.346L121.513 389.42C121.477 389.171 121.475 388.926 121.507 388.686C121.544 388.411 121.562 388.152 121.56 387.907C121.597 385.817 121.243 384.041 120.497 382.578C119.756 381.082 118.575 380.259 116.954 380.11C116.062 379.99 115.102 380.123 114.072 380.507C113.081 380.863 112.139 381.382 111.243 382.064C110.825 382.322 110.452 382.621 110.127 382.961C109.841 383.272 109.552 383.599 109.261 383.944L108.923 382.956C108.66 381.803 108.604 380.661 108.757 379.529C108.905 378.431 109.254 377.396 109.804 376.423C110.359 375.415 111.104 374.555 112.038 373.843C113.127 373.012 114.364 372.515 115.748 372.353C117.132 372.19 118.578 372.211 120.087 372.414C121.287 372.576 122.461 372.804 123.609 373.099C124.756 373.393 125.816 373.693 126.787 373.999L124.432 379.809C124.494 379.608 124.537 379.422 124.56 379.25C124.583 379.079 124.606 378.907 124.63 378.736C124.805 377.433 124.702 376.389 124.319 375.604C123.94 374.784 123.414 374.155 122.74 373.715C122.071 373.24 121.329 372.913 120.515 372.734C119.706 372.52 118.956 372.384 118.266 372.326C116.606 372.207 115.247 372.827 114.191 374.186C113.135 375.545 112.42 377.352 112.046 379.606C113.435 379.409 114.746 379.394 115.981 379.56C117.867 379.814 119.536 380.511 120.989 381.65C122.447 382.754 123.469 384.236 124.056 386.096L124.387 387.136C124.656 388.255 124.711 389.397 124.554 390.563C124.406 391.661 124.054 392.713 123.499 393.721C122.979 394.733 122.237 395.576 121.273 396.249C120.183 397.08 118.946 397.577 117.563 397.739C116.179 397.902 114.733 397.881 113.224 397.678C112.023 397.516 110.849 397.288 109.702 396.993C108.554 396.699 107.495 396.399 106.523 396.093Z" fill="white"/>
<circle cx="313.396" cy="194.497" r="10.9968" fill="white"/>
<path d="M262.536 90.9052C262.434 91.114 262.316 91.3575 262.18 91.6358C262.045 91.9141 261.909 92.1924 261.774 92.4707C261.659 92.7765 261.559 93.0718 261.472 93.3565C261.433 93.6476 261.439 93.8829 261.49 94.0623C261.534 94.2902 261.616 94.5108 261.736 94.7241C261.904 94.9438 262.093 95.1044 262.301 95.206C262.538 95.2866 262.835 95.2764 263.194 95.1757C263.553 95.075 263.979 94.8351 264.474 94.456L279.344 83.0527C280.071 83.1487 280.737 83.2489 281.34 83.3532C281.874 83.4236 282.383 83.4908 282.869 83.5548C283.402 83.6253 283.756 83.6595 283.929 83.6577L280.675 86.1531C282.364 86.2527 283.961 86.6855 285.464 87.4515C286.989 88.245 288.288 89.342 289.362 90.7425C290.52 92.2528 291.212 93.8374 291.437 95.4961C291.684 97.1823 291.577 98.8343 291.117 100.452C290.977 100.952 290.671 101.491 290.199 102.071C289.749 102.678 289.199 103.296 288.548 103.926C287.946 104.563 287.27 105.189 286.523 105.806C285.823 106.43 285.13 107.005 284.444 107.531L275.144 114.598C275.062 114.661 275 114.665 274.958 114.61L271.451 110.038L271.657 109.88L272.447 110.91C272.7 111.239 272.989 111.388 273.313 111.357C273.687 111.332 274.296 111.018 275.141 110.414C276.034 109.816 277.267 108.892 278.839 107.643C280.459 106.401 282.628 104.737 285.347 102.652C286.72 101.6 287.788 100.519 288.551 99.41C289.336 98.3288 289.857 97.2746 290.116 96.2474C290.375 95.2203 290.406 94.2371 290.209 93.2979C290.033 92.3861 289.661 91.5595 289.093 90.8181C288.461 89.9942 287.623 89.3284 286.579 88.8204C285.584 88.3189 284.436 88.044 283.134 87.9956C281.86 87.9262 280.464 88.1246 278.946 88.5907C277.477 89.0633 275.966 89.8512 274.414 90.9545L266.299 97.1774C266.244 97.2195 266.041 97.3532 265.691 97.5784C265.389 97.8101 265.006 97.9941 264.544 98.1306C264.103 98.2945 263.605 98.3275 263.05 98.2296C262.544 98.1382 262.07 97.8041 261.627 97.2274C261.164 96.6233 260.909 96.0342 260.861 95.4602C260.813 94.8863 260.863 94.3251 261.009 93.7767C261.204 93.2348 261.444 92.7235 261.73 92.2428C262.043 91.7411 262.311 91.2953 262.536 90.9052Z" fill="white"/>
<path d="M143.169 380.458L148.413 373.219L148.459 376.489L154.376 376.405C153.058 378.604 151.101 379.722 148.506 379.759L148.773 398.496C148.822 399.534 149.023 400.223 149.374 400.564C149.724 400.871 150.261 400.88 150.983 400.593C151.327 400.45 151.668 400.064 152.005 399.436C152.342 398.809 152.611 398.268 152.813 397.816C152.646 398.233 152.462 398.703 152.262 399.225C152.061 399.747 151.792 400.253 151.453 400.742C151.148 401.196 150.738 401.6 150.224 401.954C149.744 402.272 149.141 402.436 148.414 402.447C147.687 402.457 147.114 402.275 146.693 401.9C146.307 401.525 146.024 401.096 145.844 400.614C145.629 400.098 145.517 399.494 145.507 398.802L145.245 380.429L143.169 380.458Z" fill="white"/>
<path d="M192.445 363.432C193.451 363.058 194.275 363.14 194.917 363.676C195.592 364.201 196.14 365.031 196.562 366.167C197.187 364.569 198.092 363.18 199.279 362.001C200.498 360.81 201.967 359.896 203.686 359.257C205.276 358.667 206.888 358.437 208.524 358.568C210.16 358.699 211.702 359.123 213.15 359.84C214.597 360.558 215.89 361.554 217.028 362.829C218.187 364.06 219.08 365.519 219.706 367.206C220.32 368.861 220.597 370.549 220.534 372.27C220.493 373.946 220.157 375.529 219.529 377.018C218.9 378.506 218.009 379.834 216.855 381.001C215.689 382.135 214.311 382.997 212.722 383.588C211.002 384.226 209.28 384.46 207.555 384.288C205.863 384.105 204.259 383.611 202.742 382.809L211.868 407.383L207.664 405.455L193.406 367.062C193.105 366.251 192.754 365.753 192.353 365.57C191.985 365.374 191.639 365.337 191.315 365.457C190.666 365.698 190.272 366.177 190.132 366.893C189.98 367.577 189.878 368.298 189.827 369.055C189.857 368.638 189.868 368.172 189.862 367.658C189.876 367.099 189.95 366.555 190.086 366.024C190.254 365.482 190.51 364.981 190.856 364.52C191.234 364.048 191.764 363.685 192.445 363.432ZM199.688 374.585C200.062 375.591 200.62 376.546 201.362 377.452C202.125 378.313 203.072 378.976 204.205 379.441C206.236 380.238 208.18 380.752 210.039 380.985C211.929 381.206 213.653 381.027 215.211 380.449C216.249 380.063 217.129 379.551 217.852 378.914C218.563 378.244 219.112 377.486 219.5 376.641C219.875 375.763 220.068 374.842 220.08 373.878C220.079 372.882 219.892 371.881 219.518 370.875C218.976 369.415 218.079 367.995 216.828 366.614C215.577 365.233 214.017 364.114 212.149 363.257C210.147 362.34 208.178 361.76 206.243 361.519C204.295 361.246 202.545 361.453 200.991 362.14C200.107 362.543 199.32 363.057 198.629 363.682C197.927 364.275 197.37 364.962 196.958 365.743L196.634 366.361L199.688 374.585Z" fill="white"/>
<path d="M238.062 371.394L238.1 371.063L239.288 370.32C239.699 370.063 239.867 369.712 239.794 369.269C239.749 368.806 239.544 368.282 239.176 367.695L227.803 349.523C227.443 349.013 226.977 348.53 226.404 348.071L230.9 348.503L231.643 349.691C231.903 348.018 232.485 346.47 233.39 345.046C234.306 343.575 235.512 342.371 237.008 341.434C237.829 340.92 238.787 340.525 239.88 340.249C240.983 339.926 242.078 339.751 243.164 339.725C244.232 339.669 245.198 339.778 246.064 340.053C246.959 340.309 247.6 340.745 247.985 341.361C248.261 341.801 248.415 342.276 248.448 342.786C248.511 343.278 248.366 343.633 248.014 343.854C247.428 344.221 246.868 344.306 246.336 344.108C245.815 343.862 245.296 343.555 244.779 343.185C244.243 342.785 243.736 342.367 243.259 341.931C242.811 341.476 242.512 341.194 242.362 341.084C241.815 340.732 241.055 340.595 240.083 340.673C239.093 340.721 238.114 341.048 237.146 341.654C236.354 342.15 235.619 342.835 234.941 343.708C234.292 344.563 233.84 345.602 233.584 346.823C233.339 347.997 233.352 349.356 233.625 350.9C233.879 352.415 234.531 354.11 235.581 355.983L243.21 368.171L238.062 371.394Z" fill="white"/>
<path d="M266.383 351.722L266.365 351.348L267.491 350.514C268.186 349.999 268.091 349.144 267.206 347.948L254.449 330.718C253.995 330.279 253.479 329.844 252.9 329.411L257.499 329.429L271.222 348.139L266.383 351.722ZM251.232 327.158C250.902 326.713 250.777 326.224 250.857 325.692C250.944 325.111 251.223 324.646 251.696 324.296C252.113 323.987 252.598 323.886 253.151 323.993C253.712 324.052 254.157 324.304 254.486 324.749C254.836 325.222 254.957 325.735 254.85 326.288C254.771 326.82 254.522 327.241 254.105 327.55C253.632 327.9 253.116 328.045 252.556 327.986C252.023 327.907 251.582 327.631 251.232 327.158Z" fill="white"/>
<path d="M271.571 322.369C270.372 321.218 269.441 319.94 268.776 318.534C268.11 317.079 267.759 315.495 267.724 313.783C267.684 311.826 268.16 309.98 269.153 308.247C270.169 306.488 271.433 304.823 272.942 303.25C274.117 302.027 275.354 300.888 276.654 299.833C277.929 298.755 279.169 297.763 280.374 296.857L285.009 304.472C284.808 304.231 284.621 304.027 284.446 303.859C284.27 303.643 284.095 303.45 283.92 303.283C282.597 302.013 281.334 301.28 280.13 301.084C278.902 300.864 277.741 300.949 276.648 301.339C275.578 301.703 274.587 302.286 273.673 303.088C272.759 303.841 271.966 304.592 271.296 305.34C270.458 306.262 269.917 307.326 269.673 308.53C269.452 309.709 269.49 310.969 269.787 312.309C270.082 313.6 270.635 314.923 271.446 316.277C272.256 317.582 273.285 318.834 274.533 320.032C275.832 321.278 277.198 322.278 278.633 323.032C280.068 323.786 281.474 324.296 282.85 324.561C284.225 324.778 285.521 324.727 286.738 324.408C287.955 324.09 289.007 323.469 289.894 322.545C290.589 321.821 291.158 320.904 291.6 319.793C292.041 318.634 292.347 317.416 292.516 316.14C292.661 314.84 292.647 313.531 292.473 312.213C292.323 310.87 291.992 309.64 291.48 308.525L296.36 313.785C295.777 315.192 295.082 316.54 294.276 317.829C293.495 319.094 292.588 320.263 291.558 321.336C290.192 322.759 288.661 323.904 286.966 324.771C285.294 325.613 283.406 326.055 281.302 326.098C279.394 326.137 277.601 325.831 275.924 325.18C274.27 324.504 272.819 323.567 271.571 322.369Z" fill="white"/>
<path d="M292.778 289.149C291.395 287.998 290.303 286.686 289.504 285.211C288.7 283.688 288.2 282.124 288.003 280.521C287.829 278.89 287.964 277.293 288.41 275.728C288.829 274.142 289.581 272.696 290.665 271.393C291.793 270.035 293.187 269.035 294.848 268.39C296.483 267.724 298.177 267.31 299.931 267.148C300.126 267.13 300.303 267.188 300.463 267.321C300.649 267.475 300.767 267.686 300.816 267.952C300.861 268.169 300.794 268.384 300.617 268.596L291.657 279.373C291.68 279.617 291.702 279.861 291.725 280.104C291.72 280.326 291.718 280.572 291.719 280.842C291.951 282.836 292.487 284.654 293.327 286.297C294.162 287.891 295.178 289.186 296.375 290.181C298.264 291.752 300.204 292.397 302.193 292.116C304.177 291.785 305.933 290.702 307.459 288.866C308.654 287.429 309.474 285.929 309.92 284.364C310.339 282.777 310.51 281.164 310.433 279.525C310.329 277.864 310.03 276.22 309.537 274.594C309.065 272.942 308.501 271.348 307.843 269.811L308.442 270.309C309.826 271.459 310.919 272.796 311.723 274.319C312.522 275.794 313.02 277.333 313.217 278.937C313.414 280.541 313.303 282.136 312.884 283.723C312.438 285.287 311.684 286.708 310.622 287.985C309.538 289.289 308.268 290.303 306.811 291.027C305.327 291.729 303.768 292.143 302.133 292.268C300.52 292.368 298.905 292.172 297.287 291.682C295.665 291.144 294.162 290.299 292.778 289.149ZM291.617 278.935L300.079 268.757C300.278 268.517 300.316 268.256 300.191 267.972C300.04 267.667 299.794 267.53 299.453 267.561C298.199 267.554 297.127 267.787 296.237 268.262C295.369 268.711 294.648 269.281 294.073 269.973C293.365 270.825 292.849 271.769 292.527 272.806C292.178 273.821 291.936 274.789 291.799 275.711C291.628 276.784 291.567 277.858 291.617 278.935Z" fill="white"/>
<path d="M318.715 260.531L314.784 255.629C314.931 255.78 315.087 255.918 315.255 256.041C315.422 256.164 315.575 256.277 315.714 256.38C316.744 257.14 317.695 257.541 318.568 257.583C319.44 257.625 320.235 257.48 320.952 257.15C321.662 256.771 322.292 256.267 322.841 255.64C323.39 255.013 323.87 254.421 324.281 253.864C324.746 253.175 324.983 252.447 324.991 251.679C325.019 250.882 324.875 250.088 324.557 249.294C324.24 248.501 323.763 247.719 323.127 246.948C322.464 246.157 321.697 245.419 320.826 244.734L320.074 244.179C319.838 244.091 319.623 243.975 319.428 243.831C319.205 243.666 318.986 243.526 318.771 243.41C316.956 242.372 315.229 241.828 313.588 241.778C311.919 241.708 310.63 242.348 309.72 243.698C309.186 244.421 308.84 245.327 308.682 246.415C308.517 247.455 308.518 248.531 308.686 249.644C308.71 250.135 308.793 250.605 308.935 251.054C309.07 251.454 309.218 251.865 309.381 252.286L308.352 252.107C307.214 251.784 306.186 251.283 305.267 250.605C304.376 249.947 303.636 249.143 303.048 248.192C302.431 247.221 302.035 246.155 301.86 244.993C301.656 243.638 301.816 242.315 302.339 241.024C302.862 239.732 303.575 238.474 304.48 237.249C305.199 236.274 305.963 235.355 306.774 234.491C307.584 233.626 308.356 232.841 309.092 232.137L313.053 236.996C312.907 236.845 312.764 236.718 312.625 236.616C312.485 236.513 312.346 236.41 312.207 236.307C311.149 235.526 310.184 235.115 309.311 235.073C308.411 235.011 307.606 235.169 306.896 235.549C306.158 235.907 305.515 236.4 304.966 237.027C304.389 237.634 303.909 238.226 303.526 238.803C302.623 240.201 302.513 241.69 303.197 243.27C303.88 244.85 305.12 246.346 306.917 247.758C307.412 246.446 308.029 245.289 308.769 244.286C309.9 242.755 311.313 241.626 313.01 240.9C314.68 240.154 316.471 239.971 318.384 240.351L319.455 240.56C320.565 240.863 321.593 241.364 322.54 242.063C323.43 242.721 324.184 243.535 324.801 244.506C325.438 245.449 325.82 246.505 325.946 247.674C326.15 249.029 325.991 250.352 325.468 251.644C324.945 252.935 324.231 254.193 323.327 255.418C322.608 256.393 321.843 257.312 321.033 258.177C320.223 259.041 319.45 259.826 318.715 260.531Z" fill="white"/>
<path d="M34.936 367.018C34.894 367.498 34.8919 368.094 34.9295 368.806C34.9671 369.517 35.119 370.034 35.3851 370.357C35.5883 370.571 35.8143 370.74 36.063 370.861C36.374 371.013 36.7067 371.002 37.061 370.829C37.4305 370.624 37.8282 370.125 38.2542 369.332L51.3063 342.605C52.0005 342.366 52.6484 342.143 53.2501 341.937C53.7592 341.762 54.2451 341.594 54.708 341.435C55.2171 341.26 55.5486 341.133 55.7026 341.055L49.0285 354.721C50.5855 354.057 52.2075 353.732 53.8946 353.747C55.628 353.746 57.2876 354.133 58.8735 354.908C60.3972 355.652 61.6758 356.661 62.7092 357.936C63.7578 359.18 64.5214 360.573 65.0002 362.117C65.51 363.675 65.6955 365.306 65.5567 367.01C65.4642 368.698 65.0231 370.35 64.2334 371.967C63.4438 373.584 62.4043 374.963 61.1149 376.105C59.8718 377.231 58.479 378.072 56.9366 378.628C55.4252 379.2 53.8491 379.47 52.2083 379.439C50.5826 379.377 49.0079 378.974 47.4843 378.229C45.8984 377.455 44.5652 376.4 43.4848 375.063C42.4507 373.711 41.717 372.217 41.2838 370.58L41.0788 371C40.7751 371.622 40.4161 372.12 40.0017 372.496C39.6336 372.855 39.1951 373.122 38.686 373.297C38.208 373.488 37.6269 373.416 36.9428 373.082C36.2587 372.747 35.7673 372.334 35.4686 371.842C35.17 371.349 34.9639 370.825 34.8503 370.269C34.783 369.697 34.77 369.132 34.8112 368.574C34.8676 367.986 34.9092 367.467 34.936 367.018ZM41.3977 370.347L41.6125 370.972C41.9307 371.897 42.4102 372.69 43.0509 373.349C43.7068 373.978 44.4856 374.512 45.3874 374.953C46.9733 375.727 48.6948 376.106 50.5518 376.088C52.4552 376.055 54.2938 375.72 56.0677 375.085C57.8726 374.464 59.5048 373.567 60.9641 372.392C62.4697 371.202 63.6021 369.829 64.3614 368.275C64.8473 367.28 65.1243 366.279 65.1922 365.272C65.3065 364.25 65.1965 363.252 64.8624 362.28C64.5138 361.417 64.0037 360.648 63.3318 359.973C62.6911 359.314 61.9199 358.764 61.0181 358.323C59.5255 357.594 57.8196 357.224 55.9003 357.211C54.0274 357.182 52.0651 357.533 50.0135 358.264C48.9339 358.661 47.9721 359.25 47.1282 360.032C46.2843 360.814 45.6118 361.718 45.1106 362.744L41.3977 370.347Z" fill="white"/>
</svg>
