<?xml version="1.0" encoding="UTF-8" standalone="no"?>
<!DOCTYPE svg PUBLIC "-//W3C//DTD SVG 1.1//EN" "http://www.w3.org/Graphics/SVG/1.1/DTD/svg11.dtd">
<svg width="100%" height="100%" viewBox="0 0 834 1194" version="1.1" xmlns="http://www.w3.org/2000/svg" xmlnsXlink="http://www.w3.org/1999/xlink" xmlSpace="preserve" xmlnsSerif="http://www.serif.com/" style="fill-rule:evenodd;clip-rule:evenodd;">
    <g transform="matrix(1,0,0,1,-3991.38,-1120.31)">
        <g id="Cellar" transform="matrix(6.12323e-17,1,-1,6.12323e-17,4825.38,-2846.6)">
            <rect x="3966.91" y="0" width="1194" height="834" style="fill:none;"/>
            <g transform="matrix(1.3601,0,0,1.3601,-1628.42,-150.16)">
                <g transform="matrix(7.78185e-17,-1.27087,0.624402,3.82336e-17,3704.71,6022.24)">
                    <rect x="4268.92" y="1548.25" width="283.27" height="32.031" style="fill:white;"/>
                </g>
                <g transform="matrix(6.12323e-17,-1,1,6.12323e-17,2846.6,4825.38)">
                    <path d="M4608.38,1585.58L4608.38,1844.84L4588.38,1844.84L4588.38,1585.58L4608.38,1585.58ZM4228.38,1585.58L4228.38,1844.84L4208.38,1844.84L4208.38,1585.58L4228.38,1585.58Z" style="fill:white;"/>
                </g>
                <g transform="matrix(6.12323e-17,-1,1,6.12323e-17,2846.6,4825.38)">
                    <rect x="4208.38" y="1585.58" width="400" height="259.263" style="fill:none;"/>
                    <clipPath id="_clip1">
                        <rect x="4208.38" y="1585.58" width="400" height="259.263"/>
                    </clipPath>
                    <g clip-path="url(#_clip1)">
                        <g transform="matrix(1,0,0,1,4129.59,1165.02)">
                            <g>
                                <path d="M73.448,1243.34L928.34,388.448" style="fill:none;fill-rule:nonzero;stroke:white;stroke-width:2px;"/>
                                <path d="M-165.554,149.446L689.116,1004.12" style="fill:none;fill-rule:nonzero;stroke:white;stroke-width:2px;"/>
                                <path d="M-182.524,166.417L672.145,1021.09" style="fill:none;fill-rule:nonzero;stroke:white;stroke-width:2px;"/>
                                <path d="M-199.495,183.387L655.175,1038.06" style="fill:none;fill-rule:nonzero;stroke:white;stroke-width:2px;"/>
                                <path d="M-216.465,200.358L638.204,1055.03" style="fill:none;fill-rule:nonzero;stroke:white;stroke-width:2px;"/>
                                <path d="M-233.436,217.328L621.233,1072" style="fill:none;fill-rule:nonzero;stroke:white;stroke-width:2px;"/>
                                <path d="M-250.407,234.299L604.263,1088.97" style="fill:none;fill-rule:nonzero;stroke:white;stroke-width:2px;"/>
                                <path d="M-267.377,251.27L587.292,1105.94" style="fill:none;fill-rule:nonzero;stroke:white;stroke-width:2px;"/>
                                <path d="M-284.348,268.24L570.322,1122.91" style="fill:none;fill-rule:nonzero;stroke:white;stroke-width:2px;"/>
                                <path d="M-46.76,30.652L807.91,885.321" style="fill:none;fill-rule:nonzero;stroke:white;stroke-width:2px;"/>
                                <path d="M-63.731,47.623L790.939,902.292" style="fill:none;fill-rule:nonzero;stroke:white;stroke-width:2px;"/>
                                <path d="M-80.701,64.593L773.969,919.263" style="fill:none;fill-rule:nonzero;stroke:white;stroke-width:2px;"/>
                                <path d="M-97.671,81.564L756.998,936.233" style="fill:none;fill-rule:nonzero;stroke:white;stroke-width:2px;"/>
                                <path d="M-114.642,98.534L740.027,953.204" style="fill:none;fill-rule:nonzero;stroke:white;stroke-width:2px;"/>
                                <path d="M-131.613,115.505L723.057,970.174" style="fill:none;fill-rule:nonzero;stroke:white;stroke-width:2px;"/>
                                <path d="M-148.583,132.476L706.086,987.145" style="fill:none;fill-rule:nonzero;stroke:white;stroke-width:2px;"/>
                                <path d="M90.419,-106.527L945.088,748.143" style="fill:none;fill-rule:nonzero;stroke:white;stroke-width:2px;"/>
                                <path d="M73.448,-89.556L928.118,765.113" style="fill:none;fill-rule:nonzero;stroke:white;stroke-width:2px;"/>
                                <path d="M56.478,-72.585L911.147,782.084" style="fill:none;fill-rule:nonzero;stroke:white;stroke-width:2px;"/>
                                <path d="M39.507,-55.615L894.177,799.054" style="fill:none;fill-rule:nonzero;stroke:white;stroke-width:2px;"/>
                                <path d="M22.537,-38.644L877.206,816.025" style="fill:none;fill-rule:nonzero;stroke:white;stroke-width:2px;"/>
                                <path d="M5.566,-21.674L860.235,832.995" style="fill:none;fill-rule:nonzero;stroke:white;stroke-width:2px;"/>
                                <path d="M-11.404,-4.703L843.265,849.966" style="fill:none;fill-rule:nonzero;stroke:white;stroke-width:2px;"/>
                                <path d="M-28.375,12.267L826.294,866.937" style="fill:none;fill-rule:nonzero;stroke:white;stroke-width:2px;"/>
                                <path d="M209.213,-225.321L1063.88,629.349" style="fill:none;fill-rule:nonzero;stroke:white;stroke-width:2px;"/>
                                <path d="M192.242,-208.35L1046.91,646.319" style="fill:none;fill-rule:nonzero;stroke:white;stroke-width:2px;"/>
                                <path d="M175.272,-191.379L1029.94,663.29" style="fill:none;fill-rule:nonzero;stroke:white;stroke-width:2px;"/>
                                <path d="M158.301,-174.409L1012.97,680.26" style="fill:none;fill-rule:nonzero;stroke:white;stroke-width:2px;"/>
                                <path d="M141.331,-157.438L996,697.231" style="fill:none;fill-rule:nonzero;stroke:white;stroke-width:2px;"/>
                                <path d="M124.36,-140.468L979.029,714.202" style="fill:none;fill-rule:nonzero;stroke:white;stroke-width:2px;"/>
                                <path d="M107.39,-123.497L962.059,731.172" style="fill:none;fill-rule:nonzero;stroke:white;stroke-width:2px;"/>
                                <path d="M-421.526,405.419L433.366,1260.31" style="fill:none;fill-rule:nonzero;stroke:white;stroke-width:2px;"/>
                                <path d="M-438.497,422.389L416.395,1277.28" style="fill:none;fill-rule:nonzero;stroke:white;stroke-width:2px;"/>
                                <path d="M-455.467,439.36L399.425,1294.25" style="fill:none;fill-rule:nonzero;stroke:white;stroke-width:2px;"/>
                                <path d="M-472.438,456.33L382.454,1311.22" style="fill:none;fill-rule:nonzero;stroke:white;stroke-width:2px;"/>
                                <path d="M-489.409,473.301L365.483,1328.19" style="fill:none;fill-rule:nonzero;stroke:white;stroke-width:2px;"/>
                                <path d="M-506.379,490.271L348.513,1345.16" style="fill:none;fill-rule:nonzero;stroke:white;stroke-width:2px;"/>
                                <path d="M-523.35,507.242L331.542,1362.13" style="fill:none;fill-rule:nonzero;stroke:white;stroke-width:2px;"/>
                                <path d="M-540.32,524.213L314.572,1379.1" style="fill:none;fill-rule:nonzero;stroke:white;stroke-width:2px;"/>
                                <path d="M-302.732,286.625L552.16,1141.52" style="fill:none;fill-rule:nonzero;stroke:white;stroke-width:2px;"/>
                                <path d="M-319.703,303.595L535.189,1158.49" style="fill:none;fill-rule:nonzero;stroke:white;stroke-width:2px;"/>
                                <path d="M-336.673,320.566L518.219,1175.46" style="fill:none;fill-rule:nonzero;stroke:white;stroke-width:2px;"/>
                                <path d="M-353.644,337.536L501.248,1192.43" style="fill:none;fill-rule:nonzero;stroke:white;stroke-width:2px;"/>
                                <path d="M-370.615,354.507L484.277,1209.4" style="fill:none;fill-rule:nonzero;stroke:white;stroke-width:2px;"/>
                                <path d="M-387.585,371.478L467.307,1226.37" style="fill:none;fill-rule:nonzero;stroke:white;stroke-width:2px;"/>
                                <path d="M-404.556,388.448L450.336,1243.34" style="fill:none;fill-rule:nonzero;stroke:white;stroke-width:2px;"/>
                                <path d="M-165.554,1004.34L689.115,149.669" style="fill:none;fill-rule:nonzero;stroke:white;stroke-width:2px;"/>
                                <path d="M-148.583,1021.31L706.086,166.639" style="fill:none;fill-rule:nonzero;stroke:white;stroke-width:2px;"/>
                                <path d="M-131.613,1038.28L723.056,183.609" style="fill:none;fill-rule:nonzero;stroke:white;stroke-width:2px;"/>
                                <path d="M-114.643,1055.25L740.027,200.58" style="fill:none;fill-rule:nonzero;stroke:white;stroke-width:2px;"/>
                                <path d="M-97.672,1072.22L756.997,217.551" style="fill:none;fill-rule:nonzero;stroke:white;stroke-width:2px;"/>
                                <path d="M-80.701,1089.19L773.968,234.522" style="fill:none;fill-rule:nonzero;stroke:white;stroke-width:2px;"/>
                                <path d="M-63.731,1106.16L790.938,251.492" style="fill:none;fill-rule:nonzero;stroke:white;stroke-width:2px;"/>
                                <path d="M-46.76,1123.13L807.909,268.463" style="fill:none;fill-rule:nonzero;stroke:white;stroke-width:2px;"/>
                                <path d="M-284.348,885.544L570.321,30.875" style="fill:none;fill-rule:nonzero;stroke:white;stroke-width:2px;"/>
                                <path d="M-267.377,902.515L587.292,47.845" style="fill:none;fill-rule:nonzero;stroke:white;stroke-width:2px;"/>
                                <path d="M-250.407,919.485L604.262,64.816" style="fill:none;fill-rule:nonzero;stroke:white;stroke-width:2px;"/>
                                <path d="M-233.437,936.456L621.233,81.786" style="fill:none;fill-rule:nonzero;stroke:white;stroke-width:2px;"/>
                                <path d="M-216.466,953.426L638.204,98.757" style="fill:none;fill-rule:nonzero;stroke:white;stroke-width:2px;"/>
                                <path d="M-199.495,970.397L655.174,115.728" style="fill:none;fill-rule:nonzero;stroke:white;stroke-width:2px;"/>
                                <path d="M-182.525,987.367L672.144,132.698" style="fill:none;fill-rule:nonzero;stroke:white;stroke-width:2px;"/>
                                <path d="M-421.527,748.365L433.142,-106.304" style="fill:none;fill-rule:nonzero;stroke:white;stroke-width:2px;"/>
                                <path d="M-404.556,765.336L450.113,-89.333" style="fill:none;fill-rule:nonzero;stroke:white;stroke-width:2px;"/>
                                <path d="M-387.586,782.306L467.083,-72.363" style="fill:none;fill-rule:nonzero;stroke:white;stroke-width:2px;"/>
                                <path d="M-370.615,799.277L484.054,-55.393" style="fill:none;fill-rule:nonzero;stroke:white;stroke-width:2px;"/>
                                <path d="M-353.645,816.248L501.025,-38.422" style="fill:none;fill-rule:nonzero;stroke:white;stroke-width:2px;"/>
                                <path d="M-336.674,833.218L517.995,-21.451" style="fill:none;fill-rule:nonzero;stroke:white;stroke-width:2px;"/>
                                <path d="M-319.704,850.188L534.966,-4.481" style="fill:none;fill-rule:nonzero;stroke:white;stroke-width:2px;"/>
                                <path d="M-302.733,867.159L551.936,12.49" style="fill:none;fill-rule:nonzero;stroke:white;stroke-width:2px;"/>
                                <path d="M-540.321,629.571L314.349,-225.098" style="fill:none;fill-rule:nonzero;stroke:white;stroke-width:2px;"/>
                                <path d="M-523.35,646.542L331.319,-208.127" style="fill:none;fill-rule:nonzero;stroke:white;stroke-width:2px;"/>
                                <path d="M-506.38,663.512L348.289,-191.157" style="fill:none;fill-rule:nonzero;stroke:white;stroke-width:2px;"/>
                                <path d="M-489.409,680.483L365.26,-174.186" style="fill:none;fill-rule:nonzero;stroke:white;stroke-width:2px;"/>
                                <path d="M-472.438,697.454L382.231,-157.216" style="fill:none;fill-rule:nonzero;stroke:white;stroke-width:2px;"/>
                                <path d="M-455.468,714.424L399.202,-140.245" style="fill:none;fill-rule:nonzero;stroke:white;stroke-width:2px;"/>
                                <path d="M-438.498,731.395L416.172,-123.275" style="fill:none;fill-rule:nonzero;stroke:white;stroke-width:2px;"/>
                                <path d="M90.418,1260.31L945.311,405.418" style="fill:none;fill-rule:nonzero;stroke:white;stroke-width:2px;"/>
                                <path d="M107.389,1277.28L962.281,422.389" style="fill:none;fill-rule:nonzero;stroke:white;stroke-width:2px;"/>
                                <path d="M124.359,1294.25L979.251,439.359" style="fill:none;fill-rule:nonzero;stroke:white;stroke-width:2px;"/>
                                <path d="M141.33,1311.22L996.222,456.33" style="fill:none;fill-rule:nonzero;stroke:white;stroke-width:2px;"/>
                                <path d="M158.301,1328.19L1013.19,473.301" style="fill:none;fill-rule:nonzero;stroke:white;stroke-width:2px;"/>
                                <path d="M175.271,1345.16L1030.16,490.272" style="fill:none;fill-rule:nonzero;stroke:white;stroke-width:2px;"/>
                                <path d="M192.242,1362.13L1047.13,507.242" style="fill:none;fill-rule:nonzero;stroke:white;stroke-width:2px;"/>
                                <path d="M209.212,1379.1L1064.1,524.212" style="fill:none;fill-rule:nonzero;stroke:white;stroke-width:2px;"/>
                                <path d="M-28.376,1141.52L826.517,286.625" style="fill:none;fill-rule:nonzero;stroke:white;stroke-width:2px;"/>
                                <path d="M-11.405,1158.49L843.487,303.595" style="fill:none;fill-rule:nonzero;stroke:white;stroke-width:2px;"/>
                                <path d="M5.565,1175.46L860.457,320.565" style="fill:none;fill-rule:nonzero;stroke:white;stroke-width:2px;"/>
                                <path d="M22.536,1192.43L877.428,337.536" style="fill:none;fill-rule:nonzero;stroke:white;stroke-width:2px;"/>
                                <path d="M39.507,1209.4L894.399,354.507" style="fill:none;fill-rule:nonzero;stroke:white;stroke-width:2px;"/>
                                <path d="M56.478,1226.37L911.37,371.478" style="fill:none;fill-rule:nonzero;stroke:white;stroke-width:2px;"/>
                            </g>
                        </g>
                    </g>
                </g>
                <g transform="matrix(6.12323e-17,-1,1,6.12323e-17,2846.6,4825.38)">
                    <path d="M4188.38,1585.58L4183.38,1585.58L4183.38,1844.84L4188.38,1844.84L4188.38,1585.58ZM4633.38,1585.58L4628.38,1585.58L4628.38,1844.84L4633.38,1844.84L4633.38,1585.58Z" style="fill:white;"/>
                </g>
            </g>
        </g>
    </g>
</svg>
