<?xml version="1.0" encoding="UTF-8" standalone="no"?>
<!DOCTYPE svg PUBLIC "-//W3C//DTD SVG 1.1//EN" "http://www.w3.org/Graphics/SVG/1.1/DTD/svg11.dtd">
<svg width="100%" height="100%" viewBox="0 0 500 500" version="1.1" xmlns="http://www.w3.org/2000/svg" xmlns:xlink="http://www.w3.org/1999/xlink" xml:space="preserve" xmlns:serif="http://www.serif.com/" style="fill-rule:evenodd;clip-rule:evenodd;stroke-linejoin:round;stroke-miterlimit:2;">
    <g transform="matrix(1,0,0,1,-4928.4,-1120.31)">
        <g id="cross-pattern" transform="matrix(2.06268,0,0,1.53713,-9229.11,1115.34)">
            <rect x="6863.66" y="3.232" width="242.403" height="325.282" style="fill:none;"/>
            <clipPath id="_clip1">
                <rect x="6863.66" y="3.232" width="242.403" height="325.282"/>
            </clipPath>
            <g clip-path="url(#_clip1)">
                <g transform="matrix(0.484807,0,0,0.650564,4474.34,-725.603)">
                    <path d="M5178.4,820.311L5176.63,818.549L4626.65,1368.53L4628.41,1370.3L4626.65,1372.07L5176.63,1922.05L5178.4,1920.29L5180.17,1922.06L5730.16,1372.08L5728.39,1370.3L5730.15,1368.53L5180.16,818.544L5178.4,820.311ZM5154.43,1892.78L5178.4,1916.76L5202.37,1892.79L5178.4,1868.82L5154.43,1892.78ZM5181.93,1865.28L5205.9,1889.26L5229.87,1865.29L5205.9,1841.32L5181.93,1865.28ZM5126.93,1865.28L5150.9,1889.25L5174.86,1865.28L5150.9,1841.32L5126.93,1865.28ZM5209.43,1837.79L5233.4,1861.76L5257.37,1837.79L5233.39,1813.82L5209.43,1837.79ZM5154.43,1837.79L5178.4,1861.75L5202.36,1837.79L5178.4,1813.82L5154.43,1837.79ZM5099.43,1837.79L5123.4,1861.75L5147.36,1837.79L5123.4,1813.82L5099.43,1837.79ZM5236.93,1810.29L5260.9,1834.26L5284.87,1810.3L5260.89,1786.32L5236.93,1810.29ZM5181.93,1810.29L5205.9,1834.25L5229.86,1810.29L5205.9,1786.32L5181.93,1810.29ZM5126.93,1810.29L5150.9,1834.25L5174.86,1810.29L5150.9,1786.32L5126.93,1810.29ZM5071.94,1810.29L5095.9,1834.25L5119.86,1810.29L5095.9,1786.32L5071.94,1810.29ZM5264.43,1782.79L5288.4,1806.76L5312.36,1782.8L5288.39,1758.82L5264.43,1782.79ZM5209.43,1782.79L5233.39,1806.75L5257.36,1782.79L5233.39,1758.82L5209.43,1782.79ZM5154.43,1782.79L5178.4,1806.75L5202.36,1782.79L5178.4,1758.82L5154.43,1782.79ZM5099.43,1782.79L5123.4,1806.75L5147.36,1782.79L5123.4,1758.82L5099.43,1782.79ZM5044.44,1782.79L5068.4,1806.75L5092.36,1782.79L5068.4,1758.82L5044.44,1782.79ZM5291.93,1755.29L5315.9,1779.26L5339.86,1755.3L5315.89,1731.32L5291.93,1755.29ZM5236.93,1755.29L5260.89,1779.25L5284.86,1755.29L5260.89,1731.32L5236.93,1755.29ZM5181.93,1755.29L5205.9,1779.25L5229.86,1755.29L5205.9,1731.32L5181.93,1755.29ZM5126.93,1755.29L5150.9,1779.25L5174.86,1755.29L5150.9,1731.32L5126.93,1755.29ZM5071.94,1755.29L5095.9,1779.25L5119.86,1755.29L5095.9,1731.32L5071.94,1755.29ZM5016.94,1755.29L5040.9,1779.25L5064.86,1755.29L5040.9,1731.32L5016.94,1755.29ZM5319.43,1727.79L5343.4,1751.76L5367.36,1727.8L5343.39,1703.83L5319.43,1727.79ZM5264.43,1727.79L5288.39,1751.75L5312.36,1727.79L5288.39,1703.83L5264.43,1727.79ZM5209.43,1727.79L5233.39,1751.75L5257.36,1727.79L5233.39,1703.83L5209.43,1727.79ZM5154.43,1727.79L5178.4,1751.75L5202.36,1727.79L5178.4,1703.83L5154.43,1727.79ZM5099.43,1727.79L5123.4,1751.75L5147.36,1727.79L5123.4,1703.83L5099.43,1727.79ZM5044.44,1727.79L5068.4,1751.75L5092.36,1727.79L5068.4,1703.83L5044.44,1727.79ZM4989.44,1727.79L5013.4,1751.75L5037.36,1727.79L5013.4,1703.83L4989.44,1727.79ZM5346.93,1700.29L5370.9,1724.26L5394.86,1700.3L5370.89,1676.33L5346.93,1700.29ZM5291.93,1700.29L5315.89,1724.25L5339.85,1700.29L5315.89,1676.33L5291.93,1700.29ZM5236.93,1700.29L5260.89,1724.25L5284.86,1700.29L5260.89,1676.33L5236.93,1700.29ZM5181.93,1700.29L5205.9,1724.25L5229.86,1700.29L5205.9,1676.33L5181.93,1700.29ZM5126.93,1700.29L5150.9,1724.25L5174.86,1700.29L5150.9,1676.33L5126.93,1700.29ZM5071.94,1700.29L5095.9,1724.25L5119.86,1700.29L5095.9,1676.33L5071.94,1700.29ZM5016.94,1700.29L5040.9,1724.25L5064.86,1700.29L5040.9,1676.33L5016.94,1700.29ZM4961.94,1700.29L4985.9,1724.25L5009.87,1700.29L4985.9,1676.33L4961.94,1700.29ZM5374.43,1672.79L5398.4,1696.76L5422.36,1672.8L5398.39,1648.83L5374.43,1672.79ZM5319.43,1672.79L5343.39,1696.75L5367.35,1672.79L5343.39,1648.83L5319.43,1672.79ZM5264.43,1672.79L5288.39,1696.75L5312.36,1672.79L5288.39,1648.83L5264.43,1672.79ZM5209.43,1672.79L5233.39,1696.75L5257.36,1672.79L5233.39,1648.83L5209.43,1672.79ZM5154.43,1672.79L5178.4,1696.75L5202.36,1672.79L5178.4,1648.83L5154.43,1672.79ZM5099.43,1672.79L5123.4,1696.75L5147.36,1672.79L5123.4,1648.83L5099.43,1672.79ZM5044.44,1672.79L5068.4,1696.75L5092.36,1672.79L5068.4,1648.83L5044.44,1672.79ZM4989.44,1672.79L5013.4,1696.75L5037.36,1672.79L5013.4,1648.83L4989.44,1672.79ZM4934.44,1672.79L4958.4,1696.75L4982.37,1672.79L4958.4,1648.83L4934.44,1672.79ZM5401.92,1645.29L5425.9,1669.27L5449.86,1645.3L5425.89,1621.33L5401.92,1645.29ZM5346.93,1645.29L5370.89,1669.26L5394.85,1645.29L5370.89,1621.33L5346.93,1645.29ZM5291.93,1645.29L5315.89,1669.26L5339.85,1645.29L5315.89,1621.33L5291.93,1645.29ZM5236.93,1645.29L5260.89,1669.26L5284.86,1645.29L5260.89,1621.33L5236.93,1645.29ZM5181.93,1645.29L5205.9,1669.26L5229.86,1645.29L5205.9,1621.33L5181.93,1645.29ZM5126.93,1645.29L5150.9,1669.26L5174.86,1645.29L5150.9,1621.33L5126.93,1645.29ZM5071.94,1645.29L5095.9,1669.26L5119.86,1645.29L5095.9,1621.33L5071.94,1645.29ZM5016.94,1645.29L5040.9,1669.26L5064.86,1645.29L5040.9,1621.33L5016.94,1645.29ZM4961.94,1645.29L4985.9,1669.26L5009.87,1645.29L4985.9,1621.33L4961.94,1645.29ZM4906.94,1645.29L4930.9,1669.26L4954.87,1645.29L4930.9,1621.33L4906.94,1645.29ZM5429.42,1617.79L5453.4,1641.77L5477.36,1617.8L5453.39,1593.83L5429.42,1617.79ZM5374.43,1617.79L5398.39,1641.76L5422.35,1617.79L5398.39,1593.83L5374.43,1617.79ZM5319.43,1617.79L5343.39,1641.76L5367.35,1617.79L5343.39,1593.83L5319.43,1617.79ZM5264.43,1617.79L5288.39,1641.76L5312.36,1617.79L5288.39,1593.83L5264.43,1617.79ZM5209.43,1617.79L5233.39,1641.76L5257.36,1617.79L5233.39,1593.83L5209.43,1617.79ZM5154.43,1617.79L5178.4,1641.76L5202.36,1617.79L5178.4,1593.83L5154.43,1617.79ZM5099.43,1617.79L5123.4,1641.76L5147.36,1617.79L5123.4,1593.83L5099.43,1617.79ZM5044.44,1617.79L5068.4,1641.76L5092.36,1617.79L5068.4,1593.83L5044.44,1617.79ZM4989.44,1617.79L5013.4,1641.76L5037.36,1617.79L5013.4,1593.83L4989.44,1617.79ZM4934.44,1617.79L4958.4,1641.76L4982.37,1617.79L4958.4,1593.83L4934.44,1617.79ZM4879.44,1617.79L4903.41,1641.76L4927.37,1617.79L4903.41,1593.83L4879.44,1617.79ZM5456.92,1590.29L5480.89,1614.27L5504.86,1590.3L5480.89,1566.33L5456.92,1590.29ZM5401.92,1590.29L5425.89,1614.26L5449.85,1590.29L5425.89,1566.33L5401.92,1590.29ZM5346.93,1590.29L5370.89,1614.26L5394.85,1590.29L5370.89,1566.33L5346.93,1590.29ZM5291.93,1590.29L5315.89,1614.26L5339.85,1590.29L5315.89,1566.33L5291.93,1590.29ZM5236.93,1590.29L5260.89,1614.26L5284.86,1590.29L5260.89,1566.33L5236.93,1590.29ZM5181.93,1590.29L5205.9,1614.26L5229.86,1590.29L5205.9,1566.33L5181.93,1590.29ZM5126.93,1590.29L5150.9,1614.26L5174.86,1590.29L5150.9,1566.33L5126.93,1590.29ZM5071.94,1590.29L5095.9,1614.26L5119.86,1590.29L5095.9,1566.33L5071.94,1590.29ZM5016.94,1590.29L5040.9,1614.26L5064.86,1590.29L5040.9,1566.33L5016.94,1590.29ZM4961.94,1590.29L4985.9,1614.26L5009.87,1590.29L4985.9,1566.33L4961.94,1590.29ZM4906.94,1590.29L4930.9,1614.26L4954.87,1590.29L4930.9,1566.33L4906.94,1590.29ZM4851.94,1590.29L4875.91,1614.26L4899.87,1590.29L4875.91,1566.33L4851.94,1590.29ZM5484.42,1562.8L5508.39,1586.77L5532.36,1562.8L5508.38,1538.83L5484.42,1562.8ZM5429.42,1562.8L5453.39,1586.76L5477.35,1562.8L5453.39,1538.83L5429.42,1562.8ZM5374.43,1562.8L5398.39,1586.76L5422.35,1562.8L5398.39,1538.83L5374.43,1562.8ZM5319.43,1562.8L5343.39,1586.76L5367.35,1562.8L5343.39,1538.83L5319.43,1562.8ZM5264.43,1562.8L5288.39,1586.76L5312.36,1562.8L5288.39,1538.83L5264.43,1562.8ZM5209.43,1562.8L5233.39,1586.76L5257.36,1562.8L5233.39,1538.83L5209.43,1562.8ZM5154.43,1562.8L5178.4,1586.76L5202.36,1562.8L5178.4,1538.83L5154.43,1562.8ZM5099.43,1562.8L5123.4,1586.76L5147.36,1562.8L5123.4,1538.83L5099.43,1562.8ZM5044.44,1562.8L5068.4,1586.76L5092.36,1562.8L5068.4,1538.83L5044.44,1562.8ZM4989.44,1562.8L5013.4,1586.76L5037.36,1562.8L5013.4,1538.83L4989.44,1562.8ZM4934.44,1562.8L4958.4,1586.76L4982.37,1562.8L4958.4,1538.83L4934.44,1562.8ZM4879.44,1562.8L4903.41,1586.76L4927.37,1562.8L4903.41,1538.83L4879.44,1562.8ZM4824.44,1562.79L4848.41,1586.76L4872.37,1562.8L4848.41,1538.83L4824.44,1562.79ZM5511.92,1535.3L5535.89,1559.27L5559.86,1535.31L5535.88,1511.33L5511.92,1535.3ZM5456.92,1535.3L5480.89,1559.26L5504.85,1535.3L5480.89,1511.33L5456.92,1535.3ZM5401.92,1535.3L5425.89,1559.26L5449.85,1535.3L5425.89,1511.33L5401.92,1535.3ZM5346.93,1535.3L5370.89,1559.26L5394.85,1535.3L5370.89,1511.33L5346.93,1535.3ZM5291.93,1535.3L5315.89,1559.26L5339.86,1535.3L5315.89,1511.33L5291.93,1535.3ZM5236.93,1535.3L5260.89,1559.26L5284.86,1535.3L5260.89,1511.33L5236.93,1535.3ZM5181.93,1535.3L5205.9,1559.26L5229.86,1535.3L5205.9,1511.33L5181.93,1535.3ZM5126.93,1535.3L5150.9,1559.26L5174.86,1535.3L5150.9,1511.33L5126.93,1535.3ZM5071.94,1535.3L5095.9,1559.26L5119.86,1535.3L5095.9,1511.33L5071.94,1535.3ZM5016.94,1535.3L5040.9,1559.26L5064.86,1535.3L5040.9,1511.33L5016.94,1535.3ZM4961.94,1535.3L4985.9,1559.26L5009.87,1535.3L4985.9,1511.33L4961.94,1535.3ZM4906.94,1535.3L4930.9,1559.26L4954.87,1535.3L4930.9,1511.33L4906.94,1535.3ZM4851.94,1535.3L4875.91,1559.26L4899.87,1535.3L4875.91,1511.33L4851.94,1535.3ZM4796.94,1535.3L4820.91,1559.26L4844.87,1535.3L4820.91,1511.33L4796.94,1535.3ZM5539.42,1507.8L5563.39,1531.77L5587.36,1507.81L5563.38,1483.83L5539.42,1507.8ZM5484.42,1507.8L5508.38,1531.76L5532.35,1507.8L5508.38,1483.83L5484.42,1507.8ZM5429.42,1507.8L5453.39,1531.76L5477.35,1507.8L5453.39,1483.83L5429.42,1507.8ZM5374.43,1507.8L5398.39,1531.76L5422.35,1507.8L5398.39,1483.83L5374.43,1507.8ZM5319.43,1507.8L5343.39,1531.76L5367.35,1507.8L5343.39,1483.83L5319.43,1507.8ZM5264.43,1507.8L5288.39,1531.76L5312.36,1507.8L5288.39,1483.83L5264.43,1507.8ZM5209.43,1507.8L5233.39,1531.76L5257.36,1507.8L5233.39,1483.83L5209.43,1507.8ZM5154.43,1507.8L5178.4,1531.76L5202.36,1507.8L5178.4,1483.83L5154.43,1507.8ZM5099.43,1507.8L5123.4,1531.76L5147.36,1507.8L5123.4,1483.83L5099.43,1507.8ZM5044.44,1507.8L5068.4,1531.76L5092.36,1507.8L5068.4,1483.83L5044.44,1507.8ZM4989.44,1507.8L5013.4,1531.76L5037.36,1507.8L5013.4,1483.83L4989.44,1507.8ZM4934.44,1507.8L4958.4,1531.76L4982.37,1507.8L4958.4,1483.83L4934.44,1507.8ZM4879.44,1507.8L4903.41,1531.76L4927.37,1507.8L4903.41,1483.83L4879.44,1507.8ZM4824.44,1507.8L4848.41,1531.76L4872.37,1507.8L4848.41,1483.83L4824.44,1507.8ZM4769.45,1507.8L4793.41,1531.76L4817.37,1507.8L4793.41,1483.83L4769.45,1507.8ZM5566.92,1480.3L5590.89,1504.27L5614.85,1480.31L5590.88,1456.33L5566.92,1480.3ZM5511.92,1480.3L5535.88,1504.26L5559.85,1480.3L5535.88,1456.33L5511.92,1480.3ZM5456.92,1480.3L5480.89,1504.26L5504.85,1480.3L5480.89,1456.33L5456.92,1480.3ZM5401.92,1480.3L5425.89,1504.26L5449.85,1480.3L5425.89,1456.33L5401.92,1480.3ZM5346.93,1480.3L5370.89,1504.26L5394.85,1480.3L5370.89,1456.33L5346.93,1480.3ZM5291.93,1480.3L5315.89,1504.26L5339.86,1480.3L5315.89,1456.33L5291.93,1480.3ZM5236.93,1480.3L5260.89,1504.26L5284.86,1480.3L5260.89,1456.33L5236.93,1480.3ZM5181.93,1480.3L5205.9,1504.26L5229.86,1480.3L5205.9,1456.33L5181.93,1480.3ZM5126.93,1480.3L5150.9,1504.26L5174.86,1480.3L5150.9,1456.33L5126.93,1480.3ZM5071.94,1480.3L5095.9,1504.26L5119.86,1480.3L5095.9,1456.33L5071.94,1480.3ZM5016.94,1480.3L5040.9,1504.26L5064.86,1480.3L5040.9,1456.33L5016.94,1480.3ZM4961.94,1480.3L4985.9,1504.26L5009.87,1480.3L4985.9,1456.33L4961.94,1480.3ZM4906.94,1480.3L4930.9,1504.26L4954.87,1480.3L4930.9,1456.33L4906.94,1480.3ZM4851.94,1480.3L4875.91,1504.26L4899.87,1480.3L4875.91,1456.33L4851.94,1480.3ZM4796.94,1480.3L4820.91,1504.26L4844.87,1480.3L4820.91,1456.33L4796.94,1480.3ZM4741.95,1480.3L4765.91,1504.26L4789.87,1480.3L4765.91,1456.33L4741.95,1480.3ZM5594.42,1452.8L5618.39,1476.77L5642.35,1452.81L5618.38,1428.84L5594.42,1452.8ZM5539.42,1452.8L5563.38,1476.76L5587.35,1452.8L5563.38,1428.84L5539.42,1452.8ZM5484.42,1452.8L5508.38,1476.76L5532.35,1452.8L5508.38,1428.84L5484.42,1452.8ZM5429.42,1452.8L5453.39,1476.76L5477.35,1452.8L5453.39,1428.84L5429.42,1452.8ZM5374.43,1452.8L5398.39,1476.76L5422.35,1452.8L5398.39,1428.84L5374.43,1452.8ZM5319.43,1452.8L5343.39,1476.76L5367.35,1452.8L5343.39,1428.84L5319.43,1452.8ZM5264.43,1452.8L5288.39,1476.76L5312.36,1452.8L5288.39,1428.84L5264.43,1452.8ZM5209.43,1452.8L5233.39,1476.76L5257.36,1452.8L5233.39,1428.84L5209.43,1452.8ZM5154.43,1452.8L5178.4,1476.76L5202.36,1452.8L5178.4,1428.84L5154.43,1452.8ZM5099.43,1452.8L5123.4,1476.76L5147.36,1452.8L5123.4,1428.84L5099.43,1452.8ZM5044.44,1452.8L5068.4,1476.76L5092.36,1452.8L5068.4,1428.84L5044.44,1452.8ZM4989.44,1452.8L5013.4,1476.76L5037.36,1452.8L5013.4,1428.84L4989.44,1452.8ZM4934.44,1452.8L4958.4,1476.76L4982.37,1452.8L4958.4,1428.84L4934.44,1452.8ZM4879.44,1452.8L4903.41,1476.76L4927.37,1452.8L4903.41,1428.84L4879.44,1452.8ZM4824.44,1452.8L4848.41,1476.76L4872.37,1452.8L4848.41,1428.84L4824.44,1452.8ZM4769.45,1452.8L4793.41,1476.76L4817.37,1452.8L4793.41,1428.84L4769.45,1452.8ZM4714.45,1452.8L4738.41,1476.76L4762.38,1452.8L4738.41,1428.84L4714.45,1452.8ZM5621.92,1425.3L5645.89,1449.27L5669.85,1425.31L5645.88,1401.34L5621.92,1425.3ZM5566.92,1425.3L5590.88,1449.26L5614.85,1425.3L5590.88,1401.34L5566.92,1425.3ZM5511.92,1425.3L5535.88,1449.26L5559.85,1425.3L5535.88,1401.34L5511.92,1425.3ZM5456.92,1425.3L5480.89,1449.26L5504.85,1425.3L5480.89,1401.34L5456.92,1425.3ZM5401.92,1425.3L5425.89,1449.26L5449.85,1425.3L5425.89,1401.34L5401.92,1425.3ZM5346.93,1425.3L5370.89,1449.26L5394.85,1425.3L5370.89,1401.34L5346.93,1425.3ZM5291.93,1425.3L5315.89,1449.26L5339.86,1425.3L5315.89,1401.34L5291.93,1425.3ZM5236.93,1425.3L5260.89,1449.26L5284.86,1425.3L5260.89,1401.34L5236.93,1425.3ZM5181.93,1425.3L5205.9,1449.26L5229.86,1425.3L5205.9,1401.34L5181.93,1425.3ZM5126.93,1425.3L5150.9,1449.26L5174.86,1425.3L5150.9,1401.34L5126.93,1425.3ZM5071.94,1425.3L5095.9,1449.26L5119.86,1425.3L5095.9,1401.34L5071.94,1425.3ZM5016.94,1425.3L5040.9,1449.26L5064.86,1425.3L5040.9,1401.34L5016.94,1425.3ZM4961.94,1425.3L4985.9,1449.26L5009.87,1425.3L4985.9,1401.34L4961.94,1425.3ZM4906.94,1425.3L4930.9,1449.26L4954.87,1425.3L4930.9,1401.34L4906.94,1425.3ZM4851.94,1425.3L4875.91,1449.26L4899.87,1425.3L4875.91,1401.34L4851.94,1425.3ZM4796.94,1425.3L4820.91,1449.26L4844.87,1425.3L4820.91,1401.34L4796.94,1425.3ZM4741.95,1425.3L4765.91,1449.26L4789.87,1425.3L4765.91,1401.34L4741.95,1425.3ZM4686.95,1425.3L4710.91,1449.26L4734.88,1425.3L4710.91,1401.34L4686.95,1425.3ZM5649.41,1397.8L5673.39,1421.77L5697.35,1397.81L5673.38,1373.84L5649.41,1397.8ZM5594.42,1397.8L5618.38,1421.76L5642.34,1397.8L5618.38,1373.84L5594.42,1397.8ZM5539.42,1397.8L5563.38,1421.76L5587.35,1397.8L5563.38,1373.84L5539.42,1397.8ZM5484.42,1397.8L5508.38,1421.76L5532.35,1397.8L5508.38,1373.84L5484.42,1397.8ZM5429.42,1397.8L5453.39,1421.76L5477.35,1397.8L5453.39,1373.84L5429.42,1397.8ZM5374.43,1397.8L5398.39,1421.76L5422.35,1397.8L5398.39,1373.84L5374.43,1397.8ZM5319.43,1397.8L5343.39,1421.76L5367.35,1397.8L5343.39,1373.84L5319.43,1397.8ZM5264.43,1397.8L5288.39,1421.76L5312.36,1397.8L5288.39,1373.84L5264.43,1397.8ZM5209.43,1397.8L5233.39,1421.76L5257.36,1397.8L5233.39,1373.84L5209.43,1397.8ZM5154.43,1397.8L5178.4,1421.76L5202.36,1397.8L5178.4,1373.84L5154.43,1397.8ZM5099.43,1397.8L5123.4,1421.76L5147.36,1397.8L5123.4,1373.84L5099.43,1397.8ZM5044.44,1397.8L5068.4,1421.76L5092.36,1397.8L5068.4,1373.84L5044.44,1397.8ZM4989.44,1397.8L5013.4,1421.76L5037.36,1397.8L5013.4,1373.84L4989.44,1397.8ZM4934.44,1397.8L4958.4,1421.76L4982.37,1397.8L4958.4,1373.84L4934.44,1397.8ZM4879.44,1397.8L4903.41,1421.76L4927.37,1397.8L4903.41,1373.84L4879.44,1397.8ZM4824.44,1397.8L4848.41,1421.76L4872.37,1397.8L4848.41,1373.84L4824.44,1397.8ZM4769.45,1397.8L4793.41,1421.76L4817.37,1397.8L4793.41,1373.84L4769.45,1397.8ZM4714.45,1397.8L4738.41,1421.76L4762.38,1397.8L4738.41,1373.84L4714.45,1397.8ZM4659.45,1397.8L4683.41,1421.76L4707.38,1397.8L4683.41,1373.84L4659.45,1397.8ZM5676.91,1370.3L5700.89,1394.28L5724.85,1370.31L5700.88,1346.33L5676.91,1370.3ZM5621.92,1370.3L5645.88,1394.27L5669.84,1370.3L5645.88,1346.34L5621.92,1370.3ZM5566.92,1370.3L5590.88,1394.27L5614.85,1370.3L5590.88,1346.34L5566.92,1370.3ZM5511.92,1370.3L5535.88,1394.27L5559.85,1370.3L5535.88,1346.34L5511.92,1370.3ZM5456.92,1370.3L5480.89,1394.27L5504.85,1370.3L5480.89,1346.34L5456.92,1370.3ZM5401.92,1370.3L5425.89,1394.27L5449.85,1370.3L5425.89,1346.34L5401.92,1370.3ZM5346.93,1370.3L5370.89,1394.27L5394.85,1370.3L5370.89,1346.34L5346.93,1370.3ZM5291.93,1370.3L5315.89,1394.27L5339.86,1370.3L5315.89,1346.34L5291.93,1370.3ZM5236.93,1370.3L5260.89,1394.27L5284.86,1370.3L5260.89,1346.34L5236.93,1370.3ZM5181.93,1370.3L5205.9,1394.27L5229.86,1370.3L5205.9,1346.34L5181.93,1370.3ZM5126.93,1370.3L5150.9,1394.27L5174.86,1370.3L5150.9,1346.34L5126.93,1370.3ZM5071.94,1370.3L5095.9,1394.27L5119.86,1370.3L5095.9,1346.34L5071.94,1370.3ZM5016.94,1370.3L5040.9,1394.27L5064.86,1370.3L5040.9,1346.34L5016.94,1370.3ZM4961.94,1370.3L4985.9,1394.27L5009.87,1370.3L4985.9,1346.34L4961.94,1370.3ZM4906.94,1370.3L4930.9,1394.27L4954.87,1370.3L4930.9,1346.34L4906.94,1370.3ZM4851.94,1370.3L4875.91,1394.27L4899.87,1370.3L4875.91,1346.34L4851.94,1370.3ZM4796.94,1370.3L4820.91,1394.27L4844.87,1370.3L4820.91,1346.34L4796.94,1370.3ZM4741.95,1370.3L4765.91,1394.27L4789.87,1370.3L4765.91,1346.34L4741.95,1370.3ZM4686.95,1370.3L4710.91,1394.27L4734.88,1370.3L4710.91,1346.34L4686.95,1370.3ZM4631.95,1370.3L4655.91,1394.27L4679.88,1370.3L4655.91,1346.34L4631.95,1370.3ZM5649.41,1342.8L5673.38,1366.77L5697.35,1342.8L5673.38,1318.84L5649.41,1342.8ZM5594.42,1342.8L5618.38,1366.77L5642.34,1342.8L5618.38,1318.84L5594.42,1342.8ZM5539.42,1342.8L5563.38,1366.77L5587.35,1342.8L5563.38,1318.84L5539.42,1342.8ZM5484.42,1342.8L5508.38,1366.77L5532.35,1342.8L5508.38,1318.84L5484.42,1342.8ZM5429.42,1342.8L5453.39,1366.77L5477.35,1342.8L5453.39,1318.84L5429.42,1342.8ZM5374.43,1342.8L5398.39,1366.77L5422.35,1342.8L5398.39,1318.84L5374.43,1342.8ZM5319.43,1342.8L5343.39,1366.77L5367.35,1342.8L5343.39,1318.84L5319.43,1342.8ZM5264.43,1342.8L5288.39,1366.77L5312.36,1342.8L5288.39,1318.84L5264.43,1342.8ZM5209.43,1342.8L5233.39,1366.77L5257.36,1342.8L5233.39,1318.84L5209.43,1342.8ZM5154.43,1342.8L5178.4,1366.77L5202.36,1342.8L5178.4,1318.84L5154.43,1342.8ZM5099.43,1342.8L5123.4,1366.77L5147.36,1342.8L5123.4,1318.84L5099.43,1342.8ZM5044.44,1342.8L5068.4,1366.77L5092.36,1342.8L5068.4,1318.84L5044.44,1342.8ZM4989.44,1342.8L5013.4,1366.77L5037.36,1342.8L5013.4,1318.84L4989.44,1342.8ZM4934.44,1342.8L4958.4,1366.77L4982.37,1342.8L4958.4,1318.84L4934.44,1342.8ZM4879.44,1342.8L4903.41,1366.77L4927.37,1342.8L4903.41,1318.84L4879.44,1342.8ZM4824.44,1342.8L4848.41,1366.77L4872.37,1342.8L4848.41,1318.84L4824.44,1342.8ZM4769.45,1342.8L4793.41,1366.77L4817.37,1342.8L4793.41,1318.84L4769.45,1342.8ZM4714.45,1342.8L4738.41,1366.77L4762.38,1342.8L4738.41,1318.84L4714.45,1342.8ZM4659.45,1342.8L4683.41,1366.77L4707.38,1342.8L4683.41,1318.84L4659.45,1342.8ZM5621.92,1315.3L5645.88,1339.27L5669.85,1315.3L5645.88,1291.34L5621.92,1315.3ZM5566.92,1315.3L5590.88,1339.27L5614.85,1315.3L5590.88,1291.34L5566.92,1315.3ZM5511.92,1315.3L5535.88,1339.27L5559.85,1315.3L5535.88,1291.34L5511.92,1315.3ZM5456.92,1315.3L5480.89,1339.27L5504.85,1315.3L5480.89,1291.34L5456.92,1315.3ZM5401.92,1315.3L5425.89,1339.27L5449.85,1315.3L5425.89,1291.34L5401.92,1315.3ZM5346.93,1315.3L5370.89,1339.27L5394.85,1315.3L5370.89,1291.34L5346.93,1315.3ZM5291.93,1315.3L5315.89,1339.27L5339.86,1315.3L5315.89,1291.34L5291.93,1315.3ZM5236.93,1315.3L5260.89,1339.27L5284.86,1315.3L5260.89,1291.34L5236.93,1315.3ZM5181.93,1315.3L5205.9,1339.27L5229.86,1315.3L5205.9,1291.34L5181.93,1315.3ZM5126.93,1315.3L5150.9,1339.27L5174.86,1315.3L5150.9,1291.34L5126.93,1315.3ZM5071.94,1315.3L5095.9,1339.27L5119.86,1315.3L5095.9,1291.34L5071.94,1315.3ZM5016.94,1315.3L5040.9,1339.27L5064.86,1315.3L5040.9,1291.34L5016.94,1315.3ZM4961.94,1315.3L4985.9,1339.27L5009.87,1315.3L4985.9,1291.34L4961.94,1315.3ZM4906.94,1315.3L4930.9,1339.27L4954.87,1315.3L4930.9,1291.34L4906.94,1315.3ZM4851.94,1315.3L4875.91,1339.27L4899.87,1315.3L4875.91,1291.34L4851.94,1315.3ZM4796.94,1315.3L4820.91,1339.27L4844.87,1315.3L4820.91,1291.34L4796.94,1315.3ZM4741.95,1315.3L4765.91,1339.27L4789.87,1315.3L4765.91,1291.34L4741.95,1315.3ZM4686.95,1315.3L4710.91,1339.27L4734.88,1315.3L4710.91,1291.34L4686.95,1315.3ZM5594.42,1287.81L5618.38,1311.77L5642.35,1287.8L5618.38,1263.84L5594.42,1287.81ZM5539.42,1287.81L5563.38,1311.77L5587.35,1287.81L5563.38,1263.84L5539.42,1287.81ZM5484.42,1287.81L5508.38,1311.77L5532.35,1287.81L5508.38,1263.84L5484.42,1287.81ZM5429.42,1287.81L5453.39,1311.77L5477.35,1287.81L5453.39,1263.84L5429.42,1287.81ZM5374.43,1287.81L5398.39,1311.77L5422.35,1287.81L5398.39,1263.84L5374.43,1287.81ZM5319.43,1287.81L5343.39,1311.77L5367.35,1287.81L5343.39,1263.84L5319.43,1287.81ZM5264.43,1287.8L5288.39,1311.77L5312.36,1287.81L5288.39,1263.84L5264.43,1287.8ZM5209.43,1287.8L5233.39,1311.77L5257.36,1287.8L5233.39,1263.84L5209.43,1287.8ZM5154.43,1287.8L5178.4,1311.77L5202.36,1287.8L5178.4,1263.84L5154.43,1287.8ZM5099.44,1287.8L5123.4,1311.77L5147.36,1287.8L5123.4,1263.84L5099.44,1287.8ZM5044.44,1287.8L5068.4,1311.77L5092.36,1287.8L5068.4,1263.84L5044.44,1287.8ZM4989.44,1287.8L5013.4,1311.77L5037.36,1287.8L5013.4,1263.84L4989.44,1287.8ZM4934.44,1287.8L4958.4,1311.77L4982.37,1287.8L4958.4,1263.84L4934.44,1287.8ZM4879.44,1287.8L4903.41,1311.77L4927.37,1287.8L4903.41,1263.84L4879.44,1287.8ZM4824.44,1287.8L4848.41,1311.77L4872.37,1287.8L4848.41,1263.84L4824.44,1287.8ZM4769.45,1287.8L4793.41,1311.77L4817.37,1287.8L4793.41,1263.84L4769.45,1287.8ZM4714.45,1287.8L4738.41,1311.77L4762.38,1287.8L4738.41,1263.84L4714.45,1287.8ZM5566.92,1260.31L5590.88,1284.27L5614.85,1260.3L5590.89,1236.34L5566.92,1260.31ZM5511.92,1260.31L5535.88,1284.27L5559.85,1260.31L5535.88,1236.34L5511.92,1260.31ZM5456.92,1260.31L5480.89,1284.27L5504.85,1260.31L5480.89,1236.34L5456.92,1260.31ZM5401.92,1260.31L5425.89,1284.27L5449.85,1260.31L5425.89,1236.34L5401.92,1260.31ZM5346.93,1260.31L5370.89,1284.27L5394.85,1260.31L5370.89,1236.34L5346.93,1260.31ZM5291.93,1260.31L5315.89,1284.27L5339.86,1260.31L5315.89,1236.34L5291.93,1260.31ZM5236.93,1260.31L5260.89,1284.27L5284.86,1260.31L5260.89,1236.34L5236.93,1260.31ZM5181.93,1260.31L5205.9,1284.27L5229.86,1260.31L5205.9,1236.34L5181.93,1260.31ZM5126.93,1260.31L5150.9,1284.27L5174.86,1260.31L5150.9,1236.34L5126.93,1260.31ZM5071.94,1260.31L5095.9,1284.27L5119.86,1260.31L5095.9,1236.34L5071.94,1260.31ZM5016.94,1260.31L5040.9,1284.27L5064.86,1260.31L5040.9,1236.34L5016.94,1260.31ZM4961.94,1260.31L4985.9,1284.27L5009.87,1260.31L4985.9,1236.34L4961.94,1260.31ZM4906.94,1260.31L4930.9,1284.27L4954.87,1260.31L4930.9,1236.34L4906.94,1260.31ZM4851.94,1260.31L4875.91,1284.27L4899.87,1260.31L4875.91,1236.34L4851.94,1260.31ZM4796.94,1260.31L4820.91,1284.27L4844.87,1260.31L4820.91,1236.34L4796.94,1260.31ZM4741.95,1260.31L4765.91,1284.27L4789.87,1260.31L4765.91,1236.34L4741.95,1260.31ZM5539.42,1232.81L5563.38,1256.77L5587.35,1232.8L5563.39,1208.84L5539.42,1232.81ZM5484.42,1232.81L5508.38,1256.77L5532.35,1232.81L5508.38,1208.84L5484.42,1232.81ZM5429.42,1232.81L5453.39,1256.77L5477.35,1232.81L5453.39,1208.84L5429.42,1232.81ZM5374.43,1232.81L5398.39,1256.77L5422.35,1232.81L5398.39,1208.84L5374.43,1232.81ZM5319.43,1232.81L5343.39,1256.77L5367.35,1232.81L5343.39,1208.84L5319.43,1232.81ZM5264.43,1232.81L5288.39,1256.77L5312.36,1232.81L5288.39,1208.84L5264.43,1232.81ZM5209.43,1232.81L5233.39,1256.77L5257.36,1232.81L5233.39,1208.84L5209.43,1232.81ZM5154.43,1232.81L5178.4,1256.77L5202.36,1232.81L5178.4,1208.84L5154.43,1232.81ZM5099.44,1232.81L5123.4,1256.77L5147.36,1232.81L5123.4,1208.84L5099.44,1232.81ZM5044.44,1232.81L5068.4,1256.77L5092.36,1232.81L5068.4,1208.84L5044.44,1232.81ZM4989.44,1232.81L5013.4,1256.77L5037.36,1232.81L5013.4,1208.84L4989.44,1232.81ZM4934.44,1232.81L4958.4,1256.77L4982.37,1232.81L4958.4,1208.84L4934.44,1232.81ZM4879.44,1232.81L4903.41,1256.77L4927.37,1232.81L4903.41,1208.84L4879.44,1232.81ZM4824.44,1232.81L4848.41,1256.77L4872.37,1232.81L4848.41,1208.84L4824.44,1232.81ZM4769.45,1232.81L4793.41,1256.77L4817.37,1232.81L4793.41,1208.84L4769.45,1232.81ZM5511.92,1205.31L5535.88,1229.27L5559.85,1205.3L5535.89,1181.34L5511.92,1205.31ZM5456.92,1205.31L5480.89,1229.27L5504.85,1205.31L5480.89,1181.34L5456.92,1205.31ZM5401.92,1205.31L5425.89,1229.27L5449.85,1205.31L5425.89,1181.34L5401.92,1205.31ZM5346.93,1205.31L5370.89,1229.27L5394.85,1205.31L5370.89,1181.34L5346.93,1205.31ZM5291.93,1205.31L5315.89,1229.27L5339.86,1205.31L5315.89,1181.34L5291.93,1205.31ZM5236.93,1205.31L5260.89,1229.27L5284.86,1205.31L5260.89,1181.34L5236.93,1205.31ZM5181.93,1205.31L5205.9,1229.27L5229.86,1205.31L5205.9,1181.34L5181.93,1205.31ZM5126.93,1205.31L5150.9,1229.27L5174.86,1205.31L5150.9,1181.34L5126.93,1205.31ZM5071.94,1205.31L5095.9,1229.27L5119.86,1205.31L5095.9,1181.34L5071.94,1205.31ZM5016.94,1205.31L5040.9,1229.27L5064.86,1205.31L5040.9,1181.34L5016.94,1205.31ZM4961.94,1205.31L4985.9,1229.27L5009.87,1205.31L4985.9,1181.34L4961.94,1205.31ZM4906.94,1205.31L4930.9,1229.27L4954.87,1205.31L4930.9,1181.34L4906.94,1205.31ZM4851.94,1205.31L4875.91,1229.27L4899.87,1205.31L4875.91,1181.34L4851.94,1205.31ZM4796.94,1205.31L4820.91,1229.27L4844.87,1205.31L4820.91,1181.34L4796.94,1205.31ZM5484.42,1177.81L5508.38,1201.77L5532.35,1177.81L5508.39,1153.84L5484.42,1177.81ZM5429.42,1177.81L5453.39,1201.77L5477.35,1177.81L5453.39,1153.85L5429.42,1177.81ZM5374.43,1177.81L5398.39,1201.77L5422.35,1177.81L5398.39,1153.85L5374.43,1177.81ZM5319.43,1177.81L5343.39,1201.77L5367.35,1177.81L5343.39,1153.85L5319.43,1177.81ZM5264.43,1177.81L5288.39,1201.77L5312.36,1177.81L5288.39,1153.85L5264.43,1177.81ZM5209.43,1177.81L5233.39,1201.77L5257.36,1177.81L5233.39,1153.85L5209.43,1177.81ZM5154.43,1177.81L5178.4,1201.77L5202.36,1177.81L5178.4,1153.85L5154.43,1177.81ZM5099.44,1177.81L5123.4,1201.77L5147.36,1177.81L5123.4,1153.85L5099.44,1177.81ZM5044.44,1177.81L5068.4,1201.77L5092.36,1177.81L5068.4,1153.85L5044.44,1177.81ZM4989.44,1177.81L5013.4,1201.77L5037.36,1177.81L5013.4,1153.85L4989.44,1177.81ZM4934.44,1177.81L4958.4,1201.77L4982.37,1177.81L4958.4,1153.85L4934.44,1177.81ZM4879.44,1177.81L4903.41,1201.77L4927.37,1177.81L4903.41,1153.85L4879.44,1177.81ZM4824.44,1177.81L4848.41,1201.77L4872.37,1177.81L4848.41,1153.85L4824.44,1177.81ZM5456.92,1150.31L5480.89,1174.27L5504.85,1150.31L5480.89,1126.34L5456.92,1150.31ZM5401.92,1150.31L5425.89,1174.27L5449.85,1150.31L5425.89,1126.35L5401.92,1150.31ZM5346.93,1150.31L5370.89,1174.27L5394.85,1150.31L5370.89,1126.35L5346.93,1150.31ZM5291.93,1150.31L5315.89,1174.27L5339.86,1150.31L5315.89,1126.35L5291.93,1150.31ZM5236.93,1150.31L5260.89,1174.27L5284.86,1150.31L5260.89,1126.35L5236.93,1150.31ZM5181.93,1150.31L5205.9,1174.27L5229.86,1150.31L5205.9,1126.35L5181.93,1150.31ZM5126.93,1150.31L5150.9,1174.27L5174.86,1150.31L5150.9,1126.35L5126.93,1150.31ZM5071.94,1150.31L5095.9,1174.27L5119.86,1150.31L5095.9,1126.35L5071.94,1150.31ZM5016.94,1150.31L5040.9,1174.27L5064.86,1150.31L5040.9,1126.35L5016.94,1150.31ZM4961.94,1150.31L4985.9,1174.27L5009.87,1150.31L4985.9,1126.35L4961.94,1150.31ZM4906.94,1150.31L4930.9,1174.27L4954.87,1150.31L4930.9,1126.35L4906.94,1150.31ZM4851.94,1150.31L4875.91,1174.27L4899.87,1150.31L4875.91,1126.35L4851.94,1150.31ZM5429.42,1122.81L5453.39,1146.77L5477.35,1122.81L5453.39,1098.84L5429.42,1122.81ZM5374.43,1122.81L5398.39,1146.77L5422.35,1122.81L5398.39,1098.85L5374.43,1122.81ZM5319.43,1122.81L5343.39,1146.77L5367.35,1122.81L5343.39,1098.85L5319.43,1122.81ZM5264.43,1122.81L5288.39,1146.77L5312.36,1122.81L5288.39,1098.85L5264.43,1122.81ZM5209.43,1122.81L5233.39,1146.77L5257.36,1122.81L5233.39,1098.85L5209.43,1122.81ZM5154.43,1122.81L5178.4,1146.77L5202.36,1122.81L5178.4,1098.85L5154.43,1122.81ZM5099.44,1122.81L5123.4,1146.77L5147.36,1122.81L5123.4,1098.85L5099.44,1122.81ZM5044.44,1122.81L5068.4,1146.77L5092.36,1122.81L5068.4,1098.85L5044.44,1122.81ZM4989.44,1122.81L5013.4,1146.77L5037.36,1122.81L5013.4,1098.85L4989.44,1122.81ZM4934.44,1122.81L4958.4,1146.77L4982.37,1122.81L4958.4,1098.85L4934.44,1122.81ZM4879.44,1122.81L4903.41,1146.77L4927.37,1122.81L4903.41,1098.85L4879.44,1122.81ZM5401.92,1095.31L5425.89,1119.28L5449.86,1095.31L5425.89,1071.34L5401.92,1095.31ZM5346.93,1095.31L5370.89,1119.28L5394.85,1095.31L5370.89,1071.35L5346.93,1095.31ZM5291.93,1095.31L5315.89,1119.28L5339.86,1095.31L5315.89,1071.35L5291.93,1095.31ZM5236.93,1095.31L5260.89,1119.28L5284.86,1095.31L5260.89,1071.35L5236.93,1095.31ZM5181.93,1095.31L5205.9,1119.28L5229.86,1095.31L5205.9,1071.35L5181.93,1095.31ZM5126.93,1095.31L5150.9,1119.28L5174.86,1095.31L5150.9,1071.35L5126.93,1095.31ZM5071.94,1095.31L5095.9,1119.28L5119.86,1095.31L5095.9,1071.35L5071.94,1095.31ZM5016.94,1095.31L5040.9,1119.28L5064.86,1095.31L5040.9,1071.35L5016.94,1095.31ZM4961.94,1095.31L4985.9,1119.28L5009.87,1095.31L4985.9,1071.35L4961.94,1095.31ZM4906.94,1095.31L4930.9,1119.28L4954.87,1095.31L4930.9,1071.35L4906.94,1095.31ZM5374.43,1067.81L5398.39,1091.78L5422.36,1067.81L5398.39,1043.85L5374.43,1067.81ZM5319.43,1067.81L5343.39,1091.78L5367.35,1067.81L5343.39,1043.85L5319.43,1067.81ZM5264.43,1067.81L5288.39,1091.78L5312.36,1067.81L5288.39,1043.85L5264.43,1067.81ZM5209.43,1067.81L5233.39,1091.78L5257.36,1067.81L5233.39,1043.85L5209.43,1067.81ZM5154.43,1067.81L5178.4,1091.78L5202.36,1067.81L5178.4,1043.85L5154.43,1067.81ZM5099.44,1067.81L5123.4,1091.78L5147.36,1067.81L5123.4,1043.85L5099.44,1067.81ZM5044.44,1067.81L5068.4,1091.78L5092.36,1067.81L5068.4,1043.85L5044.44,1067.81ZM4989.44,1067.81L5013.4,1091.78L5037.37,1067.81L5013.4,1043.85L4989.44,1067.81ZM4934.44,1067.81L4958.4,1091.78L4982.37,1067.81L4958.4,1043.85L4934.44,1067.81ZM5346.93,1040.31L5370.89,1064.28L5394.86,1040.31L5370.89,1016.35L5346.93,1040.31ZM5291.93,1040.31L5315.89,1064.28L5339.86,1040.31L5315.89,1016.35L5291.93,1040.31ZM5236.93,1040.31L5260.89,1064.28L5284.86,1040.31L5260.89,1016.35L5236.93,1040.31ZM5181.93,1040.31L5205.9,1064.28L5229.86,1040.31L5205.9,1016.35L5181.93,1040.31ZM5126.93,1040.31L5150.9,1064.28L5174.86,1040.31L5150.9,1016.35L5126.93,1040.31ZM5071.94,1040.31L5095.9,1064.28L5119.86,1040.31L5095.9,1016.35L5071.94,1040.31ZM5016.94,1040.31L5040.9,1064.28L5064.86,1040.31L5040.9,1016.35L5016.94,1040.31ZM4961.94,1040.31L4985.9,1064.28L5009.87,1040.31L4985.9,1016.35L4961.94,1040.31ZM5319.43,1012.81L5343.39,1036.78L5367.36,1012.81L5343.39,988.847L5319.43,1012.81ZM5264.43,1012.81L5288.39,1036.78L5312.36,1012.81L5288.39,988.851L5264.43,1012.81ZM5209.43,1012.81L5233.39,1036.78L5257.36,1012.81L5233.39,988.851L5209.43,1012.81ZM5154.43,1012.81L5178.4,1036.78L5202.36,1012.81L5178.4,988.851L5154.43,1012.81ZM5099.44,1012.81L5123.4,1036.78L5147.36,1012.81L5123.4,988.851L5099.44,1012.81ZM5044.44,1012.81L5068.4,1036.78L5092.36,1012.81L5068.4,988.851L5044.44,1012.81ZM4989.44,1012.81L5013.4,1036.78L5037.37,1012.81L5013.4,988.851L4989.44,1012.81ZM5291.93,985.315L5315.89,1009.28L5339.86,985.311L5315.9,961.348L5291.93,985.315ZM5236.93,985.315L5260.89,1009.28L5284.86,985.315L5260.89,961.352L5236.93,985.315ZM5181.93,985.315L5205.9,1009.28L5229.86,985.315L5205.9,961.352L5181.93,985.315ZM5126.93,985.315L5150.9,1009.28L5174.86,985.315L5150.9,961.352L5126.93,985.315ZM5071.94,985.315L5095.9,1009.28L5119.86,985.315L5095.9,961.352L5071.94,985.315ZM5016.94,985.315L5040.9,1009.28L5064.86,985.315L5040.9,961.352L5016.94,985.315ZM5264.43,957.816L5288.39,981.78L5312.36,957.812L5288.4,933.849L5264.43,957.816ZM5209.43,957.816L5233.39,981.78L5257.36,957.816L5233.39,933.853L5209.43,957.816ZM5154.43,957.816L5178.4,981.78L5202.36,957.816L5178.4,933.853L5154.43,957.816ZM5099.44,957.816L5123.4,981.78L5147.36,957.816L5123.4,933.853L5099.44,957.816ZM5044.44,957.816L5068.4,981.78L5092.36,957.816L5068.4,933.853L5044.44,957.816ZM5236.93,930.317L5260.89,954.281L5284.86,930.313L5260.9,906.35L5236.93,930.317ZM5181.93,930.317L5205.9,954.281L5229.86,930.317L5205.9,906.354L5181.93,930.317ZM5126.93,930.317L5150.9,954.281L5174.86,930.317L5150.9,906.354L5126.93,930.317ZM5071.94,930.317L5095.9,954.281L5119.86,930.317L5095.9,906.354L5071.94,930.317ZM5209.43,902.818L5233.39,926.782L5257.36,902.814L5233.4,878.851L5209.43,902.818ZM5154.43,902.818L5178.4,926.782L5202.36,902.818L5178.4,878.855L5154.43,902.818ZM5099.44,902.818L5123.4,926.782L5147.36,902.818L5123.4,878.855L5099.44,902.818ZM5181.93,875.319L5205.9,899.283L5229.86,875.315L5205.9,851.352L5181.93,875.319ZM5126.93,875.319L5150.9,899.283L5174.86,875.319L5150.9,851.356L5126.93,875.319ZM5154.43,847.82L5178.4,871.784L5202.36,847.816L5178.4,823.853L5154.43,847.82Z" style="fill:white;fill-opacity:0.65;"/>
                </g>
            </g>
        </g>
    </g>
</svg>
