<?xml version="1.0" encoding="UTF-8" standalone="no"?>
<!DOCTYPE svg PUBLIC "-//W3C//DTD SVG 1.1//EN" "http://www.w3.org/Graphics/SVG/1.1/DTD/svg11.dtd">
<svg width="100%" height="100%" viewBox="0 0 500 500" version="1.1" xmlns="http://www.w3.org/2000/svg" xmlns:xlink="http://www.w3.org/1999/xlink" xml:space="preserve" xmlns:serif="http://www.serif.com/" style="fill-rule:evenodd;clip-rule:evenodd;">
    <g transform="matrix(1,0,0,1,-4928.4,-1120.31)">
        <g id="cross-pattern" transform="matrix(2.06268,0,0,1.53713,-9229.11,1115.34)">
            <rect x="6863.66" y="3.232" width="242.403" height="325.282" style="fill:none;"/>
            <clipPath id="_clip1">
                <rect x="6863.66" y="3.232" width="242.403" height="325.282"/>
            </clipPath>
            <g clip-path="url(#_clip1)">
                <g transform="matrix(1.41419,1.8977,-1.05387,1.41419,-2718.22,-13323.9)">
                    <g transform="matrix(0.666079,-0.190297,0.666079,0.190297,6395.39,105.887)">
                        <path d="M-233.437,936.456L621.233,81.786" style="fill:none;fill-rule:nonzero;stroke:white;stroke-width:2px;"/>
                    </g>
                    <g transform="matrix(0.666079,-0.190297,0.666079,0.190297,6637.8,105.887)">
                        <path d="M-233.437,936.456L621.233,81.786" style="fill:none;fill-rule:nonzero;stroke:white;stroke-width:2px;"/>
                    </g>
                    <g transform="matrix(0.666079,-0.190297,0.666079,0.190297,6407.51,105.887)">
                        <path d="M-233.437,936.456L621.233,81.786" style="fill:none;fill-rule:nonzero;stroke:white;stroke-width:2px;"/>
                    </g>
                    <g transform="matrix(0.666079,-0.190297,0.666079,0.190297,6419.63,105.887)">
                        <path d="M-233.437,936.456L621.233,81.786" style="fill:none;fill-rule:nonzero;stroke:white;stroke-width:2px;"/>
                    </g>
                    <g transform="matrix(0.666079,-0.190297,0.666079,0.190297,6431.75,105.887)">
                        <path d="M-233.437,936.456L621.233,81.786" style="fill:none;fill-rule:nonzero;stroke:white;stroke-width:2px;"/>
                    </g>
                    <g transform="matrix(0.666079,-0.190297,0.666079,0.190297,6443.87,105.887)">
                        <path d="M-233.437,936.456L621.233,81.786" style="fill:none;fill-rule:nonzero;stroke:white;stroke-width:2px;"/>
                    </g>
                    <g transform="matrix(0.666079,-0.190297,0.666079,0.190297,6455.99,105.887)">
                        <path d="M-233.437,936.456L621.233,81.786" style="fill:none;fill-rule:nonzero;stroke:white;stroke-width:2px;"/>
                    </g>
                    <g transform="matrix(0.666079,-0.190297,0.666079,0.190297,6468.11,105.887)">
                        <path d="M-233.437,936.456L621.233,81.786" style="fill:none;fill-rule:nonzero;stroke:white;stroke-width:2px;"/>
                    </g>
                    <g transform="matrix(0.666079,-0.190297,0.666079,0.190297,6480.23,105.887)">
                        <path d="M-233.437,936.456L621.233,81.786" style="fill:none;fill-rule:nonzero;stroke:white;stroke-width:2px;"/>
                    </g>
                    <g transform="matrix(0.666079,-0.190297,0.666079,0.190297,6492.35,105.887)">
                        <path d="M-233.437,936.456L621.233,81.786" style="fill:none;fill-rule:nonzero;stroke:white;stroke-width:2px;"/>
                    </g>
                    <g transform="matrix(0.666079,-0.190297,0.666079,0.190297,6504.47,105.887)">
                        <path d="M-233.437,936.456L621.233,81.786" style="fill:none;fill-rule:nonzero;stroke:white;stroke-width:2px;"/>
                    </g>
                    <g transform="matrix(0.666079,-0.190297,0.666079,0.190297,6516.59,105.887)">
                        <path d="M-233.437,936.456L621.233,81.786" style="fill:none;fill-rule:nonzero;stroke:white;stroke-width:2px;"/>
                    </g>
                    <g transform="matrix(0.666079,-0.190297,0.666079,0.190297,6528.71,105.887)">
                        <path d="M-233.437,936.456L621.233,81.786" style="fill:none;fill-rule:nonzero;stroke:white;stroke-width:2px;"/>
                    </g>
                    <g transform="matrix(0.666079,-0.190297,0.666079,0.190297,6540.83,105.887)">
                        <path d="M-233.437,936.456L621.233,81.786" style="fill:none;fill-rule:nonzero;stroke:white;stroke-width:2px;"/>
                    </g>
                    <g transform="matrix(0.666079,-0.190297,0.666079,0.190297,6552.95,105.887)">
                        <path d="M-233.437,936.456L621.233,81.786" style="fill:none;fill-rule:nonzero;stroke:white;stroke-width:2px;"/>
                    </g>
                    <g transform="matrix(0.666079,-0.190297,0.666079,0.190297,6565.07,105.887)">
                        <path d="M-233.437,936.456L621.233,81.786" style="fill:none;fill-rule:nonzero;stroke:white;stroke-width:2px;"/>
                    </g>
                    <g transform="matrix(0.666079,-0.190297,0.666079,0.190297,6577.19,105.887)">
                        <path d="M-233.437,936.456L621.233,81.786" style="fill:none;fill-rule:nonzero;stroke:white;stroke-width:2px;"/>
                    </g>
                    <g transform="matrix(0.666079,-0.190297,0.666079,0.190297,6589.31,105.887)">
                        <path d="M-233.437,936.456L621.233,81.786" style="fill:none;fill-rule:nonzero;stroke:white;stroke-width:2px;"/>
                    </g>
                    <g transform="matrix(0.666079,-0.190297,0.666079,0.190297,6601.43,105.887)">
                        <path d="M-233.437,936.456L621.233,81.786" style="fill:none;fill-rule:nonzero;stroke:white;stroke-width:2px;"/>
                    </g>
                    <g transform="matrix(0.666079,-0.190297,0.666079,0.190297,6613.55,105.887)">
                        <path d="M-233.437,936.456L621.233,81.786" style="fill:none;fill-rule:nonzero;stroke:white;stroke-width:2px;"/>
                    </g>
                    <g transform="matrix(0.666079,-0.190297,0.666079,0.190297,6625.67,105.887)">
                        <path d="M-233.437,936.456L621.233,81.786" style="fill:none;fill-rule:nonzero;stroke:white;stroke-width:2px;"/>
                    </g>
                </g>
                <g transform="matrix(-1.41419,1.8977,-1.05387,-1.41419,17020.4,-12831.7)">
                    <g transform="matrix(0.666079,-0.190297,0.666079,0.190297,6395.39,105.887)">
                        <path d="M-233.437,936.456L621.233,81.786" style="fill:none;fill-rule:nonzero;stroke:white;stroke-width:2px;"/>
                    </g>
                    <g transform="matrix(0.666086,-0.190299,0.666086,0.190299,6383.27,105.888)">
                        <path d="M-233.437,936.456L621.233,81.786" style="fill:none;fill-rule:nonzero;stroke:white;stroke-width:2px;"/>
                    </g>
                    <g transform="matrix(0.666079,-0.190297,0.666079,0.190297,6407.51,105.887)">
                        <path d="M-233.437,936.456L621.233,81.786" style="fill:none;fill-rule:nonzero;stroke:white;stroke-width:2px;"/>
                    </g>
                    <g transform="matrix(0.666079,-0.190297,0.666079,0.190297,6419.63,105.887)">
                        <path d="M-233.437,936.456L621.233,81.786" style="fill:none;fill-rule:nonzero;stroke:white;stroke-width:2px;"/>
                    </g>
                    <g transform="matrix(0.666079,-0.190297,0.666079,0.190297,6431.75,105.887)">
                        <path d="M-233.437,936.456L621.233,81.786" style="fill:none;fill-rule:nonzero;stroke:white;stroke-width:2px;"/>
                    </g>
                    <g transform="matrix(0.666079,-0.190297,0.666079,0.190297,6443.87,105.887)">
                        <path d="M-233.437,936.456L621.233,81.786" style="fill:none;fill-rule:nonzero;stroke:white;stroke-width:2px;"/>
                    </g>
                    <g transform="matrix(0.666079,-0.190297,0.666079,0.190297,6455.99,105.887)">
                        <path d="M-233.437,936.456L621.233,81.786" style="fill:none;fill-rule:nonzero;stroke:white;stroke-width:2px;"/>
                    </g>
                    <g transform="matrix(0.666079,-0.190297,0.666079,0.190297,6468.11,105.887)">
                        <path d="M-233.437,936.456L621.233,81.786" style="fill:none;fill-rule:nonzero;stroke:white;stroke-width:2px;"/>
                    </g>
                    <g transform="matrix(0.666079,-0.190297,0.666079,0.190297,6480.23,105.887)">
                        <path d="M-233.437,936.456L621.233,81.786" style="fill:none;fill-rule:nonzero;stroke:white;stroke-width:2px;"/>
                    </g>
                    <g transform="matrix(0.666079,-0.190297,0.666079,0.190297,6492.35,105.887)">
                        <path d="M-233.437,936.456L621.233,81.786" style="fill:none;fill-rule:nonzero;stroke:white;stroke-width:2px;"/>
                    </g>
                    <g transform="matrix(0.666079,-0.190297,0.666079,0.190297,6504.47,105.887)">
                        <path d="M-233.437,936.456L621.233,81.786" style="fill:none;fill-rule:nonzero;stroke:white;stroke-width:2px;"/>
                    </g>
                    <g transform="matrix(0.666079,-0.190297,0.666079,0.190297,6516.59,105.887)">
                        <path d="M-233.437,936.456L621.233,81.786" style="fill:none;fill-rule:nonzero;stroke:white;stroke-width:2px;"/>
                    </g>
                    <g transform="matrix(0.666079,-0.190297,0.666079,0.190297,6528.71,105.887)">
                        <path d="M-233.437,936.456L621.233,81.786" style="fill:none;fill-rule:nonzero;stroke:white;stroke-width:2px;"/>
                    </g>
                    <g transform="matrix(0.666079,-0.190297,0.666079,0.190297,6540.83,105.887)">
                        <path d="M-233.437,936.456L621.233,81.786" style="fill:none;fill-rule:nonzero;stroke:white;stroke-width:2px;"/>
                    </g>
                    <g transform="matrix(0.666079,-0.190297,0.666079,0.190297,6552.95,105.887)">
                        <path d="M-233.437,936.456L621.233,81.786" style="fill:none;fill-rule:nonzero;stroke:white;stroke-width:2px;"/>
                    </g>
                    <g transform="matrix(0.666079,-0.190297,0.666079,0.190297,6565.07,105.887)">
                        <path d="M-233.437,936.456L621.233,81.786" style="fill:none;fill-rule:nonzero;stroke:white;stroke-width:2px;"/>
                    </g>
                    <g transform="matrix(0.666079,-0.190297,0.666079,0.190297,6577.19,105.887)">
                        <path d="M-233.437,936.456L621.233,81.786" style="fill:none;fill-rule:nonzero;stroke:white;stroke-width:2px;"/>
                    </g>
                    <g transform="matrix(0.666079,-0.190297,0.666079,0.190297,6589.31,105.887)">
                        <path d="M-233.437,936.456L621.233,81.786" style="fill:none;fill-rule:nonzero;stroke:white;stroke-width:2px;"/>
                    </g>
                    <g transform="matrix(0.666079,-0.190297,0.666079,0.190297,6601.43,105.887)">
                        <path d="M-233.437,936.456L621.233,81.786" style="fill:none;fill-rule:nonzero;stroke:white;stroke-width:2px;"/>
                    </g>
                    <g transform="matrix(0.666079,-0.190297,0.666079,0.190297,6613.55,105.887)">
                        <path d="M-233.437,936.456L621.233,81.786" style="fill:none;fill-rule:nonzero;stroke:white;stroke-width:2px;"/>
                    </g>
                    <g transform="matrix(0.666079,-0.190297,0.666079,0.190297,6625.67,105.887)">
                        <path d="M-233.437,936.456L621.233,81.786" style="fill:none;fill-rule:nonzero;stroke:white;stroke-width:2px;"/>
                    </g>
                </g>
            </g>
        </g>
    </g>
</svg>
