<svg width="588" height="413" viewBox="0 0 588 413" fill="none" xmlns="http://www.w3.org/2000/svg">
<path d="M283.354 86.86C283.779 87.0874 284.326 87.3237 284.995 87.5689C285.664 87.8141 286.2 87.8778 286.601 87.7599C286.878 87.6575 287.122 87.5158 287.331 87.3349C287.593 87.1087 287.714 86.7986 287.694 86.4045C287.651 85.9843 287.348 85.4224 286.786 84.7188L267.345 62.2088C267.398 61.4767 267.448 60.7934 267.495 60.1588C267.534 59.6219 267.571 59.1094 267.607 58.6213C267.646 58.0844 267.66 57.7297 267.648 57.5571L277.589 69.0674C277.591 67.3746 277.93 65.7555 278.607 64.2103C279.288 62.6162 280.296 61.2424 281.632 60.0888C282.915 58.9804 284.346 58.2018 285.925 57.7529C287.481 57.2779 289.062 57.1237 290.669 57.2903C292.303 57.4343 293.875 57.905 295.387 58.7026C296.903 59.4514 298.249 60.5067 299.425 61.8685C300.601 63.2304 301.461 64.7286 302.004 66.3631C302.55 67.9488 302.776 69.5601 302.68 71.197C302.611 72.8112 302.24 74.3666 301.566 75.863C300.87 77.3333 299.88 78.6226 298.597 79.731C297.261 80.8846 295.767 81.6953 294.113 82.1633C292.463 82.5824 290.801 82.6693 289.126 82.4241L289.431 82.7777C289.883 83.3015 290.201 83.8277 290.383 84.3562C290.568 84.836 290.642 85.3443 290.602 85.8812C290.589 86.3955 290.295 86.9014 289.719 87.3991C289.142 87.8967 288.569 88.186 287.999 88.267C287.429 88.348 286.866 88.3313 286.31 88.217C285.757 88.054 285.233 87.8439 284.736 87.5867C284.217 87.3034 283.757 87.0612 283.354 86.86ZM288.956 82.2277L289.615 82.2759C290.591 82.3473 291.508 82.2181 292.367 81.8883C293.202 81.5323 294 81.0264 294.759 80.3704C296.095 79.2168 297.12 77.7828 297.834 76.0685C298.552 74.3054 298.967 72.4834 299.08 70.6024C299.22 68.6989 299.036 66.8453 298.53 65.0418C298.028 63.1894 297.211 61.6085 296.08 60.299C295.356 59.4609 294.545 58.8128 293.646 58.3545C292.751 57.8473 291.791 57.5563 290.766 57.4813C289.835 57.4623 288.927 57.629 288.043 57.9814C287.184 58.3112 286.375 58.8041 285.616 59.4601C284.359 60.5458 283.347 61.9685 282.58 63.728C281.817 65.4387 281.369 67.381 281.234 69.5548C281.175 70.7036 281.338 71.8197 281.725 72.903C282.112 73.9863 282.679 74.9601 283.425 75.8243L288.956 82.2277Z" fill="white"/>
<path d="M310.309 54.5952C309.479 52.9988 308.98 51.3661 308.814 49.6971C308.663 47.9814 308.807 46.3462 309.246 44.7913C309.717 43.2205 310.46 41.8001 311.477 40.5301C312.477 39.2293 313.73 38.1877 315.234 37.4052C316.8 36.5907 318.473 36.2078 320.254 36.2567C322.019 36.2748 323.741 36.549 325.421 37.0793C325.608 37.1382 325.749 37.2598 325.845 37.444C325.957 37.6589 325.984 37.8984 325.926 38.1624C325.883 38.3798 325.739 38.5524 325.493 38.6801L313.06 45.1481C312.986 45.3815 312.913 45.6148 312.839 45.8482C312.749 46.0508 312.652 46.2768 312.548 46.5261C311.991 48.4543 311.781 50.3383 311.919 52.178C312.071 53.971 312.507 55.5583 313.226 56.9398C314.36 59.1195 315.898 60.4646 317.841 60.9752C319.799 61.4391 321.837 61.1201 323.955 60.0182C325.613 59.1558 326.95 58.0895 327.967 56.8195C328.967 55.5188 329.749 54.0977 330.313 52.5564C330.86 50.9843 331.221 49.3533 331.395 47.6634C331.6 45.9575 331.697 44.2689 331.686 42.5974L332.045 43.2882C332.875 44.8846 333.366 46.5406 333.518 48.2563C333.684 49.9252 333.547 51.5372 333.107 53.092C332.668 54.6469 331.948 56.0747 330.947 57.3754C329.931 58.6454 328.686 59.6637 327.212 60.4303C325.708 61.2128 324.144 61.6558 322.52 61.7592C320.881 61.8319 319.283 61.6099 317.727 61.0931C316.201 60.5604 314.788 59.755 313.486 58.6769C312.198 57.5521 311.14 56.1916 310.309 54.5952ZM313.192 44.7281L324.935 38.6194C325.211 38.4757 325.347 38.2491 325.342 37.9396C325.321 37.5994 325.147 37.3778 324.821 37.2747C323.667 36.7824 322.589 36.583 321.584 36.6765C320.61 36.754 319.724 37.0004 318.926 37.4156C317.943 37.9267 317.103 38.598 316.404 39.4295C315.69 40.2303 315.091 41.0293 314.609 41.8264C314.035 42.7488 313.563 43.7161 313.192 44.7281Z" fill="white"/>
<path d="M352.205 48.9311L352.281 42.6487C352.298 42.8585 352.332 43.064 352.383 43.2654C352.433 43.4667 352.48 43.6513 352.522 43.819C352.835 45.0606 353.315 45.9745 353.963 46.5607C354.61 47.1469 355.316 47.54 356.08 47.7399C356.869 47.8978 357.675 47.9088 358.497 47.7729C359.32 47.637 360.066 47.4844 360.738 47.3152C361.534 47.0786 362.18 46.6661 362.674 46.0776C363.201 45.4806 363.595 44.7748 363.853 43.9602C364.112 43.1455 364.24 42.2388 364.238 41.24C364.228 40.2077 364.104 39.1504 363.867 38.0682L363.638 37.1622C363.512 36.9442 363.419 36.7178 363.36 36.4829C363.292 36.2144 363.212 35.967 363.119 35.7406C362.377 33.7864 361.387 32.2692 360.152 31.189C358.907 30.0752 357.505 29.7506 355.945 30.2154C355.072 30.4353 354.23 30.9154 353.417 31.6556C352.629 32.3538 351.947 33.1861 351.37 34.1524C351.077 34.5475 350.843 34.9634 350.667 35.4002C350.517 35.795 350.371 36.2066 350.229 36.6349L349.548 35.8431C348.874 34.8708 348.398 33.831 348.119 32.7237C347.848 31.6499 347.787 30.5589 347.936 29.4507C348.076 28.309 348.448 27.2339 349.05 26.2256C349.753 25.0491 350.716 24.1282 351.94 23.4627C353.164 22.7972 354.515 22.2783 355.991 21.9061C357.165 21.61 358.34 21.3852 359.515 21.2318C360.69 21.0784 361.785 20.9629 362.8 20.8854L362.775 27.1551C362.758 26.9453 362.728 26.7565 362.685 26.5887C362.643 26.4209 362.601 26.2532 362.559 26.0854C362.237 24.8103 361.753 23.8796 361.105 23.2934C360.449 22.6736 359.727 22.2847 358.937 22.1268C358.14 21.9354 357.33 21.9076 356.508 22.0435C355.677 22.1459 354.93 22.2985 354.267 22.5012C352.682 23.008 351.652 24.0885 351.177 25.7429C350.702 27.3973 350.71 29.3403 351.201 31.5719C352.417 30.8729 353.628 30.3711 354.836 30.0665C356.682 29.6012 358.491 29.627 360.263 30.1438C362.026 30.6271 363.526 31.6229 364.763 33.1312L365.457 33.9733C366.122 34.9121 366.599 35.9519 366.886 37.0927C367.157 38.1665 367.222 39.2743 367.082 40.416C366.975 41.5493 366.599 42.6076 365.955 43.5909C365.252 44.7673 364.289 45.6883 363.065 46.3538C361.841 47.0193 360.49 47.5381 359.014 47.9104C357.84 48.2064 356.665 48.4312 355.49 48.5846C354.315 48.738 353.22 48.8535 352.205 48.9311Z" fill="white"/>
<path d="M391.3 20.4928L396.544 13.2539L396.591 16.5238L402.508 16.4394C401.189 18.6386 399.233 19.7567 396.638 19.7937L396.905 38.5308C396.954 39.5683 397.154 40.2577 397.505 40.5988C397.856 40.9052 398.392 40.9149 399.115 40.6277C399.459 40.4844 399.8 40.0988 400.137 39.471C400.474 38.8433 400.743 38.303 400.944 37.8502C400.777 38.2679 400.593 38.7377 400.393 39.2597C400.193 39.7817 399.923 40.2874 399.584 40.7768C399.279 41.231 398.87 41.6349 398.356 41.9883C397.876 42.3066 397.272 42.471 396.546 42.4813C395.819 42.4917 395.245 42.3095 394.825 41.9348C394.439 41.5596 394.156 41.131 393.976 40.6491C393.761 40.133 393.648 39.5289 393.638 38.8369L393.376 20.4632L391.3 20.4928Z" fill="white"/>
<path d="M457.071 23.7178L461.182 25.7095L459.484 51.4772L477.128 36.6076C477.894 35.979 478.361 35.5707 478.529 35.3829C478.728 35.2102 478.843 35.0927 478.873 35.0304C478.993 34.7812 478.883 34.5737 478.54 34.4077L477.512 33.9098L477.625 33.6762L480.849 35.2379L479.151 61.0056L498.312 44.9099C498.526 44.706 498.632 44.5267 498.63 44.3719C498.659 44.2323 498.518 44.087 498.207 43.9361L497.179 43.4382L497.292 43.2046L500.562 44.7889L500.449 45.0225C500.138 44.8716 499.788 44.7599 499.4 44.6873C499.059 44.5987 498.704 44.7347 498.337 45.0953L477.754 62.5785L473.269 60.4058L473.36 60.2189L474.481 60.7621C474.824 60.9281 475.049 60.9794 475.156 60.9162C475.31 60.8369 475.394 60.7043 475.407 60.5184L477.178 36.8624L458.063 52.9808L453.603 50.8774L453.693 50.6905L454.814 51.2337C455.126 51.3846 455.335 51.4284 455.443 51.3651C455.597 51.2858 455.68 51.1532 455.693 50.9673L457.608 25.8237C457.691 25.0179 457.512 24.3159 457.071 23.7178Z" fill="white"/>
<path d="M495.886 74.9183L496.244 74.808L497.33 75.6935C498.001 76.2401 498.806 75.9367 499.746 74.7833L513.291 58.1659C513.604 57.6175 513.899 57.0094 514.175 56.3418L515.293 60.8028L500.553 78.7226L495.886 74.9183ZM515.946 54.169C516.296 53.7398 516.738 53.498 517.274 53.4434C517.858 53.3839 518.378 53.54 518.834 53.9116C519.237 54.2396 519.454 54.6848 519.487 55.2472C519.568 55.8046 519.434 56.2979 519.084 56.7271C518.713 57.1831 518.246 57.4274 517.683 57.4601C517.148 57.5147 516.679 57.378 516.276 57.05C515.82 56.6784 515.552 56.2138 515.47 55.6564C515.416 55.1208 515.574 54.625 515.946 54.169Z" fill="white"/>
<path d="M549.987 118.136C551.629 117.4 553.288 116.998 554.964 116.929C556.685 116.878 558.309 117.117 559.836 117.646C561.377 118.206 562.751 119.031 563.96 120.12C565.201 121.194 566.168 122.505 566.861 124.053C567.583 125.663 567.868 127.356 567.716 129.131C567.595 130.891 567.221 132.595 566.594 134.241C566.525 134.424 566.395 134.558 566.206 134.643C565.985 134.742 565.744 134.755 565.484 134.683C565.269 134.627 565.105 134.473 564.992 134.22L559.258 121.432C559.029 121.345 558.801 121.258 558.572 121.17C558.375 121.069 558.155 120.959 557.912 120.841C556.019 120.172 554.151 119.853 552.306 119.884C550.507 119.932 548.898 120.275 547.477 120.912C545.235 121.917 543.802 123.375 543.18 125.284C542.603 127.212 542.803 129.265 543.78 131.444C544.544 133.149 545.531 134.546 546.74 135.635C547.98 136.709 549.353 137.573 550.859 138.225C552.397 138.863 554.004 139.318 555.681 139.59C557.372 139.894 559.052 140.088 560.721 140.174L560.011 140.493C558.369 141.229 556.687 141.623 554.966 141.674C553.29 141.743 551.689 141.513 550.162 140.984C548.635 140.455 547.252 139.653 546.011 138.578C544.803 137.489 543.858 136.187 543.179 134.671C542.485 133.124 542.134 131.537 542.125 129.91C542.148 128.269 542.462 126.687 543.069 125.164C543.689 123.672 544.575 122.307 545.727 121.07C546.925 119.851 548.345 118.873 549.987 118.136ZM559.67 121.589L565.085 133.667C565.213 133.951 565.431 134.099 565.74 134.113C566.081 134.111 566.312 133.951 566.434 133.631C566.993 132.508 567.255 131.442 567.22 130.434C567.199 129.457 567.004 128.558 566.636 127.737C566.183 126.727 565.562 125.849 564.772 125.103C564.014 124.343 563.252 123.699 562.484 123.171C561.596 122.545 560.658 122.017 559.67 121.589Z" fill="white"/>
<path d="M333.144 372.959C333.738 371.261 334.585 369.779 335.687 368.515C336.833 367.229 338.123 366.213 339.556 365.468C341.023 364.734 342.567 364.302 344.188 364.173C345.821 364.01 347.438 364.209 349.039 364.768C350.705 365.351 352.13 366.307 353.315 367.637C354.511 368.935 355.491 370.378 356.256 371.965C356.341 372.141 356.35 372.327 356.281 372.523C356.201 372.752 356.045 372.936 355.814 373.075C355.626 373.192 355.401 373.206 355.14 373.114L341.909 368.49C341.689 368.596 341.469 368.702 341.248 368.809C341.039 368.882 340.808 368.966 340.555 369.061C338.769 369.977 337.253 371.115 336.007 372.476C334.806 373.815 333.948 375.22 333.434 376.69C332.624 379.01 332.698 381.052 333.658 382.817C334.661 384.561 336.29 385.826 338.544 386.614C340.308 387.231 342.001 387.474 343.622 387.345C345.255 387.182 346.826 386.778 348.335 386.132C349.855 385.454 351.29 384.599 352.641 383.568C354.023 382.549 355.32 381.462 356.529 380.308L356.273 381.044C355.679 382.742 354.809 384.234 353.663 385.52C352.561 386.785 351.293 387.79 349.86 388.535C348.426 389.28 346.893 389.734 345.26 389.896C343.638 390.026 342.043 389.817 340.475 389.269C338.875 388.709 337.48 387.874 336.293 386.762C335.116 385.618 334.183 384.302 333.493 382.814C332.836 381.338 332.454 379.757 332.347 378.07C332.285 376.362 332.55 374.658 333.144 372.959ZM342.306 368.299L354.802 372.666C355.096 372.769 355.354 372.712 355.576 372.497C355.809 372.248 355.851 371.97 355.703 371.661C355.271 370.484 354.677 369.562 353.921 368.894C353.197 368.238 352.41 367.761 351.561 367.464C350.516 367.099 349.451 366.947 348.366 367.008C347.293 367.036 346.301 367.147 345.39 367.342C344.325 367.556 343.297 367.875 342.306 368.299Z" fill="white"/>
<path d="M364.523 396.093L366.93 390.29C366.868 390.491 366.823 390.694 366.795 390.9C366.767 391.106 366.742 391.294 366.719 391.466C366.547 392.735 366.653 393.762 367.036 394.547C367.419 395.332 367.929 395.959 368.564 396.429C369.238 396.869 369.981 397.179 370.795 397.358C371.609 397.538 372.359 397.674 373.045 397.766C373.873 397.843 374.625 397.7 375.303 397.337C376.014 396.979 376.642 396.47 377.185 395.81C377.728 395.15 378.184 394.356 378.553 393.428C378.928 392.466 379.206 391.439 379.388 390.346L379.513 389.42C379.477 389.171 379.475 388.926 379.507 388.686C379.544 388.411 379.562 388.152 379.56 387.907C379.597 385.817 379.243 384.041 378.497 382.578C377.756 381.082 376.575 380.259 374.954 380.11C374.062 379.99 373.102 380.123 372.072 380.507C371.081 380.863 370.139 381.382 369.243 382.064C368.825 382.322 368.452 382.621 368.127 382.961C367.841 383.272 367.552 383.599 367.261 383.944L366.923 382.956C366.66 381.803 366.604 380.661 366.757 379.529C366.905 378.431 367.254 377.396 367.804 376.423C368.359 375.415 369.104 374.555 370.038 373.843C371.127 373.012 372.364 372.515 373.748 372.353C375.132 372.19 376.578 372.211 378.087 372.414C379.287 372.576 380.461 372.804 381.609 373.099C382.756 373.393 383.816 373.693 384.787 373.999L382.432 379.809C382.494 379.608 382.537 379.422 382.56 379.25C382.583 379.079 382.606 378.907 382.63 378.736C382.805 377.433 382.702 376.389 382.319 375.604C381.94 374.784 381.414 374.155 380.74 373.715C380.071 373.24 379.329 372.913 378.515 372.734C377.706 372.52 376.956 372.384 376.266 372.326C374.606 372.207 373.247 372.827 372.191 374.186C371.135 375.545 370.42 377.352 370.046 379.606C371.435 379.409 372.746 379.394 373.981 379.56C375.867 379.814 377.536 380.511 378.989 381.65C380.447 382.754 381.469 384.236 382.056 386.096L382.387 387.136C382.656 388.255 382.711 389.397 382.554 390.563C382.406 391.661 382.054 392.713 381.499 393.721C380.979 394.733 380.237 395.576 379.273 396.249C378.183 397.08 376.946 397.577 375.563 397.739C374.179 397.902 372.733 397.881 371.224 397.678C370.023 397.516 368.849 397.288 367.702 396.993C366.554 396.699 365.495 396.399 364.523 396.093Z" fill="white"/>
<circle cx="571.396" cy="194.497" r="10.9968" fill="white"/>
<path d="M520.536 90.9052C520.434 91.114 520.316 91.3575 520.18 91.6358C520.045 91.9141 519.909 92.1924 519.774 92.4707C519.659 92.7765 519.559 93.0718 519.472 93.3565C519.433 93.6476 519.439 93.8829 519.49 94.0623C519.534 94.2902 519.616 94.5108 519.736 94.7241C519.904 94.9438 520.093 95.1044 520.301 95.206C520.538 95.2866 520.835 95.2764 521.194 95.1757C521.553 95.075 521.979 94.8351 522.474 94.456L537.344 83.0527C538.071 83.1487 538.737 83.2489 539.34 83.3532C539.874 83.4236 540.383 83.4908 540.869 83.5548C541.402 83.6253 541.756 83.6595 541.929 83.6577L538.675 86.1531C540.364 86.2527 541.961 86.6855 543.464 87.4515C544.989 88.245 546.288 89.342 547.362 90.7425C548.52 92.2528 549.212 93.8374 549.437 95.4961C549.684 97.1823 549.577 98.8343 549.117 100.452C548.977 100.952 548.671 101.491 548.199 102.071C547.749 102.678 547.199 103.296 546.548 103.926C545.946 104.563 545.27 105.189 544.523 105.806C543.823 106.43 543.13 107.005 542.444 107.531L533.144 114.598C533.062 114.661 533 114.665 532.958 114.61L529.451 110.038L529.657 109.88L530.447 110.91C530.7 111.239 530.989 111.388 531.313 111.357C531.687 111.332 532.296 111.018 533.141 110.414C534.034 109.816 535.267 108.892 536.839 107.643C538.459 106.401 540.628 104.737 543.347 102.652C544.72 101.6 545.788 100.519 546.551 99.41C547.336 98.3288 547.857 97.2746 548.116 96.2474C548.375 95.2203 548.406 94.2371 548.209 93.2979C548.033 92.3861 547.661 91.5595 547.093 90.8181C546.461 89.9942 545.623 89.3284 544.579 88.8204C543.584 88.3189 542.436 88.044 541.134 87.9956C539.86 87.9262 538.464 88.1246 536.946 88.5907C535.477 89.0633 533.966 89.8512 532.414 90.9545L524.299 97.1774C524.244 97.2195 524.041 97.3532 523.691 97.5784C523.389 97.8101 523.006 97.9941 522.544 98.1306C522.103 98.2945 521.605 98.3275 521.05 98.2296C520.544 98.1382 520.07 97.8041 519.627 97.2274C519.164 96.6233 518.909 96.0342 518.861 95.4602C518.813 94.8863 518.863 94.3251 519.009 93.7767C519.204 93.2348 519.444 92.7235 519.73 92.2428C520.043 91.7411 520.311 91.2953 520.536 90.9052Z" fill="white"/>
<path d="M401.169 380.458L406.413 373.219L406.459 376.489L412.376 376.405C411.058 378.604 409.101 379.722 406.506 379.759L406.773 398.496C406.822 399.534 407.023 400.223 407.374 400.564C407.724 400.871 408.261 400.88 408.983 400.593C409.327 400.45 409.668 400.064 410.005 399.436C410.342 398.809 410.611 398.268 410.813 397.816C410.646 398.233 410.462 398.703 410.262 399.225C410.061 399.747 409.792 400.253 409.453 400.742C409.148 401.196 408.738 401.6 408.224 401.954C407.744 402.272 407.141 402.436 406.414 402.447C405.687 402.457 405.114 402.275 404.693 401.9C404.307 401.525 404.024 401.096 403.844 400.614C403.629 400.098 403.517 399.494 403.507 398.802L403.245 380.429L401.169 380.458Z" fill="white"/>
<path d="M450.445 363.432C451.451 363.058 452.275 363.14 452.917 363.676C453.592 364.201 454.14 365.031 454.562 366.167C455.187 364.569 456.092 363.18 457.279 362.001C458.498 360.81 459.967 359.896 461.686 359.257C463.276 358.667 464.888 358.437 466.524 358.568C468.16 358.699 469.702 359.123 471.15 359.84C472.597 360.558 473.89 361.554 475.028 362.829C476.187 364.06 477.08 365.519 477.706 367.206C478.32 368.861 478.597 370.549 478.534 372.27C478.493 373.946 478.157 375.529 477.529 377.018C476.9 378.506 476.009 379.834 474.855 381.001C473.689 382.135 472.311 382.997 470.722 383.588C469.002 384.226 467.28 384.46 465.555 384.288C463.863 384.105 462.259 383.611 460.742 382.809L469.868 407.383L465.664 405.455L451.406 367.062C451.105 366.251 450.754 365.753 450.353 365.57C449.985 365.374 449.639 365.337 449.315 365.457C448.666 365.698 448.272 366.177 448.132 366.893C447.98 367.577 447.878 368.298 447.827 369.055C447.857 368.638 447.868 368.172 447.862 367.658C447.876 367.099 447.95 366.555 448.086 366.024C448.254 365.482 448.51 364.981 448.856 364.52C449.234 364.048 449.764 363.685 450.445 363.432ZM457.688 374.585C458.062 375.591 458.62 376.546 459.362 377.452C460.125 378.313 461.072 378.976 462.205 379.441C464.236 380.238 466.18 380.752 468.039 380.985C469.929 381.206 471.653 381.027 473.211 380.449C474.249 380.063 475.129 379.551 475.852 378.914C476.563 378.244 477.112 377.486 477.5 376.641C477.875 375.763 478.068 374.842 478.08 373.878C478.079 372.882 477.892 371.881 477.518 370.875C476.976 369.415 476.079 367.995 474.828 366.614C473.577 365.233 472.017 364.114 470.149 363.257C468.147 362.34 466.178 361.76 464.243 361.519C462.295 361.246 460.545 361.453 458.991 362.14C458.107 362.543 457.32 363.057 456.629 363.682C455.927 364.275 455.37 364.962 454.958 365.743L454.634 366.361L457.688 374.585Z" fill="white"/>
<path d="M496.062 371.394L496.1 371.063L497.288 370.32C497.699 370.063 497.867 369.712 497.794 369.269C497.749 368.806 497.544 368.282 497.176 367.695L485.803 349.523C485.443 349.013 484.977 348.53 484.404 348.071L488.9 348.503L489.643 349.691C489.903 348.018 490.485 346.47 491.39 345.046C492.306 343.575 493.512 342.371 495.008 341.434C495.829 340.92 496.787 340.525 497.88 340.249C498.983 339.926 500.078 339.751 501.164 339.725C502.232 339.669 503.198 339.778 504.064 340.053C504.959 340.309 505.6 340.745 505.985 341.361C506.261 341.801 506.415 342.276 506.448 342.786C506.511 343.278 506.366 343.633 506.014 343.854C505.428 344.221 504.868 344.306 504.336 344.108C503.815 343.862 503.296 343.555 502.779 343.185C502.243 342.785 501.736 342.367 501.259 341.931C500.811 341.476 500.512 341.194 500.362 341.084C499.815 340.732 499.055 340.595 498.083 340.673C497.093 340.721 496.114 341.048 495.146 341.654C494.354 342.15 493.619 342.835 492.941 343.708C492.292 344.563 491.84 345.602 491.584 346.823C491.339 347.997 491.352 349.356 491.625 350.9C491.879 352.415 492.531 354.11 493.581 355.983L501.21 368.171L496.062 371.394Z" fill="white"/>
<path d="M524.383 351.722L524.365 351.348L525.491 350.514C526.186 349.999 526.091 349.144 525.206 347.948L512.449 330.718C511.995 330.279 511.479 329.844 510.9 329.411L515.499 329.429L529.222 348.139L524.383 351.722ZM509.232 327.158C508.902 326.713 508.777 326.224 508.857 325.692C508.944 325.111 509.223 324.646 509.696 324.296C510.113 323.987 510.598 323.886 511.151 323.993C511.712 324.052 512.157 324.304 512.486 324.749C512.836 325.222 512.957 325.735 512.85 326.288C512.771 326.82 512.522 327.241 512.105 327.55C511.632 327.9 511.116 328.045 510.556 327.986C510.023 327.907 509.582 327.631 509.232 327.158Z" fill="white"/>
<path d="M529.571 322.369C528.372 321.218 527.441 319.94 526.776 318.534C526.11 317.079 525.759 315.495 525.724 313.783C525.684 311.826 526.16 309.98 527.153 308.247C528.169 306.488 529.433 304.823 530.942 303.25C532.117 302.027 533.354 300.888 534.654 299.833C535.929 298.755 537.169 297.763 538.374 296.857L543.009 304.472C542.808 304.231 542.621 304.027 542.446 303.859C542.27 303.643 542.095 303.45 541.92 303.283C540.597 302.013 539.334 301.28 538.13 301.084C536.902 300.864 535.741 300.949 534.648 301.339C533.578 301.703 532.587 302.286 531.673 303.088C530.759 303.841 529.966 304.592 529.296 305.34C528.458 306.262 527.917 307.326 527.673 308.53C527.452 309.709 527.49 310.969 527.787 312.309C528.082 313.6 528.635 314.923 529.446 316.277C530.256 317.582 531.285 318.834 532.533 320.032C533.832 321.278 535.198 322.278 536.633 323.032C538.068 323.786 539.474 324.296 540.85 324.561C542.225 324.778 543.521 324.727 544.738 324.408C545.955 324.09 547.007 323.469 547.894 322.545C548.589 321.821 549.158 320.904 549.6 319.793C550.041 318.634 550.347 317.416 550.516 316.14C550.661 314.84 550.647 313.531 550.473 312.213C550.323 310.87 549.992 309.64 549.48 308.525L554.36 313.785C553.777 315.192 553.082 316.54 552.276 317.829C551.495 319.094 550.588 320.263 549.558 321.336C548.192 322.759 546.661 323.904 544.966 324.771C543.294 325.613 541.406 326.055 539.302 326.098C537.394 326.137 535.601 325.831 533.924 325.18C532.27 324.504 530.819 323.567 529.571 322.369Z" fill="white"/>
<path d="M550.778 289.149C549.395 287.998 548.303 286.686 547.504 285.211C546.7 283.688 546.2 282.124 546.003 280.521C545.829 278.89 545.964 277.293 546.41 275.728C546.829 274.142 547.581 272.696 548.665 271.393C549.793 270.035 551.187 269.035 552.848 268.39C554.483 267.724 556.177 267.31 557.931 267.148C558.126 267.13 558.303 267.188 558.463 267.321C558.649 267.475 558.767 267.686 558.816 267.952C558.861 268.169 558.794 268.384 558.617 268.596L549.657 279.373C549.68 279.617 549.702 279.861 549.725 280.104C549.72 280.326 549.718 280.572 549.719 280.842C549.951 282.836 550.487 284.654 551.327 286.297C552.162 287.891 553.178 289.186 554.375 290.181C556.264 291.752 558.204 292.397 560.193 292.116C562.177 291.785 563.933 290.702 565.459 288.866C566.654 287.429 567.474 285.929 567.92 284.364C568.339 282.777 568.51 281.164 568.433 279.525C568.329 277.864 568.03 276.22 567.537 274.594C567.065 272.942 566.501 271.348 565.843 269.811L566.442 270.309C567.826 271.459 568.919 272.796 569.723 274.319C570.522 275.794 571.02 277.333 571.217 278.937C571.414 280.541 571.303 282.136 570.884 283.723C570.438 285.287 569.684 286.708 568.622 287.985C567.538 289.289 566.268 290.303 564.811 291.027C563.327 291.729 561.768 292.143 560.133 292.268C558.52 292.368 556.905 292.172 555.287 291.682C553.665 291.144 552.162 290.299 550.778 289.149ZM549.617 278.935L558.079 268.757C558.278 268.517 558.316 268.256 558.191 267.972C558.04 267.667 557.794 267.53 557.453 267.561C556.199 267.554 555.127 267.787 554.237 268.262C553.369 268.711 552.648 269.281 552.073 269.973C551.365 270.825 550.849 271.769 550.527 272.806C550.178 273.821 549.936 274.789 549.799 275.711C549.628 276.784 549.567 277.858 549.617 278.935Z" fill="white"/>
<path d="M576.715 260.531L572.784 255.629C572.931 255.78 573.087 255.918 573.255 256.041C573.422 256.164 573.575 256.277 573.714 256.38C574.744 257.14 575.695 257.541 576.568 257.583C577.44 257.625 578.235 257.48 578.952 257.15C579.662 256.771 580.292 256.267 580.841 255.64C581.39 255.013 581.87 254.421 582.281 253.864C582.746 253.175 582.983 252.447 582.991 251.679C583.019 250.882 582.875 250.088 582.557 249.294C582.24 248.501 581.763 247.719 581.127 246.948C580.464 246.157 579.697 245.419 578.826 244.734L578.074 244.179C577.838 244.091 577.623 243.975 577.428 243.831C577.205 243.666 576.986 243.526 576.771 243.41C574.956 242.372 573.229 241.828 571.588 241.778C569.919 241.708 568.63 242.348 567.72 243.698C567.186 244.421 566.84 245.327 566.682 246.415C566.517 247.455 566.518 248.531 566.686 249.644C566.71 250.135 566.793 250.605 566.935 251.054C567.07 251.454 567.218 251.865 567.381 252.286L566.352 252.107C565.214 251.784 564.186 251.283 563.267 250.605C562.376 249.947 561.636 249.143 561.048 248.192C560.431 247.221 560.035 246.155 559.86 244.993C559.656 243.638 559.816 242.315 560.339 241.024C560.862 239.732 561.575 238.474 562.48 237.249C563.199 236.274 563.963 235.355 564.774 234.491C565.584 233.626 566.356 232.841 567.092 232.137L571.053 236.996C570.907 236.845 570.764 236.718 570.625 236.616C570.485 236.513 570.346 236.41 570.207 236.307C569.149 235.526 568.184 235.115 567.311 235.073C566.411 235.011 565.606 235.169 564.896 235.549C564.158 235.907 563.515 236.4 562.966 237.027C562.389 237.634 561.909 238.226 561.526 238.803C560.623 240.201 560.513 241.69 561.197 243.27C561.88 244.85 563.12 246.346 564.917 247.758C565.412 246.446 566.029 245.289 566.769 244.286C567.9 242.755 569.313 241.626 571.01 240.9C572.68 240.154 574.471 239.971 576.384 240.351L577.455 240.56C578.565 240.863 579.593 241.364 580.54 242.063C581.43 242.721 582.184 243.535 582.801 244.506C583.438 245.449 583.82 246.505 583.946 247.674C584.15 249.029 583.991 250.352 583.468 251.644C582.945 252.935 582.231 254.193 581.327 255.418C580.608 256.393 579.843 257.312 579.033 258.177C578.223 259.041 577.45 259.826 576.715 260.531Z" fill="white"/>
<path d="M292.936 367.018C292.894 367.498 292.892 368.094 292.929 368.806C292.967 369.517 293.119 370.034 293.385 370.357C293.588 370.571 293.814 370.74 294.063 370.861C294.374 371.013 294.707 371.002 295.061 370.829C295.431 370.624 295.828 370.125 296.254 369.332L309.306 342.605C310 342.366 310.648 342.143 311.25 341.937C311.759 341.762 312.245 341.594 312.708 341.435C313.217 341.26 313.549 341.133 313.703 341.055L307.029 354.721C308.585 354.057 310.207 353.732 311.895 353.747C313.628 353.746 315.288 354.133 316.874 354.908C318.397 355.652 319.676 356.661 320.709 357.936C321.758 359.18 322.521 360.573 323 362.117C323.51 363.675 323.696 365.306 323.557 367.01C323.464 368.698 323.023 370.35 322.233 371.967C321.444 373.584 320.404 374.963 319.115 376.105C317.872 377.231 316.479 378.072 314.937 378.628C313.425 379.2 311.849 379.47 310.208 379.439C308.583 379.377 307.008 378.974 305.484 378.229C303.898 377.455 302.565 376.4 301.485 375.063C300.451 373.711 299.717 372.217 299.284 370.58L299.079 371C298.775 371.622 298.416 372.12 298.002 372.496C297.634 372.855 297.195 373.122 296.686 373.297C296.208 373.488 295.627 373.416 294.943 373.082C294.259 372.747 293.767 372.334 293.469 371.842C293.17 371.349 292.964 370.825 292.85 370.269C292.783 369.697 292.77 369.132 292.811 368.574C292.868 367.986 292.909 367.467 292.936 367.018ZM299.398 370.347L299.613 370.972C299.931 371.897 300.41 372.69 301.051 373.349C301.707 373.978 302.486 374.512 303.387 374.953C304.973 375.727 306.695 376.106 308.552 376.088C310.455 376.055 312.294 375.72 314.068 375.085C315.873 374.464 317.505 373.567 318.964 372.392C320.47 371.202 321.602 369.829 322.361 368.275C322.847 367.28 323.124 366.279 323.192 365.272C323.306 364.25 323.197 363.252 322.862 362.28C322.514 361.417 322.004 360.648 321.332 359.973C320.691 359.314 319.92 358.764 319.018 358.323C317.525 357.594 315.82 357.224 313.9 357.211C312.027 357.182 310.065 357.533 308.014 358.264C306.934 358.661 305.972 359.25 305.128 360.032C304.284 360.814 303.612 361.718 303.111 362.744L299.398 370.347Z" fill="white"/>
<path d="M16.3884 68.9266L67.0287 193.713C75.9683 173.73 83.488 156.903 89.588 143.231C95.7932 129.558 100.894 118.305 104.891 109.47C108.887 100.531 111.99 93.642 114.198 88.8041C116.407 83.9662 117.984 80.3903 118.931 78.0766C119.983 75.7628 120.614 74.343 120.824 73.8171C121.034 73.1861 121.14 72.6602 121.14 72.2395C121.14 71.3982 120.824 70.8197 120.193 70.5042C119.562 70.0835 118.826 69.8732 117.984 69.8732H112.147V68.9266H129.974L180.614 193.713L233.936 74.4481C234.673 72.7654 234.778 71.6085 234.252 70.9775C233.726 70.2413 232.885 69.8732 231.728 69.8732H225.733V68.9266H243.56V69.8732C241.877 69.8732 240.352 70.0835 238.985 70.5042C237.617 70.9249 236.198 72.4499 234.725 75.0792L181.245 195.133H157.582V193.871H163.576C165.154 193.871 166.206 193.608 166.732 193.082C167.257 192.451 167.257 191.767 166.732 191.031L121.14 74.7637L67.6597 194.975L43.996 195.133V193.871H49.9908C51.6736 193.871 52.7253 193.608 53.146 193.082C53.5667 192.451 53.6192 191.767 53.3037 191.031L8.50053 76.9723C7.76433 75.3947 6.87037 73.9223 5.81865 72.555C4.76693 71.0826 3.3997 69.8732 1.71695 68.9266H16.3884ZM227.261 195.133L227.892 194.186H232.152C234.781 194.186 236.096 191.925 236.096 187.403V122.249C235.78 120.356 235.307 118.357 234.676 116.254L245.877 124.615L245.561 195.133H227.261ZM234.676 107.735C234.676 106.052 235.254 104.632 236.411 103.476C237.673 102.213 239.198 101.582 240.986 101.582C242.564 101.582 243.931 102.213 245.088 103.476C246.35 104.632 246.981 106.052 246.981 107.735C246.981 109.523 246.35 110.995 245.088 112.152C243.931 113.309 242.564 113.888 240.986 113.888C239.198 113.888 237.673 113.309 236.411 112.152C235.254 110.995 234.676 109.523 234.676 107.735ZM262.541 181.25C262.857 181.881 263.225 182.617 263.645 183.459C264.066 184.3 264.487 185.141 264.907 185.983C265.433 186.824 265.959 187.613 266.485 188.349C267.116 188.98 267.694 189.401 268.22 189.611C268.851 189.927 269.535 190.137 270.271 190.242C271.113 190.242 271.849 190.085 272.48 189.769C273.111 189.348 273.637 188.612 274.057 187.56C274.478 186.509 274.688 185.036 274.688 183.143V126.193C276.266 124.615 277.738 123.195 279.106 121.933C280.262 120.776 281.367 119.672 282.418 118.62C283.575 117.463 284.312 116.675 284.627 116.254V128.717C287.993 124.825 291.989 121.775 296.617 119.567C301.349 117.358 306.398 116.254 311.761 116.254C317.546 116.254 322.647 117.516 327.064 120.04C331.586 122.564 335.373 125.877 338.422 129.979C339.369 131.241 340.105 132.976 340.631 135.185C341.262 137.393 341.735 139.865 342.051 142.599C342.472 145.229 342.735 148.016 342.84 150.961C343.05 153.8 343.155 156.535 343.155 159.164L342.997 194.66C342.997 194.975 342.892 195.133 342.682 195.133H325.171V194.344H329.115C330.377 194.344 331.271 193.923 331.797 193.082C332.428 192.135 332.796 190.085 332.901 186.929C333.111 183.669 333.164 178.989 333.059 172.889C333.059 166.684 333.059 158.375 333.059 147.963C333.059 142.705 332.428 138.13 331.166 134.238C330.009 130.347 328.431 127.139 326.433 124.615C324.435 122.091 322.121 120.198 319.492 118.936C316.967 117.674 314.286 117.043 311.446 117.043C308.291 117.043 305.136 117.832 301.98 119.409C298.93 120.882 296.143 123.143 293.619 126.193C291.095 129.137 288.992 132.871 287.309 137.393C285.731 141.811 284.837 146.912 284.627 152.696V183.774C284.627 183.985 284.575 184.721 284.469 185.983C284.469 187.14 284.206 188.402 283.681 189.769C283.26 191.136 282.418 192.398 281.156 193.555C280 194.607 278.317 195.133 276.108 195.133C273.794 195.133 271.901 194.66 270.429 193.713C268.956 192.766 267.694 191.61 266.643 190.242C265.696 188.77 264.907 187.245 264.276 185.667C263.645 183.985 263.067 182.512 262.541 181.25ZM350.972 155.693C350.972 150.224 351.918 145.124 353.811 140.391C355.81 135.553 358.491 131.346 361.857 127.77C365.328 124.194 369.324 121.407 373.846 119.409C378.369 117.306 383.207 116.254 388.36 116.254C393.724 116.254 398.772 117.569 403.505 120.198C408.238 122.722 412.497 125.877 416.283 129.663C416.704 130.084 416.914 130.61 416.914 131.241C416.914 131.977 416.651 132.661 416.126 133.292C415.705 133.818 415.074 134.081 414.232 134.081H371.638C371.112 134.606 370.586 135.132 370.06 135.658C369.534 136.079 368.956 136.552 368.325 137.078C364.118 141.495 360.91 146.28 358.702 151.434C356.598 156.482 355.547 161.373 355.547 166.105C355.547 173.573 357.808 179.357 362.33 183.459C366.958 187.455 372.9 189.454 380.157 189.454C385.836 189.454 390.937 188.454 395.459 186.456C399.982 184.353 404.083 181.618 407.764 178.253C411.445 174.782 414.706 170.891 417.545 166.579C420.49 162.267 423.119 157.849 425.433 153.327V155.693C425.433 161.162 424.434 166.316 422.436 171.154C420.543 175.886 417.913 180.041 414.548 183.616C411.182 187.192 407.239 190.032 402.716 192.135C398.194 194.134 393.408 195.133 388.36 195.133C383.207 195.133 378.369 194.134 373.846 192.135C369.324 190.032 365.328 187.192 361.857 183.616C358.491 180.041 355.81 175.886 353.811 171.154C351.918 166.316 350.972 161.162 350.972 155.693ZM372.584 133.134H412.813C413.759 133.134 414.443 132.713 414.864 131.872C415.284 130.925 415.126 130.084 414.39 129.348C411.971 126.403 409.342 124.352 406.502 123.195C403.768 122.038 401.033 121.46 398.299 121.46C394.933 121.46 391.726 122.091 388.676 123.353C385.626 124.51 382.891 125.825 380.472 127.297C377.633 128.98 375.003 130.925 372.584 133.134Z" fill="white"/>
<path d="M106.356 264.881C106.356 257.253 107.766 249.834 110.588 242.624C113.409 235.414 117.693 228.936 123.44 223.189C126.784 219.845 130.493 217.129 134.568 215.039C138.643 212.844 142.98 211.068 147.577 209.71C152.175 208.351 156.981 207.411 161.997 206.888C167.117 206.366 172.237 206.105 177.357 206.105C185.507 206.105 193.605 206.627 201.651 207.672C209.697 208.613 217.273 209.658 224.378 210.807L213.093 252.185C213.511 249.782 213.72 247.117 213.72 244.192C213.72 235.519 212.048 228.727 208.704 223.816C205.465 218.905 201.338 215.248 196.322 212.844C191.411 210.337 186.082 208.822 180.335 208.299C174.693 207.672 169.468 207.411 164.662 207.515C158.706 207.62 152.854 209.292 147.107 212.531C141.465 215.77 136.397 220.159 131.904 225.697C127.515 231.13 123.962 237.504 121.246 244.819C118.633 252.028 117.327 259.813 117.327 268.172C117.327 276.741 118.738 284.786 121.559 292.31C124.485 299.833 128.247 306.416 132.844 312.058C137.546 317.596 142.875 321.985 148.831 325.224C154.787 328.463 160.848 330.083 167.013 330.083C171.819 330.083 177.044 329.038 182.686 326.948C188.329 324.858 193.71 321.985 198.83 318.328C204.055 314.566 208.652 310.125 212.623 305.005C216.593 299.885 219.258 294.295 220.616 288.235L218.579 322.56C211.682 325.276 204.681 327.471 197.576 329.143C190.575 330.71 183.522 331.494 176.417 331.494C167.117 331.494 158.183 329.979 149.615 326.948C141.047 323.814 133.158 318.641 125.948 311.431C119.365 304.849 114.454 297.534 111.215 289.488C107.975 281.443 106.356 273.24 106.356 264.881ZM232.173 292.31C232.173 286.876 233.114 281.808 234.994 277.106C236.98 272.3 239.644 268.12 242.988 264.567C246.436 261.015 250.407 258.246 254.9 256.26C259.393 254.171 264.2 253.126 269.32 253.126C274.649 253.126 279.664 254.432 284.366 257.044C289.068 259.552 293.3 262.687 297.062 266.448C297.48 266.866 297.689 267.389 297.689 268.016C297.689 268.747 297.428 269.426 296.905 270.053C296.487 270.576 295.86 270.837 295.024 270.837H252.706C252.183 271.359 251.661 271.882 251.138 272.404C250.616 272.822 250.041 273.292 249.414 273.815C245.234 278.203 242.047 282.958 239.853 288.078C237.763 293.093 236.718 297.952 236.718 302.654C236.718 310.073 238.965 315.82 243.458 319.895C248.056 323.866 253.959 325.851 261.169 325.851C266.812 325.851 271.88 324.858 276.373 322.873C280.866 320.783 284.941 318.067 288.598 314.723C292.255 311.275 295.494 307.409 298.316 303.124C301.241 298.84 303.854 294.452 306.153 289.959V292.31C306.153 297.743 305.16 302.863 303.175 307.67C301.294 312.372 298.681 316.499 295.338 320.052C291.994 323.605 288.076 326.426 283.583 328.516C279.089 330.501 274.335 331.494 269.32 331.494C264.2 331.494 259.393 330.501 254.9 328.516C250.407 326.426 246.436 323.605 242.988 320.052C239.644 316.499 236.98 312.372 234.994 307.67C233.114 302.863 232.173 297.743 232.173 292.31ZM253.646 269.896H293.614C294.554 269.896 295.233 269.478 295.651 268.642C296.069 267.702 295.912 266.866 295.181 266.135C292.778 263.209 290.165 261.171 287.344 260.022C284.627 258.873 281.911 258.298 279.194 258.298C275.85 258.298 272.663 258.925 269.633 260.179C266.603 261.328 263.886 262.634 261.483 264.097C258.662 265.769 256.049 267.702 253.646 269.896ZM314.062 331.494L314.532 330.71H318.764C320.227 330.71 321.219 330.083 321.742 328.829C322.264 327.575 322.525 325.903 322.525 323.814L322.682 227.578C322.682 225.592 322.264 223.607 321.428 221.622L332.4 229.929L332.243 331.494H314.062ZM340.235 331.494L340.705 330.71H344.937C346.4 330.71 347.393 330.083 347.915 328.829C348.438 327.575 348.699 325.903 348.699 323.814L348.856 227.578C348.856 225.592 348.438 223.607 347.602 221.622L358.573 229.929L358.417 331.494H340.235ZM401.518 253.126C404.862 253.126 407.892 253.648 410.609 254.693C413.43 255.738 415.833 257.201 417.818 259.082C419.804 260.962 421.319 263.209 422.364 265.821C423.409 268.329 423.931 271.098 423.931 274.128V319.582C424.036 322.298 424.454 324.179 425.185 325.224C425.916 326.165 426.805 326.635 427.85 326.635C429.939 326.635 431.559 325.694 432.708 323.814C433.962 321.933 435.059 319.895 436 317.701C435.477 318.955 434.903 320.418 434.276 322.089C433.649 323.657 432.813 325.172 431.768 326.635C430.827 327.993 429.626 329.143 428.163 330.083C426.7 331.023 424.819 331.494 422.52 331.494C420.326 331.494 418.654 330.919 417.505 329.77C416.356 328.62 415.52 327.314 414.997 325.851C414.37 324.284 414.057 322.455 414.057 320.365V301.4C413.43 305.371 412.176 309.185 410.295 312.842C408.414 316.395 406.168 319.582 403.555 322.403C401.048 325.12 398.331 327.314 395.405 328.986C392.479 330.658 389.606 331.494 386.785 331.494C383.232 331.494 380.15 330.867 377.537 329.613C374.925 328.254 372.783 326.583 371.111 324.597C369.544 322.507 368.342 320.156 367.506 317.544C366.775 314.932 366.409 312.372 366.409 309.864C366.409 305.058 367.506 301.244 369.7 298.422C371.895 295.497 374.82 293.093 378.478 291.212C382.239 289.332 386.471 287.712 391.173 286.354C395.98 284.891 400.943 283.219 406.063 281.338C408.675 280.502 410.661 279.196 412.019 277.42C413.378 275.643 414.057 273.501 414.057 270.994C414.057 268.799 413.848 266.657 413.43 264.567C413.116 262.478 412.489 260.649 411.549 259.082C410.713 257.41 409.511 256.104 407.944 255.163C406.481 254.118 404.496 253.596 401.988 253.596C396.868 253.596 392.741 254.275 389.606 255.633C386.576 256.992 384.172 258.611 382.396 260.492C380.62 262.373 379.366 264.306 378.634 266.291C377.903 268.172 377.328 269.687 376.91 270.837L366.409 272.874C367.349 272.038 368.185 270.576 368.917 268.486C369.753 266.291 371.216 264.097 373.305 261.903C375.5 259.604 378.739 257.566 383.023 255.79C387.412 254.014 393.577 253.126 401.518 253.126ZM377.537 307.043C377.537 309.028 377.798 311.066 378.321 313.156C378.843 315.245 379.679 317.126 380.829 318.798C381.978 320.365 383.441 321.672 385.217 322.716C387.098 323.761 389.345 324.284 391.957 324.284C394.987 324.284 397.861 323.343 400.577 321.463C403.294 319.582 405.75 317.178 407.944 314.253C410.034 311.849 411.549 309.185 412.489 306.259C413.534 303.229 414.057 300.199 414.057 297.168V274.285C413.221 276.688 411.862 278.674 409.982 280.241C408.205 281.704 406.168 283.01 403.869 284.159C401.675 285.204 399.324 286.145 396.816 286.981C394.308 287.817 391.905 288.757 389.606 289.802C387.307 290.742 385.217 291.892 383.336 293.25C381.56 294.504 380.202 296.124 379.261 298.109C378.112 300.617 377.537 303.595 377.537 307.043ZM439.114 331.494L439.741 330.71H443.973C445.435 330.71 446.428 330.083 446.95 328.829C447.577 327.575 447.891 325.903 447.891 323.814V259.082C447.786 257.201 447.368 255.215 446.637 253.126L457.452 261.433V265.665C460.796 261.798 464.766 258.768 469.364 256.574C474.066 254.275 479.081 253.126 484.41 253.126C487.336 253.126 490.419 253.648 493.658 254.693C497.002 255.633 500.084 256.94 502.905 258.611C505.727 260.179 508.025 262.007 509.802 264.097C511.682 266.187 512.623 268.329 512.623 270.523C512.623 272.091 512.257 273.554 511.526 274.912C510.899 276.27 509.958 276.95 508.704 276.95C506.615 276.95 505.047 276.27 504.002 274.912C503.062 273.449 502.226 271.829 501.495 270.053C500.763 268.172 500.136 266.291 499.614 264.411C499.196 262.53 498.882 261.328 498.673 260.806C497.837 259.029 496.113 257.462 493.501 256.104C490.889 254.641 487.859 253.909 484.41 253.909C481.589 253.909 478.611 254.484 475.476 255.633C472.446 256.783 469.625 258.716 467.013 261.433C464.505 264.045 462.363 267.545 460.587 271.934C458.81 276.218 457.765 281.599 457.452 288.078V331.494H439.114Z" fill="white"/>
</svg>
