<?xml version="1.0" encoding="UTF-8" standalone="no"?>
<!DOCTYPE svg PUBLIC "-//W3C//DTD SVG 1.1//EN" "http://www.w3.org/Graphics/SVG/1.1/DTD/svg11.dtd">
<svg width="100%" height="100%" viewBox="0 0 200 200" version="1.1" xmlns="http://www.w3.org/2000/svg" xmlns:xlink="http://www.w3.org/1999/xlink" xml:space="preserve" xmlns:serif="http://www.serif.com/" style="fill-rule:evenodd;clip-rule:evenodd;stroke-linejoin:round;stroke-miterlimit:2;">
    <g transform="matrix(9.75605,0,0,9.75605,12.1956,-7.31644)">
        <g id="Layer35">
            <path d="M6.4,1.05C6.649,0.719 7.119,0.651 7.45,0.9L9.45,2.4C9.781,2.649 9.849,3.119 9.6,3.45L8.1,5.45C7.851,5.781 7.381,5.849 7.05,5.6C6.719,5.351 6.651,4.881 6.9,4.55L7.36,3.936C4.146,4.679 1.75,7.56 1.75,11C1.75,13.683 3.207,16.026 5.376,17.281C5.734,17.488 5.857,17.947 5.649,18.305C5.442,18.664 4.983,18.786 4.624,18.579C2.011,17.067 0.25,14.24 0.25,11C0.25,6.84 3.153,3.359 7.043,2.47L6.55,2.1C6.219,1.851 6.151,1.381 6.4,1.05ZM12.351,3.695C12.558,3.336 13.017,3.214 13.376,3.421C15.989,4.933 17.75,7.76 17.75,11C17.75,15.16 14.847,18.641 10.957,19.53L11.45,19.9C11.781,20.148 11.849,20.619 11.6,20.95C11.352,21.281 10.881,21.349 10.55,21.1L8.55,19.6C8.26,19.383 8.167,18.989 8.329,18.665L9.329,16.665C9.514,16.294 9.965,16.144 10.335,16.329C10.706,16.514 10.856,16.965 10.671,17.335L10.269,18.139C13.668,17.539 16.25,14.571 16.25,11C16.25,8.317 14.793,5.974 12.625,4.719C12.266,4.512 12.143,4.053 12.351,3.695Z" style="fill:white;"/>
        </g>
    </g>
</svg>
