<?xml version="1.0" encoding="UTF-8" standalone="no"?>
<!DOCTYPE svg PUBLIC "-//W3C//DTD SVG 1.1//EN" "http://www.w3.org/Graphics/SVG/1.1/DTD/svg11.dtd">
<svg width="100%" height="100%" viewBox="0 0 200 200" version="1.1" xmlns="http://www.w3.org/2000/svg" xmlns:xlink="http://www.w3.org/1999/xlink" xml:space="preserve" xmlns:serif="http://www.serif.com/" style="fill-rule:evenodd;clip-rule:evenodd;stroke-linejoin:round;stroke-miterlimit:2;">
    <g id="Layer35">
        <path d="M88.112,89.424L80.625,119.375L110.575,111.888C112.64,111.371 114.522,110.306 116.027,108.801L189.22,35.608C193.803,31.026 193.803,23.595 189.219,19.013C189.22,19.014 180.987,10.779 180.987,10.779C176.404,6.197 168.975,6.197 164.392,10.779L91.199,83.973C89.695,85.477 88.628,87.361 88.112,89.424ZM107.04,99.285L179.014,27.31L172.689,20.986L100.715,92.96L98.607,101.393L107.04,99.285ZM100,-0L27.31,-0C12.227,-0 0,12.227 0,27.31C0,27.31 0,172.69 0,172.69C0,187.773 12.227,200 27.31,200L172.69,200C187.773,200 200,187.773 200,172.69L200,100L186.916,100L186.916,172.69C186.916,180.547 180.547,186.916 172.69,186.916C172.69,186.916 27.31,186.916 27.31,186.916C19.453,186.916 13.084,180.547 13.084,172.69L13.084,27.31C13.084,19.453 19.453,13.084 27.31,13.084L100,13.084L100,-0Z" style="fill:white;"/>
    </g>
</svg>
