<?xml version="1.0" encoding="UTF-8" standalone="no"?>
<!DOCTYPE svg PUBLIC "-//W3C//DTD SVG 1.1//EN" "http://www.w3.org/Graphics/SVG/1.1/DTD/svg11.dtd">
<svg width="100%" height="100%" viewBox="0 0 200 200" version="1.1" xmlns="http://www.w3.org/2000/svg" xmlns:xlink="http://www.w3.org/1999/xlink" xml:space="preserve" xmlns:serif="http://www.serif.com/" style="fill-rule:evenodd;clip-rule:evenodd;stroke-linejoin:round;stroke-miterlimit:2;">
    <g transform="matrix(0.442003,0,0,0.439336,-965.574,-126.816)">
        <g id="Layer35">
            <path d="M2388.05,296.421L2388.05,293.653C2388.05,290.891 2390.29,288.653 2393.05,288.653C2401.8,288.653 2419.77,288.653 2428.51,288.653C2431.27,288.653 2433.51,290.891 2433.51,293.653L2433.51,296.421C2434.68,296.522 2435.78,297.032 2436.62,297.867C2437.55,298.805 2438.08,300.077 2438.08,301.403C2438.08,304.897 2438.08,309.543 2438.08,313.037C2438.08,314.363 2437.55,315.635 2436.62,316.573C2435.78,317.409 2434.68,317.918 2433.51,318.019L2433.51,404.406C2459.3,413.723 2477.74,438.425 2477.74,467.403L2477.74,728.885C2477.74,732.863 2476.16,736.678 2473.35,739.491C2470.53,742.304 2466.72,743.885 2462.74,743.885C2436.97,743.885 2384.59,743.885 2358.82,743.885C2354.84,743.885 2351.03,742.304 2348.22,739.491C2345.4,736.678 2343.82,732.863 2343.82,728.885L2343.82,467.403C2344,438.611 2362.4,413.841 2388.05,404.458L2388.05,318.019C2386.89,317.918 2385.78,317.409 2384.95,316.573C2384.01,315.635 2383.48,314.363 2383.48,313.037C2383.48,309.543 2383.48,304.897 2383.48,301.403C2383.48,300.077 2384.01,298.805 2384.95,297.867C2385.78,297.032 2386.89,296.522 2388.05,296.421ZM2410.78,430.052L2422.8,434.396C2436.33,439.284 2446.07,452.201 2446.07,467.403L2446.07,712.019L2375.5,712.019L2375.5,467.533C2375.62,452.367 2385.36,439.351 2398.88,434.406L2410.78,430.052Z" style="fill:white;"/>
        </g>
    </g>
</svg>
