<?xml version="1.0" encoding="UTF-8" standalone="no"?>
<!DOCTYPE svg PUBLIC "-//W3C//DTD SVG 1.1//EN" "http://www.w3.org/Graphics/SVG/1.1/DTD/svg11.dtd">
<svg width="100%" height="100%" viewBox="0 0 200 200" version="1.1" xmlns="http://www.w3.org/2000/svg" xmlns:xlink="http://www.w3.org/1999/xlink" xml:space="preserve" xmlns:serif="http://www.serif.com/" style="fill-rule:evenodd;clip-rule:evenodd;stroke-linejoin:round;stroke-miterlimit:2;">
    <g transform="matrix(0.972371,0,0,0.972371,2.7629,7.4204)">
        <g id="Layer35">
            <path d="M44.764,28.073L4.79,28.073L4.79,43.335L20.961,43.335L20.961,166.618C20.961,183.979 35.035,198.052 52.395,198.052L147.605,198.052C164.966,198.052 179.039,183.979 179.039,166.618L179.039,43.335L195.21,43.335L195.21,28.073L155.236,28.073L155.236,23.803C155.236,6.442 141.163,-7.631 123.803,-7.631L76.197,-7.631C58.837,-7.631 44.764,6.442 44.764,23.803L44.764,28.073ZM36.224,43.335L163.776,43.335C163.776,43.335 163.776,166.618 163.776,166.618C163.776,175.549 156.536,182.789 147.605,182.789C147.605,182.789 52.395,182.789 52.395,182.789C43.464,182.789 36.224,175.549 36.224,166.618L36.224,43.335ZM128.073,71.408L128.073,154.717L143.335,154.717L143.335,71.408L128.073,71.408ZM92.369,71.408L92.369,154.717L107.631,154.717L107.631,71.408L92.369,71.408ZM56.665,71.408L56.665,154.717L71.927,154.717L71.927,71.408L56.665,71.408ZM139.974,28.073L60.026,28.073L60.026,23.803C60.026,14.871 67.266,7.631 76.197,7.631L123.803,7.631C132.734,7.631 139.974,14.871 139.974,23.803L139.974,28.073Z" style="fill:white;"/>
        </g>
    </g>
</svg>
