<?xml version="1.0" encoding="UTF-8" standalone="no"?>
<!DOCTYPE svg PUBLIC "-//W3C//DTD SVG 1.1//EN" "http://www.w3.org/Graphics/SVG/1.1/DTD/svg11.dtd">
<svg width="100%" height="100%" viewBox="0 0 200 200" version="1.1" xmlns="http://www.w3.org/2000/svg" xmlns:xlink="http://www.w3.org/1999/xlink" xml:space="preserve" xmlns:serif="http://www.serif.com/" style="fill-rule:evenodd;clip-rule:evenodd;stroke-linejoin:round;stroke-miterlimit:2;">
    <g id="Layer35">
        <path d="M31.707,24.39C24.972,24.39 19.512,29.85 19.512,36.585L19.512,136.585L51.22,136.585C60.649,136.585 68.293,144.229 68.293,153.659C68.293,155.006 69.385,156.098 70.732,156.098L129.268,156.098C130.616,156.098 131.707,155.006 131.707,153.659C131.707,144.229 139.351,136.585 148.78,136.585L180.488,136.585L180.488,36.585C180.488,29.85 175.028,24.39 168.293,24.39L139.024,24.39C134.983,24.39 131.707,21.114 131.707,17.073C131.707,13.032 134.983,9.756 139.024,9.756L168.293,9.756C183.11,9.756 195.122,21.768 195.122,36.585L195.122,173.171C195.122,187.988 183.11,200 168.293,200L31.707,200C16.89,200 4.878,187.988 4.878,173.171L4.878,36.585C4.878,21.768 16.89,9.756 31.707,9.756L60.976,9.756C65.017,9.756 68.293,13.032 68.293,17.073C68.293,21.114 65.017,24.39 60.976,24.39L31.707,24.39ZM180.488,151.22L148.78,151.22C147.433,151.22 146.341,152.311 146.341,153.659C146.341,163.088 138.698,170.732 129.268,170.732L70.732,170.732C61.302,170.732 53.659,163.088 53.659,153.659C53.659,152.311 52.567,151.22 51.22,151.22L19.512,151.22L19.512,173.171C19.512,179.906 24.972,185.366 31.707,185.366L168.293,185.366C175.028,185.366 180.488,179.906 180.488,173.171L180.488,151.22ZM100,131.707C104.042,131.707 107.317,128.431 107.317,124.39L107.317,29.268L113.659,37.724C116.084,40.956 120.67,41.612 123.902,39.187C127.136,36.762 127.791,32.176 125.366,28.943L105.854,2.927C104.472,1.084 102.303,0 100,0C97.697,0 95.529,1.084 94.147,2.927L74.635,28.943C72.21,32.176 72.865,36.762 76.098,39.187C79.331,41.612 83.917,40.956 86.342,37.724L92.683,29.268L92.683,124.39C92.683,128.431 95.959,131.707 100,131.707Z" style="fill:white;"/>
    </g>
</svg>
