<?xml version="1.0" encoding="UTF-8" standalone="no"?>
<!DOCTYPE svg PUBLIC "-//W3C//DTD SVG 1.1//EN" "http://www.w3.org/Graphics/SVG/1.1/DTD/svg11.dtd">
<svg width="100%" height="100%" viewBox="0 0 350 350" version="1.1" xmlns="http://www.w3.org/2000/svg" xmlns:xlink="http://www.w3.org/1999/xlink" xml:space="preserve" xmlns:serif="http://www.serif.com/" style="fill-rule:evenodd;clip-rule:evenodd;stroke-linejoin:round;stroke-miterlimit:2;">
    <g transform="matrix(1,0,0,1,-6483,-481.314)">
        <g id="new-wine-circle-text" transform="matrix(0.984149,0,0,1.00721,101.974,481.314)">
            <rect x="6483.8" y="0" width="355.637" height="347.495" style="fill:none;"/>
            <g>
                <g transform="matrix(0.0676384,0,0,0.062165,6088.2,185.129)">
                    <ellipse cx="6635.29" cy="171.513" rx="112.67" ry="119.783" style="fill:white;"/>
                </g>
                <g transform="matrix(0.0676384,0,0,0.062165,6337.58,144.664)">
                    <ellipse cx="6635.29" cy="171.513" rx="112.67" ry="119.783" style="fill:white;"/>
                </g>
                <g>
                    <g transform="matrix(1.12731,0,0,1.03608,-818.384,-3.95489)">
                        <path d="M6547.84,225.721C6548.46,226.851 6548.86,227.987 6549.04,229.129C6549.22,230.271 6549.2,231.363 6548.97,232.405C6548.74,233.447 6548.31,234.396 6547.69,235.254C6547.07,236.112 6546.28,236.84 6545.32,237.437L6530.87,246.399C6530.02,246.97 6529.51,247.477 6529.33,247.92C6529.15,248.363 6529.16,248.761 6529.35,249.114C6529.74,249.821 6530.34,250.191 6531.16,250.227C6531.99,250.262 6532.83,250.222 6533.7,250.107C6533.21,250.178 6532.64,250.267 6532.01,250.375C6531.38,250.482 6530.75,250.507 6530.12,250.45C6529.49,250.392 6528.88,250.209 6528.31,249.9C6527.74,249.591 6527.24,249.048 6526.82,248.271C6526.41,247.53 6526.28,246.851 6526.44,246.236C6526.59,245.621 6526.85,245.081 6527.22,244.616C6527.6,244.095 6528.12,243.628 6528.79,243.216L6534.82,239.477C6533.44,240.048 6532,240.371 6530.51,240.446C6529.01,240.521 6527.59,240.399 6526.23,240.08C6524.88,239.761 6523.66,239.271 6522.59,238.612C6521.51,237.953 6520.71,237.147 6520.19,236.193C6519.53,234.992 6519.17,233.822 6519.1,232.681C6519.03,231.541 6519.17,230.496 6519.52,229.547C6519.86,228.598 6520.38,227.733 6521.07,226.953C6521.75,226.174 6522.49,225.536 6523.29,225.042C6524.82,224.094 6526.24,223.708 6527.56,223.883C6528.88,224.058 6530.19,224.587 6531.47,225.47C6532.76,226.353 6534.06,227.459 6535.4,228.787C6536.73,230.116 6538.16,231.46 6539.71,232.82C6540.46,233.538 6541.24,233.951 6542.06,234.06C6542.88,234.169 6543.69,233.976 6544.48,233.482C6545.18,233.049 6545.83,232.565 6546.42,232.03C6547.02,231.494 6547.49,230.916 6547.84,230.297C6548.19,229.677 6548.39,229.014 6548.42,228.306C6548.45,227.598 6548.24,226.82 6547.78,225.973C6546.82,224.242 6545.85,222.99 6544.85,222.216C6543.84,221.442 6542.88,220.94 6541.95,220.711C6541.02,220.481 6540.18,220.433 6539.43,220.567C6538.68,220.701 6538.09,220.811 6537.64,220.896L6535.05,217.749C6535.49,217.902 6536.12,217.9 6536.95,217.742C6537.77,217.585 6538.74,217.646 6539.85,217.927C6540.97,218.208 6542.21,218.907 6543.57,220.022C6544.94,221.137 6546.36,223.037 6547.84,225.721ZM6526.25,228.247C6525.62,228.638 6525.02,229.128 6524.45,229.717C6523.88,230.305 6523.45,230.954 6523.15,231.662C6522.85,232.369 6522.7,233.135 6522.7,233.959C6522.71,234.783 6522.96,235.637 6523.44,236.52C6524,237.544 6524.84,238.33 6525.94,238.877C6527.04,239.424 6528.26,239.78 6529.6,239.945C6530.75,240.178 6531.89,240.168 6533.02,239.916C6534.15,239.665 6535.2,239.24 6536.16,238.643L6543.44,234.131C6542.52,234.322 6541.65,234.258 6540.83,233.939C6540.01,233.62 6539.21,233.189 6538.45,232.646C6537.68,232.103 6536.93,231.49 6536.2,230.807C6535.47,230.124 6534.74,229.492 6533.99,228.911C6533.25,228.33 6532.5,227.859 6531.75,227.498C6530.99,227.138 6530.21,226.994 6529.41,227.068C6528.4,227.174 6527.35,227.567 6526.25,228.247Z" style="fill:white;fill-rule:nonzero;"/>
                        <path d="M6551.78,271.589C6551.74,271.86 6551.69,272.176 6551.64,272.538C6551.59,272.9 6551.55,273.268 6551.52,273.641C6551.48,274.015 6551.48,274.375 6551.51,274.722C6551.54,275.068 6551.61,275.333 6551.73,275.518C6551.85,275.759 6552.03,275.975 6552.25,276.167C6552.48,276.36 6552.72,276.467 6552.99,276.49C6553.26,276.513 6553.56,276.404 6553.91,276.162C6554.25,275.921 6554.63,275.498 6555.02,274.895L6566.94,256.739C6567.74,256.587 6568.48,256.462 6569.16,256.364C6569.74,256.253 6570.32,256.144 6570.88,256.037C6571.44,255.931 6571.82,255.846 6572,255.782L6569.39,259.755C6571.22,259.263 6573.06,259.186 6574.93,259.523C6576.79,259.86 6578.53,260.626 6580.14,261.819C6581.87,263.106 6583.15,264.649 6583.96,266.448C6584.77,268.247 6585.2,270.14 6585.26,272.126C6585.28,272.739 6585.14,273.462 6584.86,274.295C6584.57,275.127 6584.2,276.012 6583.75,276.949C6583.3,277.886 6582.79,278.833 6582.23,279.79C6581.68,280.747 6581.12,281.645 6580.57,282.483L6573.1,293.764C6573.03,293.864 6572.96,293.891 6572.9,293.844L6567.65,289.948L6567.82,289.697L6569,290.574C6569.38,290.855 6569.75,290.918 6570.11,290.761C6570.47,290.605 6571.01,290.033 6571.73,289.046C6572.44,288.058 6573.44,286.578 6574.71,284.605C6575.98,282.632 6577.71,279.985 6579.89,276.666C6580.99,274.99 6581.76,273.397 6582.22,271.887C6582.67,270.377 6582.86,268.998 6582.79,267.749C6582.72,266.499 6582.43,265.387 6581.92,264.411C6581.41,263.436 6580.73,262.632 6579.88,262C6578.93,261.298 6577.83,260.845 6576.58,260.641C6575.33,260.437 6574.02,260.532 6572.63,260.926C6571.25,261.32 6569.85,262.048 6568.42,263.11C6567,264.172 6565.65,265.602 6564.37,267.399L6557.87,277.307C6557.83,277.374 6557.67,277.595 6557.4,277.968C6557.13,278.342 6556.78,278.695 6556.36,279.025C6555.93,279.356 6555.42,279.562 6554.82,279.645C6554.23,279.728 6553.6,279.524 6552.94,279.033C6552.24,278.518 6551.78,277.946 6551.53,277.317C6551.29,276.687 6551.17,276.035 6551.16,275.36C6551.16,274.685 6551.24,274.018 6551.39,273.358C6551.54,272.698 6551.67,272.108 6551.78,271.589Z" style="fill:white;fill-rule:nonzero;"/>
                        <path d="M6582.2,281.721C6582.9,279.728 6583.89,277.993 6585.17,276.514C6586.45,275.034 6587.9,273.875 6589.53,273.037C6591.15,272.198 6592.87,271.712 6594.69,271.579C6596.5,271.445 6598.28,271.728 6600.05,272.428C6601.89,273.156 6603.45,274.31 6604.75,275.891C6606.04,277.472 6607.09,279.209 6607.91,281.103C6608,281.313 6608,281.533 6607.92,281.763C6607.83,282.031 6607.66,282.238 6607.43,282.385C6607.19,282.531 6606.93,282.548 6606.64,282.433L6592.05,276.652C6591.8,276.772 6591.55,276.883 6591.31,276.984C6591.07,277.085 6590.81,277.189 6590.53,277.295C6588.52,278.333 6586.82,279.635 6585.43,281.2C6584.04,282.766 6583.05,284.411 6582.44,286.135C6581.49,288.855 6581.54,291.263 6582.59,293.359C6583.64,295.455 6585.41,296.995 6587.9,297.98C6589.84,298.751 6591.72,299.07 6593.53,298.937C6595.34,298.803 6597.1,298.364 6598.8,297.618C6600.49,296.873 6602.11,295.911 6603.65,294.733C6605.19,293.554 6606.65,292.298 6608.02,290.965L6607.72,291.827C6607.02,293.819 6606.03,295.555 6604.76,297.034C6603.48,298.513 6602.03,299.676 6600.43,300.522C6598.82,301.368 6597.1,301.857 6595.29,301.991C6593.48,302.124 6591.71,301.848 6589.98,301.163C6588.22,300.463 6586.69,299.433 6585.4,298.072C6584.11,296.711 6583.11,295.148 6582.4,293.381C6581.68,291.614 6581.3,289.727 6581.24,287.72C6581.19,285.713 6581.51,283.713 6582.2,281.721ZM6592.49,276.436L6606.28,281.896C6606.6,282.024 6606.89,281.954 6607.15,281.686C6607.41,281.417 6607.46,281.099 6607.3,280.731C6606.85,279.33 6606.22,278.229 6605.41,277.43C6604.6,276.63 6603.73,276.044 6602.79,275.673C6601.64,275.216 6600.46,275.001 6599.26,275.028C6598.06,275.055 6596.95,275.172 6595.94,275.38C6594.75,275.608 6593.6,275.96 6592.49,276.436Z" style="fill:white;fill-rule:nonzero;"/>
                        <path d="M6608.85,279.249L6613.93,279.228L6624.82,307.455L6635.17,282.511C6635.62,281.446 6635.9,280.771 6636,280.484C6636.09,280.197 6636.14,280.013 6636.14,279.931C6636.14,279.604 6635.92,279.442 6635.5,279.443L6634.23,279.449L6634.23,279.142L6638.21,279.125L6649.1,307.352L6660.37,280.32C6660.48,279.992 6660.51,279.747 6660.45,279.584C6660.39,279.42 6660.17,279.339 6659.79,279.341L6658.52,279.346L6658.52,279.04L6662.56,279.023L6662.56,279.329C6662.17,279.331 6661.78,279.384 6661.37,279.488C6660.97,279.592 6660.67,279.93 6660.48,280.503L6648.48,309.747L6642.94,309.77L6642.94,309.525L6644.32,309.519C6644.75,309.517 6645.01,309.444 6645.1,309.301C6645.2,309.157 6645.21,308.984 6645.13,308.78L6635.34,282.756L6624.14,309.788L6618.65,309.872L6618.65,309.627L6620.04,309.621C6620.42,309.62 6620.66,309.547 6620.76,309.404C6620.85,309.26 6620.86,309.086 6620.78,308.882L6610.41,281.205C6610.1,280.307 6609.58,279.655 6608.85,279.249Z" style="fill:white;fill-rule:nonzero;"/>
                        <path d="M6678.67,272.865L6682.59,269.442L6707.8,284.025L6701.02,257.735C6700.74,256.602 6700.55,255.892 6700.46,255.606C6700.36,255.32 6700.29,255.145 6700.24,255.082C6700.04,254.829 6699.78,254.845 6699.45,255.13L6698.47,255.986L6698.29,255.749L6701.37,253.065L6726.57,267.649L6719.26,239.124C6719.16,238.793 6719.03,238.584 6718.89,238.496C6718.75,238.409 6718.53,238.495 6718.23,238.754L6717.25,239.61L6717.07,239.373L6720.19,236.65L6720.37,236.887C6720.07,237.146 6719.8,237.451 6719.55,237.803C6719.3,238.154 6719.27,238.616 6719.46,239.188L6727.51,269.926L6723.23,273.66L6723.08,273.471L6724.15,272.537C6724.48,272.252 6724.64,272.021 6724.63,271.846C6724.62,271.67 6724.52,271.53 6724.34,271.423L6701.3,257.807L6708.65,286.294L6704.45,290.037L6704.31,289.847L6705.38,288.913C6705.68,288.654 6705.82,288.437 6705.81,288.261C6705.8,288.086 6705.7,287.945 6705.52,287.839L6681.04,273.332C6680.27,272.844 6679.48,272.688 6678.67,272.865Z" style="fill:white;fill-rule:nonzero;"/>
                        <path d="M6739.61,254.186L6739.46,253.773L6740.36,252.42C6740.91,251.584 6740.51,250.66 6739.16,249.647L6719.68,235.058C6719.05,234.735 6718.35,234.438 6717.59,234.167L6722.45,232.48L6743.46,248.37L6739.61,254.186ZM6715.05,232.26C6714.54,231.883 6714.24,231.367 6714.13,230.712C6714.03,230.056 6714.16,229.445 6714.54,228.877C6714.87,228.375 6715.34,228.068 6715.96,227.954C6716.57,227.841 6717.14,227.972 6717.64,228.349C6718.17,228.75 6718.49,229.271 6718.58,229.915C6718.67,230.558 6718.55,231.131 6718.21,231.632C6717.84,232.2 6717.35,232.547 6716.75,232.672C6716.15,232.797 6715.58,232.66 6715.05,232.26Z" style="fill:white;fill-rule:nonzero;"/>
                        <path d="M6743.11,240.556C6743.37,240.545 6743.67,240.533 6744.01,240.519C6744.36,240.506 6744.7,240.482 6745.06,240.45C6745.41,240.417 6745.74,240.353 6746.06,240.258C6746.37,240.163 6746.6,240.04 6746.75,239.887C6746.95,239.714 6747.12,239.493 6747.26,239.222C6747.4,238.951 6747.45,238.674 6747.42,238.392C6747.4,238.109 6747.24,237.809 6746.95,237.491C6746.66,237.173 6746.21,236.863 6745.58,236.559L6726.61,227.417C6726.32,226.606 6726.07,225.856 6725.86,225.17C6725.65,224.574 6725.44,223.993 6725.24,223.424C6725.04,222.856 6724.89,222.482 6724.8,222.303L6728.95,224.304C6728.16,222.487 6727.75,220.573 6727.73,218.562C6727.7,216.55 6728.09,214.595 6728.9,212.696C6729.77,210.648 6730.96,209.035 6732.48,207.857C6733.99,206.68 6735.67,205.88 6737.49,205.459C6738.06,205.326 6738.75,205.335 6739.57,205.485C6740.4,205.634 6741.28,205.859 6742.23,206.159C6743.18,206.46 6744.15,206.814 6745.13,207.222C6746.12,207.631 6747.05,208.046 6747.93,208.468L6759.73,214.221C6759.83,214.272 6759.87,214.334 6759.84,214.409L6757.19,220.609L6756.93,220.482L6757.52,219.086C6757.71,218.639 6757.7,218.242 6757.49,217.893C6757.28,217.545 6756.66,217.085 6755.61,216.515C6754.57,215.944 6753.02,215.174 6750.96,214.205C6748.9,213.236 6746.14,211.916 6742.67,210.245C6740.92,209.401 6739.31,208.88 6737.83,208.684C6736.35,208.488 6735.04,208.541 6733.9,208.843C6732.75,209.145 6731.78,209.651 6730.97,210.361C6730.16,211.071 6729.54,211.929 6729.11,212.934C6728.64,214.051 6728.42,215.281 6728.46,216.625C6728.49,217.968 6728.82,219.327 6729.44,220.702C6730.06,222.077 6730.99,223.411 6732.23,224.706C6733.47,226.001 6735.04,227.15 6736.94,228.153L6747.29,233.141C6747.36,233.175 6747.59,233.298 6747.98,233.511C6748.38,233.724 6748.77,234.024 6749.15,234.411C6749.54,234.798 6749.82,235.294 6750.01,235.899C6750.19,236.505 6750.12,237.199 6749.78,237.981C6749.43,238.8 6748.99,239.394 6748.45,239.764C6747.91,240.133 6747.34,240.381 6746.71,240.506C6746.09,240.632 6745.46,240.676 6744.82,240.638C6744.18,240.6 6743.61,240.572 6743.11,240.556Z" style="fill:white;fill-rule:nonzero;"/>
                        <path d="M6746.93,206.862C6744.95,206.5 6743.17,205.787 6741.57,204.724C6739.96,203.662 6738.62,202.357 6737.55,200.81C6736.47,199.264 6735.71,197.557 6735.25,195.688C6734.79,193.82 6734.73,191.899 6735.05,189.925C6735.38,187.87 6736.16,186.022 6737.39,184.38C6738.61,182.738 6740.02,181.317 6741.62,180.118C6741.8,179.985 6742,179.939 6742.23,179.981C6742.49,180.03 6742.72,180.164 6742.9,180.384C6743.07,180.603 6743.14,180.874 6743.09,181.197L6740.43,197.513C6740.58,197.749 6740.73,197.984 6740.87,198.216C6741.01,198.449 6741.15,198.704 6741.3,198.98C6742.63,200.885 6744.15,202.419 6745.85,203.583C6747.55,204.748 6749.26,205.487 6750.96,205.801C6753.65,206.296 6755.87,205.802 6757.61,204.318C6759.36,202.834 6760.46,200.702 6760.91,197.922C6761.27,195.747 6761.21,193.725 6760.76,191.857C6760.3,189.988 6759.57,188.236 6758.57,186.599C6757.57,184.962 6756.38,183.447 6755.01,182.053C6753.63,180.659 6752.2,179.369 6750.72,178.183L6751.57,178.34C6753.54,178.702 6755.33,179.415 6756.93,180.478C6758.53,181.541 6759.87,182.835 6760.95,184.361C6762.03,185.888 6762.8,187.585 6763.26,189.454C6763.71,191.322 6763.78,193.223 6763.47,195.157C6763.15,197.131 6762.48,198.916 6761.45,200.512C6760.43,202.108 6759.17,203.443 6757.67,204.515C6756.17,205.587 6754.49,206.337 6752.65,206.765C6750.8,207.193 6748.9,207.225 6746.93,206.862ZM6740.15,197.087L6742.66,181.678C6742.72,181.315 6742.6,181.024 6742.3,180.803C6742,180.583 6741.7,180.589 6741.39,180.822C6740.18,181.554 6739.28,182.415 6738.69,183.405C6738.1,184.396 6737.71,185.415 6737.54,186.463C6737.33,187.752 6737.35,189.021 6737.6,190.269C6737.84,191.518 6738.15,192.654 6738.53,193.679C6738.96,194.878 6739.5,196.014 6740.15,197.087Z" style="fill:white;fill-rule:nonzero;"/>
                    </g>
                    <g transform="matrix(1.12731,0,0,1.03608,-818.384,-3.95489)">
                        <path d="M6539.18,165.18L6538.86,164.899L6539.02,163.251C6539.11,162.234 6538.33,161.639 6536.69,161.467L6512.98,158.984C6512.28,159.034 6511.53,159.141 6510.75,159.305L6514.19,155.29L6539.84,158.1L6539.18,165.18ZM6507.65,158.981C6507.03,158.916 6506.53,158.627 6506.13,158.113C6505.74,157.599 6505.57,156.997 6505.63,156.305C6505.69,155.694 6505.96,155.178 6506.44,154.757C6506.93,154.335 6507.47,154.156 6508.09,154.22C6508.74,154.288 6509.25,154.578 6509.63,155.09C6510.01,155.602 6510.17,156.163 6510.11,156.774C6510.05,157.465 6509.78,158.023 6509.32,158.447C6508.85,158.871 6508.3,159.049 6507.65,158.981Z" style="fill:white;fill-rule:nonzero;"/>
                        <path d="M6516.27,148.831L6509.86,140.76L6513.4,141.636L6514.9,134.827C6516.91,136.963 6517.6,139.525 6516.94,142.512L6537.23,147.53C6538.36,147.768 6539.15,147.733 6539.59,147.422C6540.03,147.112 6540.2,146.502 6540.08,145.591C6540.02,145.156 6539.69,144.656 6539.11,144.091C6538.52,143.526 6538.01,143.064 6537.57,142.704C6537.98,143.015 6538.44,143.359 6538.95,143.737C6539.45,144.115 6539.92,144.555 6540.34,145.059C6540.77,145.562 6541.09,146.147 6541.32,146.812C6541.55,147.478 6541.58,148.228 6541.39,149.065C6541.21,149.901 6540.86,150.497 6540.35,150.853C6539.84,151.209 6539.3,151.422 6538.73,151.491C6538.11,151.591 6537.43,151.548 6536.68,151.363L6516.79,146.442L6516.27,148.831Z" style="fill:white;fill-rule:nonzero;"/>
                        <path d="M6525.51,130.517C6524.67,127.235 6523.56,125.319 6522.19,124.77C6521.77,124.601 6521.53,124.622 6521.48,124.835L6520.82,127.546C6520.78,127.703 6520.56,127.912 6520.14,128.173C6519.4,128.641 6518.64,128.724 6517.89,128.421C6517.15,128.125 6516.62,127.593 6516.3,126.825C6515.98,126.057 6515.96,125.271 6516.25,124.468C6516.63,123.403 6517.36,122.647 6518.45,122.199C6519.55,121.751 6520.66,121.756 6521.8,122.214C6522.98,122.686 6523.99,123.627 6524.82,125.039C6525.65,126.451 6526.27,128.239 6526.67,130.403L6525.51,130.517Z" style="fill:white;fill-rule:nonzero;"/>
                        <path d="M6545.71,130.722L6540.66,125.592C6540.84,125.746 6541.04,125.883 6541.24,126.001C6541.44,126.12 6541.63,126.228 6541.79,126.327C6543.04,127.057 6544.15,127.379 6545.11,127.293C6546.08,127.206 6546.93,126.899 6547.67,126.373C6548.4,125.846 6549.03,125.173 6549.54,124.353C6550.05,123.533 6550.49,122.765 6550.86,122.049C6551.28,121.17 6551.44,120.271 6551.34,119.352C6551.25,118.433 6550.97,117.533 6550.5,116.653C6550.03,115.773 6549.39,114.927 6548.56,114.113C6547.73,113.3 6546.78,112.56 6545.72,111.892L6544.81,111.359C6544.54,111.293 6544.28,111.185 6544.03,111.037C6543.77,110.889 6543.52,110.764 6543.27,110.662C6541.11,109.728 6539.12,109.354 6537.29,109.541C6535.46,109.728 6534.14,110.683 6533.34,112.405C6532.85,113.336 6532.6,114.437 6532.58,115.707C6532.56,116.978 6532.72,118.253 6533.07,119.53C6533.17,120.102 6533.32,120.625 6533.54,121.101C6533.75,121.577 6533.98,122.049 6534.22,122.516L6533.06,122.467C6531.76,122.265 6530.55,121.838 6529.44,121.186C6528.36,120.555 6527.42,119.723 6526.62,118.691C6525.81,117.659 6525.23,116.477 6524.87,115.144C6524.44,113.589 6524.43,112.014 6524.81,110.42C6525.2,108.827 6525.8,107.242 6526.62,105.667C6527.27,104.413 6527.98,103.218 6528.74,102.079C6529.51,100.941 6530.25,99.902 6530.95,98.962L6536.03,104.038C6535.85,103.884 6535.67,103.758 6535.5,103.659C6535.33,103.56 6535.16,103.461 6535,103.363C6533.72,102.613 6532.59,102.276 6531.6,102.353C6530.62,102.429 6529.75,102.74 6529.01,103.285C6528.27,103.829 6527.63,104.507 6527.1,105.316C6526.57,106.126 6526.14,106.899 6525.8,107.635C6525.01,109.413 6525.1,111.174 6526.09,112.918C6527.07,114.662 6528.66,116.221 6530.84,117.596C6531.2,115.982 6531.71,114.531 6532.38,113.242C6533.4,111.273 6534.78,109.726 6536.53,108.602C6538.27,107.479 6540.23,106.991 6542.39,107.138L6543.6,107.217C6544.87,107.4 6546.08,107.827 6547.22,108.498C6548.3,109.129 6549.25,109.957 6550.08,110.981C6550.91,112.005 6551.48,113.191 6551.79,114.54C6552.22,116.096 6552.24,117.67 6551.85,119.264C6551.46,120.858 6550.86,122.442 6550.04,124.018C6549.39,125.271 6548.68,126.466 6547.92,127.605C6547.15,128.743 6546.41,129.782 6545.71,130.722Z" style="fill:white;fill-rule:nonzero;"/>
                        <path d="M6553.68,76.717L6553.19,66.169L6555.51,69.149L6560.58,64.698C6560.96,67.7 6560.04,70.177 6557.82,72.129L6571.08,89.203C6571.84,90.123 6572.49,90.603 6573.02,90.642C6573.55,90.681 6574.02,90.301 6574.45,89.503C6574.65,89.116 6574.68,88.509 6574.53,87.681C6574.39,86.853 6574.25,86.156 6574.11,85.59C6574.25,86.099 6574.42,86.668 6574.61,87.297C6574.8,87.926 6574.92,88.577 6574.96,89.25C6575.01,89.923 6574.94,90.598 6574.74,91.275C6574.54,91.952 6574.13,92.563 6573.51,93.11C6572.89,93.657 6572.27,93.906 6571.66,93.859C6571.05,93.811 6570.5,93.632 6570.01,93.32C6569.46,93.003 6568.95,92.53 6568.46,91.899L6555.46,75.156L6553.68,76.717Z" style="fill:white;fill-rule:nonzero;"/>
                        <path d="M6579.24,88.291L6579.24,87.848L6580.54,86.934C6581.34,86.369 6581.29,85.354 6580.37,83.888L6567.21,62.776C6566.73,62.23 6566.19,61.684 6565.57,61.138L6570.67,61.442L6584.82,84.36L6579.24,88.291ZM6563.85,58.378C6563.51,57.832 6563.4,57.234 6563.52,56.582C6563.65,55.93 6563.98,55.413 6564.53,55.029C6565.01,54.69 6565.56,54.586 6566.17,54.719C6566.78,54.851 6567.26,55.19 6567.6,55.735C6567.96,56.314 6568.07,56.921 6567.94,57.556C6567.8,58.19 6567.49,58.677 6567.01,59.016C6566.47,59.4 6565.9,59.534 6565.29,59.419C6564.69,59.304 6564.21,58.957 6563.85,58.378Z" style="fill:white;fill-rule:nonzero;"/>
                        <path d="M6582.57,75.896C6582.86,76.19 6583.15,76.503 6583.44,76.835C6583.74,77.168 6584.04,77.465 6584.36,77.727C6584.67,77.989 6585.01,78.181 6585.36,78.302C6585.72,78.423 6586.08,78.424 6586.45,78.306C6586.85,78.177 6587.13,77.885 6587.28,77.43C6587.44,76.976 6587.39,76.234 6587.14,75.204L6581.13,54.005L6583.51,49.209L6584.82,53.848C6585.59,52.022 6586.68,50.436 6588.08,49.089C6589.49,47.742 6591.15,46.762 6593.06,46.149C6594.9,45.56 6596.7,45.422 6598.46,45.735C6600.22,46.048 6601.9,46.78 6603.51,47.929C6604.27,46.064 6605.35,44.459 6606.75,43.112C6608.16,41.765 6609.82,40.785 6611.73,40.172C6613.91,39.476 6615.81,39.283 6617.44,39.593C6619.08,39.902 6620.51,40.629 6621.74,41.773C6622.96,42.918 6624.02,44.415 6624.91,46.267C6625.79,48.118 6626.57,50.238 6627.25,52.626L6630.94,65.856C6630.97,65.974 6630.93,66.05 6630.82,66.086L6624.69,68.049L6624.62,67.814L6626.06,67.354C6626.58,67.189 6626.87,66.829 6626.93,66.275C6626.99,65.721 6626.91,65.052 6626.69,64.269L6622.53,49.588C6622.1,48.061 6621.55,46.657 6620.89,45.375C6620.23,44.093 6619.45,43.028 6618.57,42.179C6617.69,41.33 6616.69,40.753 6615.58,40.447C6614.47,40.141 6613.23,40.206 6611.87,40.642C6611.09,40.889 6610.34,41.26 6609.59,41.755C6608.85,42.249 6608.17,42.871 6607.56,43.622C6606.95,44.373 6606.43,45.275 6606.01,46.329C6605.58,47.383 6605.33,48.607 6605.24,50.001C6605.19,49.805 6605.23,49.845 6605.36,50.121C6605.5,50.397 6605.68,50.81 6605.9,51.36C6606.11,51.91 6606.36,52.513 6606.65,53.169C6606.94,53.824 6607.18,54.44 6607.38,55.015C6607.84,56.193 6608.24,57.389 6608.58,58.603L6612.27,71.834C6612.3,71.951 6612.28,72.022 6612.21,72.045L6606.08,74.008L6606.01,73.773L6607.39,73.331C6607.91,73.166 6608.2,72.806 6608.26,72.252C6608.32,71.698 6608.24,71.029 6608.02,70.246L6603.86,55.565C6603.42,53.999 6602.88,52.573 6602.23,51.285C6601.58,49.997 6600.83,48.936 6599.97,48.101C6599.11,47.265 6598.13,46.705 6597.03,46.418C6595.92,46.131 6594.67,46.212 6593.27,46.66C6592.2,47.002 6591.17,47.578 6590.17,48.388C6589.18,49.197 6588.36,50.281 6587.72,51.639C6587.08,52.996 6586.71,54.663 6586.61,56.639C6586.5,58.615 6586.84,60.953 6587.6,63.655L6590.74,74.753C6590.81,74.988 6590.86,75.336 6590.89,75.796C6590.92,76.256 6590.88,76.727 6590.78,77.209C6590.67,77.691 6590.47,78.15 6590.17,78.587C6589.88,79.024 6589.41,79.343 6588.79,79.543C6588.01,79.791 6587.32,79.821 6586.7,79.634C6586.09,79.446 6585.52,79.147 6585,78.737C6584.49,78.326 6584.03,77.853 6583.64,77.317C6583.24,76.781 6582.89,76.307 6582.57,75.896Z" style="fill:white;fill-rule:nonzero;"/>
                        <path d="M6628.81,53.207C6628.94,51.085 6629.41,49.12 6630.23,47.311C6631.05,45.502 6632.13,43.946 6633.46,42.643C6634.79,41.34 6636.3,40.346 6638,39.662C6639.7,38.978 6641.49,38.699 6643.37,38.826C6645.32,38.958 6647.14,39.582 6648.8,40.698C6650.47,41.815 6651.95,43.154 6653.25,44.716C6653.39,44.89 6653.45,45.099 6653.44,45.344C6653.42,45.629 6653.32,45.878 6653.14,46.091C6652.95,46.304 6652.7,46.4 6652.4,46.379L6636.85,45.33C6636.65,45.521 6636.44,45.702 6636.24,45.873C6636.04,46.044 6635.82,46.223 6635.57,46.412C6633.94,48.022 6632.66,49.79 6631.76,51.716C6630.85,53.642 6630.35,55.523 6630.24,57.359C6630.06,60.256 6630.77,62.546 6632.34,64.23C6633.92,65.913 6636.03,66.845 6638.68,67.023C6640.75,67.163 6642.64,66.891 6644.33,66.207C6646.03,65.522 6647.59,64.562 6649.01,63.327C6650.44,62.091 6651.73,60.673 6652.88,59.071C6654.03,57.469 6655.09,55.82 6656.04,54.122L6655.98,55.04C6655.86,57.162 6655.38,59.127 6654.56,60.936C6653.74,62.745 6652.67,64.301 6651.36,65.606C6650.05,66.91 6648.55,67.904 6646.85,68.589C6645.15,69.273 6643.38,69.553 6641.54,69.429C6639.66,69.302 6637.92,68.785 6636.31,67.878C6634.71,66.971 6633.33,65.782 6632.16,64.31C6631,62.839 6630.12,61.151 6629.52,59.246C6628.92,57.342 6628.68,55.328 6628.81,53.207ZM6637.22,44.986L6651.9,45.977C6652.24,46 6652.5,45.844 6652.68,45.507C6652.85,45.171 6652.81,44.851 6652.56,44.547C6651.75,43.345 6650.85,42.485 6649.86,41.968C6648.86,41.45 6647.87,41.158 6646.87,41.09C6645.64,41.008 6644.46,41.163 6643.32,41.557C6642.18,41.951 6641.15,42.404 6640.23,42.916C6639.16,43.499 6638.15,44.189 6637.22,44.986Z" style="fill:white;fill-rule:nonzero;"/>
                        <path d="M6676.04,71.587C6675.8,72.829 6675.77,73.86 6675.94,74.677C6676.12,75.495 6676.4,76.035 6676.79,76.297C6677.15,76.537 6677.55,76.529 6678,76.273C6678.45,76.017 6678.9,75.491 6679.38,74.696L6692.12,53.442L6690.17,52.133C6689.89,51.993 6689.61,51.862 6689.32,51.74C6689.02,51.617 6688.73,51.503 6688.43,51.398L6690.68,51.967L6692.34,53.079C6693.5,51.437 6694.81,50.18 6696.28,49.307C6697.76,48.433 6699.33,47.915 6700.99,47.751C6702.66,47.587 6704.38,47.773 6706.15,48.31C6707.92,48.847 6709.7,49.687 6711.48,50.83C6713.19,51.93 6714.82,53.154 6716.36,54.502C6717.9,55.85 6719.32,57.153 6720.62,58.411L6713.45,65.427L6713.66,65.2C6714.72,64.026 6715.41,62.777 6715.74,61.452C6716.08,60.127 6716.11,58.836 6715.86,57.578C6715.61,56.32 6715.08,55.134 6714.29,54.021C6713.49,52.908 6712.49,51.948 6711.29,51.141C6709.83,50.16 6708.37,49.546 6706.93,49.302C6705.48,49.057 6704.08,49.134 6702.73,49.533C6701.38,49.933 6700.09,50.614 6698.86,51.577C6697.63,52.54 6696.48,53.728 6695.41,55.141L6714.1,67.672L6708.31,68.355L6708.27,67.965L6710.45,67.617C6711.07,67.499 6711.31,67.211 6711.17,66.756C6711.03,66.3 6710.8,65.963 6710.47,65.745L6695.15,55.471L6682.35,77.049C6682.31,77.118 6682.16,77.338 6681.92,77.707C6681.68,78.077 6681.34,78.426 6680.89,78.756C6680.44,79.085 6679.94,79.303 6679.38,79.409C6678.81,79.515 6678.19,79.339 6677.51,78.881C6676.82,78.423 6676.35,77.885 6676.08,77.269C6675.81,76.652 6675.65,76.015 6675.61,75.358C6675.57,74.702 6675.61,74.04 6675.73,73.373C6675.85,72.706 6675.95,72.111 6676.04,71.587Z" style="fill:white;fill-rule:nonzero;"/>
                        <path d="M6708.44,82.038C6709.93,80.615 6711.56,79.562 6713.34,78.879C6715.11,78.196 6716.9,77.875 6718.69,77.917C6720.49,77.959 6722.23,78.359 6723.9,79.118C6725.58,79.877 6727.05,81 6728.31,82.489C6729.57,83.977 6730.47,85.648 6731.01,87.502C6731.54,89.356 6731.74,91.234 6731.59,93.136C6731.44,95.039 6730.96,96.893 6730.13,98.701C6729.31,100.508 6728.15,102.123 6726.67,103.546C6725.18,104.969 6723.54,106.029 6721.75,106.725C6719.96,107.422 6718.17,107.75 6716.37,107.708C6714.58,107.666 6712.85,107.259 6711.19,106.487C6709.52,105.714 6708.06,104.584 6706.8,103.095C6705.54,101.607 6704.63,99.942 6704.08,98.103C6703.53,96.263 6703.33,94.391 6703.48,92.489C6703.63,90.586 6704.12,88.725 6704.96,86.904C6705.8,85.083 6706.96,83.461 6708.44,82.038ZM6706.69,86.11C6704.83,87.889 6703.83,89.91 6703.68,92.174C6703.53,94.438 6704.29,96.558 6705.96,98.532C6707.27,100.082 6708.91,101.265 6710.87,102.083C6712.83,102.901 6714.87,103.355 6716.99,103.443C6719.11,103.532 6721.18,103.256 6723.2,102.615C6725.22,101.974 6726.94,100.97 6728.37,99.602C6729.29,98.726 6729.99,97.774 6730.49,96.745C6730.99,95.716 6731.27,94.653 6731.32,93.556C6731.38,92.458 6731.23,91.365 6730.87,90.274C6730.52,89.183 6729.93,88.151 6729.1,87.179C6727.79,85.63 6726.16,84.44 6724.22,83.608C6722.27,82.776 6720.23,82.316 6718.11,82.227C6715.99,82.139 6713.93,82.415 6711.91,83.055C6709.89,83.696 6708.15,84.714 6706.69,86.11Z" style="fill:white;fill-rule:nonzero;"/>
                        <path d="M6714.69,111.986L6715.06,112.064L6715.77,113.536C6716.02,114.045 6716.39,114.287 6716.9,114.262C6717.41,114.237 6718,114.037 6718.69,113.663L6739.86,102.059C6740.46,101.686 6741.04,101.184 6741.6,100.555L6740.71,105.806L6739.32,106.565C6741.15,107.035 6742.82,107.877 6744.34,109.091C6745.86,110.306 6747.07,111.84 6747.97,113.693C6748.46,114.711 6748.82,115.881 6749.06,117.204C6749.28,118.527 6749.37,119.824 6749.32,121.096C6749.27,122.367 6749.05,123.508 6748.68,124.519C6748.3,125.529 6747.75,126.231 6747.03,126.625C6746.52,126.906 6745.99,127.05 6745.43,127.057C6744.87,127.064 6744.48,126.85 6744.27,126.414C6743.92,125.687 6743.89,125.024 6744.18,124.426C6744.48,123.828 6744.85,123.243 6745.31,122.67C6745.8,122.078 6746.32,121.532 6746.85,121.032C6747.39,120.531 6747.73,120.197 6747.86,120.031C6748.3,119.422 6748.53,118.537 6748.55,117.375C6748.57,116.214 6748.3,115.033 6747.71,113.834C6747.24,112.853 6746.55,111.929 6745.66,111.063C6744.76,110.197 6743.66,109.557 6742.36,109.145C6741.05,108.732 6739.54,108.605 6737.82,108.765C6736.11,108.924 6734.16,109.53 6731.99,110.582L6717.78,118.365L6714.69,111.986Z" style="fill:white;fill-rule:nonzero;"/>
                    </g>
                </g>
            </g>
        </g>
    </g>
</svg>
