<svg width="32" height="32" viewBox="0 0 32 32" fill="none" xmlns="http://www.w3.org/2000/svg">
<path d="M4.1555 10.0733C1.89122 12.3363 1.37765 14.8401 2.77233 17.2658C4.29995 19.9226 8.21804 21.9853 13.3005 21.2592C15.8814 20.8905 18.6964 18.0606 21.2872 17.6288C23.4654 17.2658 26.0066 17.9918 27.8218 16.9027C29.214 16.0674 30 14.3576 30 13.2724C30 11.8203 28.3717 10.9768 27.4589 10.3683C26.3697 9.6421 24.652 8.88984 22.0133 8.18996L21.9713 8.17883C19.0592 7.40641 16.5454 6.73962 11.8485 7.10095C8.21082 7.3808 6.03983 8.19001 4.1555 10.0733Z" stroke="white" strokeWidth="2" strokeLinecap="round"/>
<path d="M2.04614 14.3616C2.04612 18.3549 2.46841 19.8217 3.49827 21.6222C5.12121 24.4596 8.21595 25.7166 13.2984 24.9905C15.8794 24.6218 18.6943 21.7919 21.2851 21.3601C23.4633 20.9971 26.0046 21.7231 27.8197 20.634C29.2119 19.7987 29.9979 18.0889 29.9979 17.0037C29.9979 15.5516 29.9979 14.3616 29.9979 13.2725" stroke="white" strokWidth="2" strokeLinecap="round"/>
<mask id="path-3-inside-1_371_808" fill="white">
<ellipse cx="11.4856" cy="13.6358" rx="2.54174" ry="1.45242"/>
</mask>
<path d="M12.0273 13.6358C12.0273 13.3396 12.1376 13.1226 12.22 13.0112C12.2935 12.912 12.3406 12.8977 12.2906 12.9263C12.1843 12.9871 11.9039 13.0882 11.4856 13.0882V17.0882C12.471 17.0882 13.4615 16.8642 14.2752 16.3993C15.0322 15.9667 16.0273 15.0643 16.0273 13.6358H12.0273ZM11.4856 13.0882C11.0673 13.0882 10.7869 12.9871 10.6806 12.9263C10.6305 12.8977 10.6776 12.912 10.7511 13.0112C10.8336 13.1226 10.9438 13.3396 10.9438 13.6358H6.94385C6.94385 15.0643 7.939 15.9667 8.69603 16.3993C9.50964 16.8642 10.5001 17.0882 11.4856 17.0882V13.0882ZM10.9438 13.6358C10.9438 13.9319 10.8336 14.1489 10.7511 14.2603C10.6776 14.3596 10.6305 14.3738 10.6806 14.3452C10.7869 14.2845 11.0673 14.1833 11.4856 14.1833V10.1833C10.5001 10.1833 9.50964 10.4073 8.69603 10.8723C7.939 11.3049 6.94385 12.2072 6.94385 13.6358H10.9438ZM11.4856 14.1833C11.9039 14.1833 12.1843 14.2845 12.2906 14.3452C12.3406 14.3738 12.2935 14.3596 12.22 14.2603C12.1376 14.1489 12.0273 13.9319 12.0273 13.6358H16.0273C16.0273 12.2072 15.0322 11.3049 14.2752 10.8723C13.4615 10.4073 12.471 10.1833 11.4856 10.1833V14.1833Z" fill="white" mask="url(#path-3-inside-1_371_808)"/>
</svg>
