<svg width="32" height="32" viewBox="0 0 32 32" fill="none" xmlns="http://www.w3.org/2000/svg">
<path d="M27.6 21.5888C27.6408 20.1282 27.3673 18.6759 26.7979 17.3301C26.2286 15.9844 25.3767 14.7767 24.3 13.7888" stroke="white" stroke-width="2" strokeLinecap="round" strokeLinejoin="round"/>
<path d="M5 21.5887C5 15.2887 10.1 10.6888 16.3 10.6888C17.8032 10.6843 19.2946 10.9555 20.7 11.4888" stroke="white" strokeWidth="2" stroke-linecap="round" strokeLinejoin="round"/>
<path d="M2 25.5889H30.6" stroke="white" strokeWidth="2" strokeLinecap="round" stroke-linejoin="round"/>
<path d="M24.7001 12.3887L24.3 13.7887L24.1001 14.6887C23.5951 16.7734 22.522 18.6773 21.0001 20.1887L20.6001 20.4887C20.347 20.7678 20.0383 20.9908 19.6938 21.1434C19.3494 21.296 18.9768 21.3749 18.6001 21.3749C18.2233 21.3749 17.8507 21.296 17.5063 21.1434C17.1618 20.9908 16.8532 20.7678 16.6001 20.4887L15.8 19.6887L15.0001 18.8887C14.734 18.628 14.5226 18.3168 14.3783 17.9734C14.234 17.63 14.1597 17.2612 14.1597 16.8887C14.1597 16.5162 14.234 16.1474 14.3783 15.804C14.5226 15.4606 14.734 15.1494 15.0001 14.8887L15.4001 14.5887C16.8367 13.0732 18.675 11.998 20.7001 11.4887H20.8L23.1001 10.8887L24.7001 12.3887Z" stroke="white" strokeWidth="2" strokeLinecap="round" strokeLinejoin="round"/>
<path d="M29.1 11.5888C28.7215 11.8803 28.2747 12.0701 27.8021 12.1401C27.3295 12.2101 26.8469 12.1581 26.4001 11.9889L24.6 12.3888L23.3 10.9889L23.7001 9.18887C23.4931 8.77296 23.4112 8.30585 23.4644 7.84433C23.5177 7.38281 23.7038 6.94668 24.0001 6.58884C25.0001 5.58884 27.0001 5.88885 28.4001 7.28885C29.8001 8.68885 30.1 10.5888 29.1 11.5888Z" stroke="white" stroke-width="2" strokeLinecap="round" strokeLinejoin="round"/>
</svg>
