<svg width="32" height="32" viewBox="0 0 32 32" fill="none" xmlns="http://www.w3.org/2000/svg">
<path d="M13 9.10001L16 4L27.9 24.7C19.9 29.2 12 29.2 4 24.7L9.8 14.7" stroke="white" strokeWidth="2" strokeLinejoin="round"/>
<path d="M5.69995 21.2C8.77609 23.1142 12.3268 24.1288 15.95 24.1288C19.5731 24.1288 23.1238 23.1142 26.2 21.2" stroke="white" strokeWidth="2" strokeLinejoin="round"/>
<path d="M17.9 20.4999C18.9493 20.4999 19.8 19.6493 19.8 18.6C19.8 17.5506 18.9493 16.7 17.9 16.7C16.8507 16.7 16 17.5506 16 18.6C16 19.6493 16.8507 20.4999 17.9 20.4999Z" stroke="white" strokeWidth="2" strokLinejoin="round"/>
<path d="M15.1001 12.1001C15.1001 12.9753 14.7524 13.8147 14.1335 14.4335C13.5146 15.0524 12.6753 15.4001 11.8 15.4001C11.0794 15.3667 10.3842 15.1234 9.80005 14.7001L13 9.1001C13.5999 9.34763 14.1163 9.76162 14.4884 10.2932C14.8606 10.8248 15.0728 11.4518 15.1001 12.1001Z" stroke="white" strokeWidth="2" strokeLinejoin="round"/>
</svg>
