<svg width="32" height="32" viewBox="0 0 32 32" fill="none" xmlns="http://www.w3.org/2000/svg">
<path d="M21.8999 4.39999C22.2115 3.97674 22.4482 3.50323 22.5999 3C23.4503 3.18089 24.2388 3.58041 24.8877 4.15912C25.5366 4.73783 26.0233 5.47573 26.2999 6.3C26.4979 7.01659 26.5988 7.75654 26.5999 8.5C26.4093 9.77242 25.7707 10.935 24.799 11.7783C23.8273 12.6217 22.5864 13.0904 21.2999 13.1H9.69989C8.8315 13.0823 8.00509 12.723 7.3999 12.1C6.77077 11.4581 6.4127 10.5987 6.3999 9.7C6.39952 8.81532 6.74395 7.96533 7.36011 7.33051C7.97626 6.69568 8.8156 6.32602 9.69989 6.3H17.7999C18.5856 6.33561 19.3683 6.18155 20.082 5.85085C20.7956 5.52014 21.4192 5.0225 21.8999 4.39999Z" stroke="white" stroke-width="2" stroke-linecap="round" stroke-linejoin="round"/>
<path d="M25.1 13.1001H7.90002C5.74611 13.1001 4 14.826 4 16.9551C4 19.0842 5.74611 20.8101 7.90002 20.8101H25.1C27.2539 20.8101 29 19.0842 29 16.9551C29 14.826 27.2539 13.1001 25.1 13.1001Z" stroke="white" stroke-width="2" stroke-linecap="round" stroke-linejoin="round"/>
<path d="M25.4999 20.8H7.3999L8.3999 29.5H24.4999L25.4999 20.8Z" stroke="white" stroke-width="2" stroke-linecap="round" stroke-linejoin="round"/>
<path d="M14 29.5001V25.1001" stroke="white" stroke-width="2" stroke-linecap="round" stroke-linejoin="round"/>
<path d="M19 29.5001V25.1001" stroke="white" stroke-width="2" stroke-linecap="round" stroke-linejoin="round"/>
</svg>
