<?xml version="1.0" encoding="UTF-8" standalone="no"?>
<!DOCTYPE svg PUBLIC "-//W3C//DTD SVG 1.1//EN" "http://www.w3.org/Graphics/SVG/1.1/DTD/svg11.dtd">
<svg width="100%" height="100%" viewBox="0 0 66 223" version="1.1" xmlns="http://www.w3.org/2000/svg" xmlnsXlink="http://www.w3.org/1999/xlink" xmlSpace="preserve" xmlnsSerif="http://www.serif.com/" style="fill-rule:evenodd;clip-rule:evenodd;stroke-linejoin:round;stroke-miterlimit:2;">
    <g transform="matrix(0.492834,0,0,0.48986,-1155.11,-141.399)">
        <path d="M2388.05,296.421L2388.05,293.653C2388.05,290.891 2390.29,288.653 2393.05,288.653C2401.8,288.653 2419.77,288.653 2428.51,288.653C2431.27,288.653 2433.51,290.891 2433.51,293.653L2433.51,296.421C2434.68,296.522 2435.78,297.032 2436.62,297.867C2437.55,298.805 2438.08,300.077 2438.08,301.403C2438.08,304.897 2438.08,309.543 2438.08,313.037C2438.08,314.363 2437.55,315.635 2436.62,316.573C2435.78,317.409 2434.68,317.918 2433.51,318.019L2433.51,404.406C2459.3,413.723 2477.74,438.425 2477.74,467.403L2477.74,728.885C2477.74,732.863 2476.16,736.678 2473.35,739.491C2470.53,742.304 2466.72,743.885 2462.74,743.885C2436.97,743.885 2384.59,743.885 2358.82,743.885C2354.84,743.885 2351.03,742.304 2348.22,739.491C2345.4,736.678 2343.82,732.863 2343.82,728.885L2343.82,467.403C2344,438.611 2362.4,413.841 2388.05,404.458L2388.05,318.019C2386.89,317.918 2385.78,317.409 2384.95,316.573C2384.01,315.635 2383.48,314.363 2383.48,313.037C2383.48,309.543 2383.48,304.897 2383.48,301.403C2383.48,300.077 2384.01,298.805 2384.95,297.867C2385.78,297.032 2386.89,296.522 2388.05,296.421ZM2388.4,300.489L2392.11,300.169L2392.11,293.653C2392.11,293.139 2392.54,292.736 2393.05,292.736C2393.05,292.736 2428.51,292.736 2428.51,292.736C2429.02,292.736 2429.45,293.139 2429.45,293.653C2429.45,293.653 2429.45,300.169 2429.45,300.169L2433.16,300.489C2433.39,300.509 2433.6,300.604 2433.76,300.763C2433.92,300.933 2434.02,301.163 2434.02,301.403L2434.02,313.037C2434.02,313.278 2433.92,313.507 2433.76,313.677C2433.6,313.836 2433.39,313.932 2433.16,313.951L2429.45,314.272L2429.45,407.277L2432.14,408.248C2456.35,416.998 2473.68,440.19 2473.68,467.403C2473.68,467.403 2473.68,728.885 2473.68,728.885C2473.68,731.777 2472.53,734.55 2470.49,736.596C2468.43,738.65 2465.65,739.802 2462.74,739.802C2436.97,739.802 2384.59,739.802 2358.82,739.802C2355.92,739.802 2353.13,738.65 2351.08,736.596C2349.03,734.55 2347.88,731.777 2347.88,728.885C2347.88,728.885 2347.88,467.418 2347.88,467.418C2348.06,440.373 2365.34,417.109 2389.44,408.295L2392.11,407.318L2392.11,314.272L2388.4,313.951C2388.18,313.932 2387.97,313.836 2387.81,313.677C2387.64,313.507 2387.54,313.278 2387.54,313.037L2387.54,301.403C2387.54,301.163 2387.64,300.933 2387.81,300.763C2387.97,300.604 2388.18,300.509 2388.4,300.489Z" style="fill:white;"/>
    </g>
</svg>
