<?xml version="1.0" encoding="UTF-8" standalone="no"?>
<!DOCTYPE svg PUBLIC "-//W3C//DTD SVG 1.1//EN" "http://www.w3.org/Graphics/SVG/1.1/DTD/svg11.dtd">
<svg width="100%" height="100%" viewBox="0 0 66 223" version="1.1" xmlns="http://www.w3.org/2000/svg" xmlns:xlink="http://www.w3.org/1999/xlink" xml:space="preserve" xmlns:serif="http://www.serif.com/" style="fill-rule:evenodd;clip-rule:evenodd;stroke-linejoin:round;stroke-miterlimit:2;">
    <path d="M24.799,6.559L24.799,3L41.201,3L41.201,6.559L43.453,6.752L43.453,11.438L41.201,11.632L41.201,58.813L43.187,59.526C54.734,63.673 63,74.665 63,87.562C63,87.562 63,215.652 63,215.652C63,216.803 62.539,217.906 61.72,218.72C60.895,219.54 59.775,220 58.608,220C58.607,220 7.393,220 7.393,220C6.225,220 5.105,219.54 4.28,218.72C3.461,217.906 3,216.803 3,215.652C3,215.652 3,87.574 3,87.574C3.085,74.753 11.33,63.726 22.824,59.548L24.799,58.83L24.799,11.632L22.547,11.438L22.547,6.752L24.799,6.559Z" style="fill:white;"/>
</svg>
