<?xml version="1.0" encoding="UTF-8" standalone="no"?>
<!DOCTYPE svg PUBLIC "-//W3C//DTD SVG 1.1//EN" "http://www.w3.org/Graphics/SVG/1.1/DTD/svg11.dtd">
<svg width="100%" height="100%" viewBox="0 0 66 223" version="1.1" xmlns="http://www.w3.org/2000/svg" xmlnsXlink="http://www.w3.org/1999/xlink" xmlSpace="preserve" xmlnsSerif="http://www.serif.com/" style="fill-rule:evenodd;clip-rule:evenodd;stroke-linejoin:round;stroke-miterlimit:2;">
    <g transform="matrix(0.492834,0,0,0.48986,-1155.11,-141.399)">
        <path d="M2388.05,296.421L2388.05,293.653C2388.05,290.891 2390.29,288.653 2393.05,288.653C2401.8,288.653 2419.77,288.653 2428.51,288.653C2431.27,288.653 2433.51,290.891 2433.51,293.653L2433.51,296.421C2434.68,296.522 2435.78,297.032 2436.62,297.867C2437.55,298.805 2438.08,300.077 2438.08,301.403C2438.08,304.897 2438.08,309.543 2438.08,313.037C2438.08,314.363 2437.55,315.635 2436.62,316.573C2435.78,317.409 2434.68,317.918 2433.51,318.019L2433.51,404.406C2459.3,413.723 2477.74,438.425 2477.74,467.403L2477.74,728.885C2477.74,732.863 2476.16,736.678 2473.35,739.491C2470.53,742.304 2466.72,743.885 2462.74,743.885C2436.97,743.885 2384.59,743.885 2358.82,743.885C2354.84,743.885 2351.03,742.304 2348.22,739.491C2345.4,736.678 2343.82,732.863 2343.82,728.885L2343.82,467.403C2344,438.611 2362.4,413.841 2388.05,404.458L2388.05,318.019C2386.89,317.918 2385.78,317.409 2384.95,316.573C2384.01,315.635 2383.48,314.363 2383.48,313.037C2383.48,309.543 2383.48,304.897 2383.48,301.403C2383.48,300.077 2384.01,298.805 2384.95,297.867C2385.78,297.032 2386.89,296.522 2388.05,296.421ZM2398.2,305.79L2398.2,298.86L2423.37,298.86L2423.37,305.79L2427.93,306.184L2427.93,308.256L2423.37,308.651L2423.37,411.585L2430.08,414.012C2451.94,421.91 2467.6,442.838 2467.6,467.403C2467.6,467.403 2467.6,728.885 2467.6,728.885C2467.6,730.149 2467.09,731.359 2466.2,732.252C2465.28,733.168 2464.04,733.678 2462.74,733.678C2462.74,733.678 2358.82,733.678 2358.82,733.678C2357.53,733.678 2356.28,733.168 2355.37,732.252C2354.47,731.359 2353.97,730.149 2353.97,728.885L2353.97,467.441C2354.13,443.015 2369.75,422.011 2391.52,414.05L2398.2,411.607L2398.2,308.651L2393.63,308.256L2393.63,306.184L2398.2,305.79Z" style="fill:white;"/>
    </g>
</svg>
